InterAlia-SemiBoldItalic.ufo
<glyph name="exclam" format="2">
  <advance height="2479.0" width="632.8"/>
  <unicode hex="0021"/>
  <outline>
    <contour>
      <point x="610.4000000000001" y="1489.0" type="line"/>
      <point x="329.6" y="1489.0" type="line"/>
      <point x="179.4" y="437.4" type="line"/>
      <point x="412.4" y="437.4" type="line"/>
    </contour>
    <component base="period" xOffset="20.6"/>
  </outline>
</glyph>
<glyph name="numbersign" format="2">
  <advance height="2479.0" width="1317.6"/>
  <unicode hex="0023"/>
  <outline>
    <contour>
      <point x="713.6" y="0.0" type="line"/>
      <point x="917.6" y="0.0" type="line"/>
      <point x="1188.0" y="1489.0" type="line"/>
      <point x="984.6" y="1489.0" type="line"/>
    </contour>
    <contour>
      <point x="50.0" y="383.8" type="line"/>
      <point x="1195.8" y="383.8" type="line"/>
      <point x="1233.8000000000002" y="587.8" type="line"/>
      <point x="87.60000000000001" y="587.8" type="line"/>
    </contour>
    <contour>
      <point x="190.6" y="0.0" type="line"/>
      <point x="394.0" y="0.0" type="line"/>
      <point x="664.6" y="1489.0" type="line"/>
      <point x="460.6" y="1489.0" type="line"/>
    </contour>
    <contour>
      <point x="145.2" y="901.8" type="line"/>
      <point x="1291.3999999999999" y="901.8" type="line"/>
      <point x="1328.6" y="1105.2" type="line"/>
      <point x="182.4" y="1105.2" type="line"/>
    </contour>
  </outline>
</glyph>
<glyph name="percent" format="2">
  <advance height="2479.0" width="1728.0"/>
  <unicode hex="0025"/>
  <anchor x="1151.1999999999998" y="791.0" name="dnom"/>
  <anchor x="628.1999999999999" y="698.0" name="numr"/>
  <outline>
    <contour>
      <point x="882.2" y="279.0" type="line" smooth="yes"/>
      <point x="850.2" y="106.6"/>
      <point x="939.4" y="-41.2"/>
      <point x="1144.3999999999999" y="-41.2" type="curve" smooth="yes"/>
      <point x="1347.8000000000002" y="-41.2"/>
      <point x="1480.4" y="106.6"/>
      <point x="1512.4" y="279.0" type="curve" smooth="yes"/>
      <point x="1526.4" y="358.0" type="line" smooth="yes"/>
      <point x="1558.8000000000002" y="531.6"/>
      <point x="1471.0" y="678.2"/>
      <point x="1264.8" y="678.2" type="curve" smooth="yes"/>
      <point x="1063.2" y="678.2"/>
      <point x="928.2" y="530.4"/>
      <point x="896.2" y="358.0" type="curve" smooth="yes"/>
    </contour>
    <contour>
      <point x="1086.8" y="358.0" type="line" smooth="yes"/>
      <point x="1101.3999999999999" y="435.2"/>
      <point x="1146.0" y="512.4"/>
      <point x="1237.3999999999999" y="512.4" type="curve" smooth="yes"/>
      <point x="1333.6" y="512.4"/>
      <point x="1349.8" y="435.2"/>
      <point x="1335.2" y="358.0" type="curve" smooth="yes"/>
      <point x="1320.6000000000001" y="279.0" type="line" smooth="yes"/>
      <point x="1306.6000000000001" y="202.20000000000002"/>
      <point x="1265.0" y="125.8"/>
      <point x="1171.8" y="125.8" type="curve" smooth="yes"/>
      <point x="1078.0" y="125.8"/>
      <point x="1058.6" y="203.4"/>
      <point x="1072.2" y="279.0" type="curve" smooth="yes"/>
    </contour>
    <contour>
      <point x="268.0" y="1132.0" type="line" smooth="yes"/>
      <point x="242.0" y="957.6"/>
      <point x="325.2" y="812.4"/>
      <point x="529.8" y="812.4" type="curve" smooth="yes"/>
      <point x="733.0" y="812.4"/>
      <point x="872.2" y="956.8"/>
      <point x="898.2" y="1132.0" type="curve" smooth="yes"/>
      <point x="909.2" y="1210.0" type="line" smooth="yes"/>
      <point x="935.2" y="1385.0"/>
      <point x="853.8000000000001" y="1530.8"/>
      <point x="647.6" y="1530.8" type="curve" smooth="yes"/>
      <point x="446.6" y="1530.8"/>
      <point x="305.0" y="1385.0"/>
      <point x="279.0" y="1210.0" type="curve" smooth="yes"/>
    </contour>
    <contour>
      <point x="470.8" y="1210.0" type="line" smooth="yes"/>
      <point x="481.8" y="1286.0"/>
      <point x="528.1999999999999" y="1365.0"/>
      <point x="620.1999999999999" y="1365.0" type="curve" smooth="yes"/>
      <point x="716.4" y="1365.0"/>
      <point x="729.4" y="1287.2"/>
      <point x="718.0" y="1210.0" type="curve" smooth="yes"/>
      <point x="706.4" y="1132.0" type="line" smooth="yes"/>
      <point x="694.4" y="1053.8"/>
      <point x="650.2" y="977.8"/>
      <point x="557.0" y="977.8" type="curve" smooth="yes"/>
      <point x="465.0" y="977.8"/>
      <point x="447.2" y="1053.8"/>
      <point x="459.2" y="1132.0" type="curve" smooth="yes"/>
    </contour>
    <component base="fraction" xOffset="579.0"/>
  </outline>
</glyph>
<glyph name="ampersand" format="2">
  <advance height="2479.0" width="1374.3999999999999"/>
  <unicode hex="0026"/>
  <outline>
    <contour>
      <point x="483.20000000000005" y="-21.2" type="curve"/>
      <point x="618.8" y="-21.2"/>
      <point x="776.2" y="21.599999999999998"/>
      <point x="896.6" y="116.4" type="curve"/>
      <point x="922.1999999999999" y="133.2"/>
      <point x="949.4" y="149.0"/>
      <point x="975.4" y="165.8" type="curve"/>
      <point x="1099.6" y="254.99999999999997"/>
      <point x="1230.0" y="420.2"/>
      <point x="1275.4" y="702.0" type="curve"/>
      <point x="1049.6" y="702.0" type="line"/>
      <point x="999.3999999999999" y="397.2"/>
      <point x="741.5999999999999" y="195.0"/>
      <point x="528.0" y="195.0" type="curve" smooth="yes"/>
      <point x="382.2" y="195.0"/>
      <point x="303.8" y="289.6"/>
      <point x="322.0" y="407.6" type="curve"/>
      <point x="330.40000000000003" y="458.4"/>
      <point x="382.8" y="536.8"/>
      <point x="493.2" y="609.6" type="curve" smooth="yes"/>
      <point x="831.2" y="829.8" type="line" smooth="yes"/>
      <point x="970.0" y="920.4"/>
      <point x="1062.3999999999999" y="1028.0"/>
      <point x="1085.3999999999999" y="1169.8" type="curve"/>
      <point x="1116.8" y="1351.8"/>
      <point x="997.8" y="1507.6"/>
      <point x="763.0" y="1507.6" type="curve" smooth="yes"/>
      <point x="527.8" y="1507.6"/>
      <point x="347.0" y="1351.0"/>
      <point x="312.2" y="1140.2" type="curve" smooth="yes"/>
      <point x="281.4" y="953.6"/>
      <point x="389.2" y="816.0"/>
      <point x="494.40000000000003" y="664.6" type="curve" smooth="yes"/>
      <point x="963.6" y="0.0" type="line"/>
      <point x="1248.2" y="0.0" type="line"/>
      <point x="685.8" y="818.6" type="line" smooth="yes"/>
      <point x="606.6" y="940.6"/>
      <point x="529.4" y="1038.2"/>
      <point x="544.0" y="1136.0" type="curve" smooth="yes"/>
      <point x="556.8" y="1217.8"/>
      <point x="635.4" y="1292.0"/>
      <point x="729.6" y="1292.0" type="curve" smooth="yes"/>
      <point x="824.8" y="1292.0"/>
      <point x="870.4" y="1221.6"/>
      <point x="859.8" y="1157.8" type="curve"/>
      <point x="846.1999999999999" y="1083.0"/>
      <point x="797.4" y="1029.6"/>
      <point x="711.6" y="978.8" type="curve"/>
      <point x="418.2" y="799.2" type="line"/>
      <point x="227.4" y="682.2"/>
      <point x="91.0" y="574.8"/>
      <point x="62.8" y="396.0" type="curve"/>
      <point x="23.4" y="158.8"/>
      <point x="179.2" y="-21.2"/>
    </contour>
  </outline>
</glyph>
<glyph name="quotesingle" format="2">
  <advance height="2479.0" width="468.6"/>
  <unicode hex="0027"/>
  <outline>
    <contour>
      <point x="514.4" y="1489.0" type="line"/>
      <point x="262.2" y="1489.0" type="line"/>
      <point x="207.2" y="941.0" type="line"/>
      <point x="389.4" y="941.0" type="line"/>
    </contour>
  </outline>
</glyph>
<glyph name="parenleft" format="2">
  <advance height="2479.0" width="806.0"/>
  <unicode hex="0028"/>
  <outline>
    <contour>
      <point x="208.8" y="607.2" type="curve" smooth="yes"/>
      <point x="149.0" y="244.4"/>
      <point x="195.99999999999997" y="-58.0"/>
      <point x="344.0" y="-316.6" type="curve"/>
      <point x="591.4" y="-316.6" type="line"/>
      <point x="475.99999999999994" y="-124.6"/>
      <point x="424.6" y="262.4"/>
      <point x="482.6" y="607.2" type="curve" smooth="yes"/>
      <point x="541.0" y="952.6"/>
      <point x="718.0" y="1339.0"/>
      <point x="898.0" y="1531.0" type="curve"/>
      <point x="649.6" y="1531.0" type="line"/>
      <point x="414.59999999999997" y="1272.4"/>
      <point x="269.0" y="970.6"/>
    </contour>
  </outline>
</glyph>
<glyph name="asterisk" format="2">
  <advance height="2479.0" width="1112.4"/>
  <unicode hex="002A"/>
  <outline>
    <contour>
      <point x="482.6" y="652.0" type="line"/>
      <point x="658.8" y="652.0" type="line"/>
      <point x="693.6" y="946.4" type="line"/>
      <point x="914.4" y="783.6" type="line"/>
      <point x="1029.4" y="938.4" type="line"/>
      <point x="786.1999999999999" y="1071.0" type="line"/>
      <point x="1069.2" y="1202.6" type="line"/>
      <point x="1005.5999999999999" y="1357.4" type="line"/>
      <point x="733.6" y="1194.6" type="line"/>
      <point x="798.8" y="1489.0" type="line"/>
      <point x="621.6" y="1489.0" type="line"/>
      <point x="589.6" y="1194.6" type="line"/>
      <point x="368.20000000000005" y="1357.4" type="line"/>
      <point x="253.79999999999998" y="1202.6" type="line"/>
      <point x="497.0" y="1071.0" type="line"/>
      <point x="213.39999999999998" y="938.4" type="line"/>
      <point x="275.8" y="783.6" type="line"/>
      <point x="549.6" y="946.4" type="line"/>
    </contour>
  </outline>
</glyph>
<glyph name="plus" format="2">
  <advance height="2479.0" width="1378.0"/>
  <unicode hex="002B"/>
  <outline>
    <contour>
      <point x="496.8" y="88.0" type="line"/>
      <point x="725.5999999999999" y="88.0" type="line"/>
      <point x="892.1999999999999" y="1094.4" type="line"/>
      <point x="662.8000000000001" y="1094.4" type="line"/>
    </contour>
    <contour>
      <point x="171.4" y="476.8" type="line"/>
      <point x="1178.2" y="476.8" type="line"/>
      <point x="1216.4" y="705.0" type="line"/>
      <point x="210.0" y="705.0" type="line"/>
    </contour>
  </outline>
</glyph>
<glyph name="comma" format="2">
  <advance height="2479.0" width="604.6"/>
  <unicode hex="002C"/>
  <outline>
    <contour>
      <point x="386.20000000000005" y="204.0" type="line"/>
      <point x="153.8" y="204.0" type="line"/>
      <point x="133.4" y="122.0" type="line" smooth="yes"/>
      <point x="89.80000000000001" y="-76.0"/>
      <point x="2.2000000000000055" y="-277.8"/>
      <point x="-29.800000000000004" y="-364.0" type="curve"/>
      <point x="147.6" y="-364.0" type="line"/>
      <point x="196.39999999999998" y="-271.8"/>
      <point x="311.20000000000005" y="-59.4"/>
      <point x="362.6" y="123.8" type="curve" smooth="yes"/>
    </contour>
  </outline>
</glyph>
<glyph name="hyphen" format="2">
  <advance height="2479.0" width="954.6"/>
  <unicode hex="002D"/>
  <outline>
    <contour>
      <point x="839.8000000000001" y="729.4" type="line"/>
      <point x="170.0" y="729.4" type="line"/>
      <point x="134.20000000000002" y="512.2" type="line"/>
      <point x="804.6" y="512.2" type="line"/>
    </contour>
  </outline>
</glyph>
<glyph name="period" format="2">
  <advance height="2479.0" width="594.4"/>
  <unicode hex="002E"/>
  <outline>
    <contour>
      <point x="219.79999999999998" y="-16.4" type="curve" smooth="yes"/>
      <point x="304.59999999999997" y="-16.4"/>
      <point x="382.6" y="55.0"/>
      <point x="388.0" y="143.4" type="curve" smooth="yes"/>
      <point x="393.6" y="229.8"/>
      <point x="323.4" y="300.59999999999997"/>
      <point x="237.0" y="300.59999999999997" type="curve" smooth="yes"/>
      <point x="149.20000000000002" y="300.59999999999997"/>
      <point x="71.8" y="231.6"/>
      <point x="68.2" y="143.4" type="curve" smooth="yes"/>
      <point x="64.39999999999999" y="55.0"/>
      <point x="129.8" y="-16.4"/>
    </contour>
  </outline>
</glyph>
<glyph name="slash" format="2">
  <advance height="2479.0" width="775.6"/>
  <unicode hex="002F"/>
  <outline>
    <contour>
      <point x="908.6" y="1559.0" type="line"/>
      <point x="678.0" y="1559.0" type="line"/>
      <point x="-95.0" y="-224.0" type="line"/>
      <point x="135.2" y="-224.0" type="line"/>
    </contour>
  </outline>
</glyph>
<glyph name="zero" format="2">
  <advance height="2479.0" width="1366.2"/>
  <unicode hex="0030"/>
  <outline>
    <contour>
      <point x="585.6" y="-28.4" type="curve" smooth="yes"/>
      <point x="944.5999999999999" y="-28.4"/>
      <point x="1205.6000000000001" y="255.4"/>
      <point x="1287.2" y="743.8" type="curve" smooth="yes"/>
      <point x="1368.0" y="1229.8"/>
      <point x="1197.0" y="1510.0"/>
      <point x="839.8000000000001" y="1510.0" type="curve" smooth="yes"/>
      <point x="482.59999999999997" y="1510.0"/>
      <point x="221.0" y="1230.0"/>
      <point x="139.6" y="743.8" type="curve" smooth="yes"/>
      <point x="58.599999999999994" y="255.2"/>
      <point x="225.39999999999998" y="-28.4"/>
    </contour>
    <contour>
      <point x="623.2" y="199.2" type="curve" smooth="yes"/>
      <point x="438.6" y="199.2"/>
      <point x="353.0" y="386.0"/>
      <point x="412.2" y="743.8" type="curve" smooth="yes"/>
      <point x="471.0" y="1098.0"/>
      <point x="617.8000000000001" y="1285.4"/>
      <point x="803.4000000000001" y="1285.4" type="curve" smooth="yes"/>
      <point x="988.0" y="1285.4"/>
      <point x="1074.2" y="1098.0"/>
      <point x="1014.6" y="743.8" type="curve" smooth="yes"/>
      <point x="955.0" y="386.0"/>
      <point x="810.0" y="199.2"/>
    </contour>
  </outline>
</glyph>
<glyph name="one" format="2">
  <advance height="2479.0" width="985.0"/>
  <unicode hex="0031"/>
  <outline>
    <contour>
      <point x="892.4" y="1489.0" type="line"/>
      <point x="635.6" y="1489.0" type="line"/>
      <point x="226.2" y="1251.2" type="line"/>
      <point x="184.6" y="1004.2" type="line"/>
      <point x="570.1999999999999" y="1226.8" type="line"/>
      <point x="579.2" y="1226.8" type="line"/>
      <point x="375.2" y="0.0" type="line"/>
      <point x="645.4" y="0.0" type="line"/>
    </contour>
  </outline>
</glyph>
<glyph name="two" format="2">
  <advance height="2479.0" width="1273.0"/>
  <unicode hex="0032"/>
  <anchor x="893.8" y="787.6" name="cross"/>
  <outline>
    <contour>
      <point x="39.0" y="0.0" type="line"/>
      <point x="1060.2" y="0.0" type="line"/>
      <point x="1097.4" y="225.2" type="line"/>
      <point x="449.40000000000003" y="225.2" type="line"/>
      <point x="451.40000000000003" y="236.0" type="line"/>
      <point x="750.4" y="496.6" type="line" smooth="yes"/>
      <point x="1085.8" y="775.1999999999999"/>
      <point x="1189.0" y="910.1999999999999"/>
      <point x="1218.0" y="1078.2" type="curve" smooth="yes"/>
      <point x="1259.6000000000001" y="1327.4"/>
      <point x="1088.8" y="1510.0"/>
      <point x="789.4" y="1510.0" type="curve" smooth="yes"/>
      <point x="493.4" y="1510.0"/>
      <point x="250.79999999999998" y="1326.4"/>
      <point x="203.6" y="1044.2" type="curve"/>
      <point x="460.40000000000003" y="1044.2" type="line"/>
      <point x="485.79999999999995" y="1195.0"/>
      <point x="601.8000000000001" y="1291.4"/>
      <point x="749.8" y="1291.4" type="curve" smooth="yes"/>
      <point x="891.0" y="1291.4"/>
      <point x="979.8000000000001" y="1204.4"/>
      <point x="956.6" y="1064.2" type="curve" smooth="yes"/>
      <point x="935.6" y="940.4"/>
      <point x="845.0" y="851.2"/>
      <point x="672.6" y="701.8" type="curve" smooth="yes"/>
      <point x="72.0" y="195.0" type="line"/>
    </contour>
  </outline>
</glyph>
<glyph name="three" format="2">
  <advance height="2479.0" width="1334.6"/>
  <unicode hex="0033"/>
  <outline>
    <contour>
      <point x="584.0" y="-20.0" type="curve" smooth="yes"/>
      <point x="900.6" y="-20.0"/>
      <point x="1148.8000000000002" y="148.6"/>
      <point x="1190.0" y="398.6" type="curve" smooth="yes"/>
      <point x="1221.0" y="587.8"/>
      <point x="1117.6000000000001" y="734.0"/>
      <point x="923.4" y="763.2" type="curve"/>
      <point x="923.4" y="773.4000000000001" type="line"/>
      <point x="1094.2" y="808.0"/>
      <point x="1220.2" y="914.0"/>
      <point x="1247.4" y="1082.4" type="curve" smooth="yes"/>
      <point x="1284.3999999999999" y="1309.0"/>
      <point x="1121.0" y="1510.0"/>
      <point x="817.0" y="1510.0" type="curve" smooth="yes"/>
      <point x="534.8" y="1510.0"/>
      <point x="286.20000000000005" y="1336.8000000000002"/>
      <point x="241.20000000000002" y="1087.8" type="curve"/>
      <point x="499.8" y="1087.8" type="line"/>
      <point x="521.8000000000001" y="1213.0"/>
      <point x="664.0" y="1291.4"/>
      <point x="803.6" y="1291.4" type="curve" smooth="yes"/>
      <point x="942.8" y="1291.4"/>
      <point x="1009.4" y="1213.3999999999999"/>
      <point x="989.8000000000001" y="1096.8" type="curve" smooth="yes"/>
      <point x="966.8" y="958.0"/>
      <point x="839.4" y="864.8"/>
      <point x="683.6" y="864.8" type="curve" smooth="yes"/>
      <point x="559.0" y="864.8" type="line"/>
      <point x="524.0" y="657.2" type="line"/>
      <point x="661.8" y="657.2" type="line" smooth="yes"/>
      <point x="847.1999999999999" y="657.2"/>
      <point x="939.6" y="572.6"/>
      <point x="919.8" y="442.8" type="curve" smooth="yes"/>
      <point x="898.1999999999999" y="302.4"/>
      <point x="757.8" y="206.0"/>
      <point x="595.0" y="206.0" type="curve" smooth="yes"/>
      <point x="447.4" y="206.0"/>
      <point x="353.0" y="284.8"/>
      <point x="367.8" y="404.8" type="curve"/>
      <point x="98.8" y="404.8" type="line"/>
      <point x="61.6" y="152.6"/>
      <point x="263.8" y="-20.0"/>
    </contour>
  </outline>
</glyph>
<glyph name="four" format="2">
  <advance height="2479.0" width="1363.8"/>
  <unicode hex="0034"/>
  <outline>
    <contour>
      <point x="59.0" y="276.2" type="line"/>
      <point x="1217.8000000000002" y="276.2" type="line"/>
      <point x="1254.2" y="497.8" type="line"/>
      <point x="372.0" y="497.8" type="line"/>
      <point x="373.20000000000005" y="509.8" type="line"/>
      <point x="911.0" y="1184.4" type="line"/>
      <point x="1020.0" y="1184.4" type="line"/>
      <point x="1070.8" y="1489.0" type="line"/>
      <point x="892.0" y="1489.0" type="line"/>
      <point x="93.6" y="491.2" type="line"/>
    </contour>
    <contour>
      <point x="722.6" y="0.0" type="line"/>
      <point x="980.5999999999999" y="0.0" type="line"/>
      <point x="1227.6" y="1489.0" type="line"/>
      <point x="973.8" y="1489.0" type="line"/>
      <point x="799.4" y="437.4" type="line"/>
      <point x="779.4" y="342.8" type="line"/>
    </contour>
  </outline>
</glyph>
<glyph name="five" format="2">
  <advance height="2479.0" width="1295.0"/>
  <unicode hex="0035"/>
  <outline>
    <contour>
      <point x="554.0" y="-20.0" type="curve" smooth="yes"/>
      <point x="871.0" y="-20.0"/>
      <point x="1124.8" y="193.8"/>
      <point x="1172.6" y="489.2" type="curve" smooth="yes"/>
      <point x="1220.8" y="774.8"/>
      <point x="1056.0" y="983.0"/>
      <point x="786.2" y="983.0" type="curve" smooth="yes"/>
      <point x="664.6" y="983.0"/>
      <point x="549.8" y="935.2"/>
      <point x="483.40000000000003" y="869.2" type="curve"/>
      <point x="475.0" y="869.2" type="line"/>
      <point x="583.6" y="1264.2" type="line"/>
      <point x="1224.3999999999999" y="1264.2" type="line"/>
      <point x="1261.8" y="1489.0" type="line"/>
      <point x="397.0" y="1489.0" type="line"/>
      <point x="191.2" y="721.2" type="line"/>
      <point x="428.0" y="681.2" type="line"/>
      <point x="489.2" y="736.8"/>
      <point x="589.4000000000001" y="773.6"/>
      <point x="677.8" y="773.6" type="curve" smooth="yes"/>
      <point x="842.1999999999999" y="773.6"/>
      <point x="939.2" y="652.0"/>
      <point x="911.6" y="482.6" type="curve" smooth="yes"/>
      <point x="883.2" y="315.0"/>
      <point x="749.8" y="198.0"/>
      <point x="589.6" y="198.0" type="curve" smooth="yes"/>
      <point x="456.2" y="198.0"/>
      <point x="361.0" y="284.2"/>
      <point x="372.0" y="404.8" type="curve"/>
      <point x="109.79999999999998" y="404.8" type="line"/>
      <point x="77.0" y="157.8"/>
      <point x="263.59999999999997" y="-20.0"/>
    </contour>
  </outline>
</glyph>
<glyph name="six" format="2">
  <advance height="2479.0" width="1327.0"/>
  <unicode hex="0036"/>
  <outline>
    <contour>
      <point x="595.5999999999999" y="-20.0" type="curve" smooth="yes"/>
      <point x="910.0" y="-21.799999999999997"/>
      <point x="1153.0" y="190.79999999999998"/>
      <point x="1201.6" y="477.6" type="curve" smooth="yes"/>
      <point x="1250.2" y="766.8"/>
      <point x="1078.8" y="978.2"/>
      <point x="810.4" y="978.2" type="curve" smooth="yes"/>
      <point x="654.2" y="978.2"/>
      <point x="508.0" y="907.4"/>
      <point x="414.8" y="779.4000000000001" type="curve"/>
      <point x="403.40000000000003" y="763.8000000000001" type="line"/>
      <point x="459.8" y="1087.4"/>
      <point x="616.4000000000001" y="1276.8"/>
      <point x="825.4" y="1276.8" type="curve" smooth="yes"/>
      <point x="951.8" y="1276.8"/>
      <point x="1023.2" y="1205.4"/>
      <point x="1026.2" y="1089.0" type="curve"/>
      <point x="1286.6" y="1089.0" type="line"/>
      <point x="1294.8" y="1331.2"/>
      <point x="1119.8000000000002" y="1510.0"/>
      <point x="838.8" y="1510.0" type="curve" smooth="yes"/>
      <point x="487.0" y="1510.0"/>
      <point x="219.8" y="1220.2"/>
      <point x="135.6" y="718.0" type="curve" smooth="yes"/>
      <point x="42.6" y="165.0"/>
      <point x="303.2" y="-18.8"/>
    </contour>
    <contour>
      <point x="604.8" y="198.0" type="curve" smooth="yes"/>
      <point x="450.6" y="198.0"/>
      <point x="361.59999999999997" y="320.0"/>
      <point x="385.4" y="469.8" type="curve" smooth="yes"/>
      <point x="411.59999999999997" y="634.2"/>
      <point x="564.0" y="773.0"/>
      <point x="727.8000000000001" y="773.0" type="curve" smooth="yes"/>
      <point x="879.5999999999999" y="773.0"/>
      <point x="968.2" y="653.8"/>
      <point x="943.6" y="502.40000000000003" type="curve" smooth="yes"/>
      <point x="917.6" y="331.8"/>
      <point x="768.4000000000001" y="198.0"/>
    </contour>
  </outline>
</glyph>
<glyph name="seven" format="2">
  <advance height="2479.0" width="1201.8"/>
  <unicode hex="0037"/>
  <outline>
    <contour>
      <point x="94.0" y="0.0" type="line"/>
      <point x="373.8" y="0.0" type="line"/>
      <point x="1215.2" y="1259.4" type="line"/>
      <point x="1253.8000000000002" y="1489.0" type="line"/>
      <point x="239.0" y="1489.0" type="line"/>
      <point x="202.6" y="1264.2" type="line"/>
      <point x="937.8000000000001" y="1264.2" type="line"/>
      <point x="934.8000000000001" y="1254.0" type="line"/>
    </contour>
  </outline>
</glyph>
<glyph name="eight" format="2">
  <advance height="2479.0" width="1322.2"/>
  <unicode hex="0038"/>
  <outline>
    <contour>
      <point x="571.4" y="-20.0" type="curve" smooth="yes"/>
      <point x="889.8000000000001" y="-20.0"/>
      <point x="1146.0" y="153.2"/>
      <point x="1186.0" y="392.0" type="curve" smooth="yes"/>
      <point x="1218.6000000000001" y="581.8000000000001"/>
      <point x="1104.0" y="739.5999999999999"/>
      <point x="934.5999999999999" y="770.4" type="curve"/>
      <point x="934.5999999999999" y="778.8000000000001" type="line"/>
      <point x="1090.1999999999998" y="811.4"/>
      <point x="1221.2" y="937.8000000000001"/>
      <point x="1248.8" y="1103.8000000000002" type="curve" smooth="yes"/>
      <point x="1287.6000000000001" y="1335.8"/>
      <point x="1100.6000000000001" y="1510.0"/>
      <point x="810.6" y="1510.0" type="curve" smooth="yes"/>
      <point x="525.4" y="1510.0"/>
      <point x="294.4" y="1346.2"/>
      <point x="253.4" y="1117.6000000000001" type="curve" smooth="yes"/>
      <point x="224.39999999999998" y="953.8000000000001"/>
      <point x="302.2" y="812.5999999999999"/>
      <point x="449.2" y="778.8000000000001" type="curve"/>
      <point x="449.2" y="770.4" type="line"/>
      <point x="270.8" y="741.4"/>
      <point x="111.0" y="589.4"/>
      <point x="80.2" y="405.8" type="curve" smooth="yes"/>
      <point x="39.199999999999996" y="163.2"/>
      <point x="243.8" y="-20.0"/>
    </contour>
    <contour>
      <point x="593.8" y="187.6" type="curve" smooth="yes"/>
      <point x="430.4" y="187.6"/>
      <point x="338.4" y="275.6"/>
      <point x="360.0" y="411.4" type="curve" smooth="yes"/>
      <point x="383.59999999999997" y="557.0"/>
      <point x="520.0" y="662.0"/>
      <point x="683.0" y="662.0" type="curve" smooth="yes"/>
      <point x="839.4" y="662.0"/>
      <point x="937.4" y="566.4"/>
      <point x="914.6" y="425.2" type="curve" smooth="yes"/>
      <point x="892.1999999999999" y="284.79999999999995"/>
      <point x="765.4000000000001" y="187.6"/>
    </contour>
    <contour>
      <point x="705.0" y="866.6" type="curve" smooth="yes"/>
      <point x="571.2" y="866.6"/>
      <point x="488.20000000000005" y="949.2"/>
      <point x="509.59999999999997" y="1078.2" type="curve" smooth="yes"/>
      <point x="531.6" y="1209.6000000000001"/>
      <point x="644.4" y="1299.4"/>
      <point x="790.4" y="1299.4" type="curve" smooth="yes"/>
      <point x="927.5999999999999" y="1299.4"/>
      <point x="1007.2" y="1220.2"/>
      <point x="984.6" y="1092.0" type="curve" smooth="yes"/>
      <point x="961.4" y="960.4"/>
      <point x="847.8" y="866.6"/>
    </contour>
  </outline>
</glyph>
<glyph name="nine" format="2">
  <advance height="2479.0" width="1327.0"/>
  <unicode hex="0039"/>
  <outline>
    <contour>
      <point x="795.4000000000001" y="1510.0" type="curve" smooth="yes"/>
      <point x="480.79999999999995" y="1511.8"/>
      <point x="238.4" y="1300.6000000000001"/>
      <point x="189.39999999999998" y="1014.8000000000001" type="curve" smooth="yes"/>
      <point x="141.2" y="726.4"/>
      <point x="312.59999999999997" y="515.6"/>
      <point x="580.6" y="515.6" type="curve" smooth="yes"/>
      <point x="737.1999999999999" y="515.6"/>
      <point x="883.4" y="586.8"/>
      <point x="976.2" y="714.4" type="curve"/>
      <point x="988.2" y="729.4" type="line"/>
      <point x="932.1999999999999" y="402.0"/>
      <point x="774.4000000000001" y="213.2"/>
      <point x="566.2" y="213.2" type="curve" smooth="yes"/>
      <point x="438.6" y="213.2"/>
      <point x="368.0" y="283.6"/>
      <point x="364.8" y="404.2" type="curve"/>
      <point x="104.39999999999999" y="404.2" type="line"/>
      <point x="96.6" y="158.4"/>
      <point x="270.59999999999997" y="-20.0"/>
      <point x="552.2" y="-20.0" type="curve" smooth="yes"/>
      <point x="904.4" y="-20.0"/>
      <point x="1171.2" y="269.8"/>
      <point x="1255.8000000000002" y="775.5999999999999" type="curve" smooth="yes"/>
      <point x="1348.3999999999999" y="1326.8"/>
      <point x="1088.2" y="1508.2"/>
    </contour>
    <contour>
      <point x="786.1999999999999" y="1291.6" type="curve" smooth="yes"/>
      <point x="940.8" y="1291.6"/>
      <point x="1029.4" y="1171.0"/>
      <point x="1005.6" y="1022.2" type="curve" smooth="yes"/>
      <point x="980.1999999999999" y="860.0"/>
      <point x="827.4" y="720.8"/>
      <point x="663.1999999999999" y="720.8" type="curve" smooth="yes"/>
      <point x="511.40000000000003" y="720.8"/>
      <point x="424.0" y="839.0"/>
      <point x="447.40000000000003" y="990.6" type="curve" smooth="yes"/>
      <point x="473.4" y="1159.6"/>
      <point x="623.0" y="1291.6"/>
    </contour>
  </outline>
</glyph>
<glyph name="less" format="2">
  <advance height="2479.0" width="1378.0"/>
  <unicode hex="003C"/>
  <outline>
    <contour>
      <point x="178.60000000000002" y="486.8" type="line"/>
      <point x="1097.4" y="27.0" type="line"/>
      <point x="1141.0" y="285.4" type="line"/>
      <point x="482.4" y="588.2" type="line"/>
      <point x="489.6" y="574.2" type="line"/>
      <point x="495.0" y="607.6" type="line"/>
      <point x="485.4" y="594.2" type="line"/>
      <point x="1242.4" y="897.4" type="line"/>
      <point x="1284.6000000000001" y="1155.4" type="line"/>
      <point x="214.8" y="696.0" type="line"/>
    </contour>
  </outline>
</glyph>
<glyph name="equal" format="2">
  <advance height="2479.0" width="1378.0"/>
  <unicode hex="003D"/>
  <outline>
    <contour>
      <point x="229.8" y="711.8" type="line"/>
      <point x="1197.8" y="711.8" type="line"/>
      <point x="1235.8" y="936.4" type="line"/>
      <point x="267.4" y="936.4" type="line"/>
    </contour>
    <contour>
      <point x="153.6" y="246.0" type="line"/>
      <point x="1121.6" y="246.0" type="line"/>
      <point x="1158.0" y="470.6" type="line"/>
      <point x="190.0" y="470.6" type="line"/>
    </contour>
  </outline>
</glyph>
<glyph name="question" format="2">
  <advance height="2479.0" width="1114.6"/>
  <unicode hex="003F"/>
  <outline>
    <contour>
      <point x="367.2" y="437.4" type="line"/>
      <point x="608.8000000000001" y="437.4" type="line"/>
      <point x="613.0" y="461.6" type="line" smooth="yes"/>
      <point x="640.2" y="613.4000000000001"/>
      <point x="702.8000000000001" y="683.4"/>
      <point x="833.1999999999999" y="755.2" type="curve" smooth="yes"/>
      <point x="979.6" y="833.2"/>
      <point x="1082.0" y="943.0"/>
      <point x="1109.2" y="1110.2" type="curve" smooth="yes"/>
      <point x="1150.0" y="1355.6"/>
      <point x="982.8" y="1510.0"/>
      <point x="705.6" y="1510.0" type="curve" smooth="yes"/>
      <point x="450.0" y="1510.0"/>
      <point x="222.20000000000002" y="1368.8"/>
      <point x="169.0" y="1092.6" type="curve"/>
      <point x="427.59999999999997" y="1092.6" type="line"/>
      <point x="455.2" y="1229.4"/>
      <point x="566.6" y="1295.0"/>
      <point x="669.8000000000001" y="1295.0" type="curve" smooth="yes"/>
      <point x="780.6" y="1295.0"/>
      <point x="856.5999999999999" y="1220.4"/>
      <point x="837.8" y="1106.0" type="curve" smooth="yes"/>
      <point x="822.4" y="1003.4"/>
      <point x="741.2" y="934.8000000000001"/>
      <point x="644.6" y="879.2" type="curve" smooth="yes"/>
      <point x="505.2" y="799.8"/>
      <point x="416.2" y="720.4"/>
      <point x="371.4" y="461.6" type="curve" smooth="yes"/>
    </contour>
    <component base="period" xOffset="215.20000000000002"/>
  </outline>
</glyph>
<glyph name="at" format="2">
  <advance height="2479.0" width="2046.2"/>
  <unicode hex="0040"/>
  <outline>
    <contour>
      <point x="909.2" y="-417.4" type="curve" smooth="yes"/>
      <point x="1097.0" y="-417.4"/>
      <point x="1301.8" y="-369.8"/>
      <point x="1402.3999999999999" y="-322.6" type="curve"/>
      <point x="1370.8" y="-137.8" type="line"/>
      <point x="1296.6" y="-164.6"/>
      <point x="1122.2" y="-212.2"/>
      <point x="957.0" y="-212.2" type="curve" smooth="yes"/>
      <point x="475.59999999999997" y="-212.2"/>
      <point x="258.4" y="48.0"/>
      <point x="335.79999999999995" y="519.8" type="curve" smooth="yes"/>
      <point x="408.0" y="959.0"/>
      <point x="707.2" y="1264.6"/>
      <point x="1181.6000000000001" y="1264.6" type="curve" smooth="yes"/>
      <point x="1569.4" y="1264.6"/>
      <point x="1823.4" y="1045.2"/>
      <point x="1753.4" y="632.0" type="curve" smooth="yes"/>
      <point x="1704.8" y="331.6"/>
      <point x="1636.0" y="196.0"/>
      <point x="1520.0" y="196.0" type="curve" smooth="yes"/>
      <point x="1457.2" y="196.0"/>
      <point x="1429.3999999999999" y="245.8"/>
      <point x="1439.4" y="317.6" type="curve" smooth="yes"/>
      <point x="1554.8000000000002" y="1009.8" type="line"/>
      <point x="1351.4" y="1009.8" type="line"/>
      <point x="1338.2" y="928.4" type="line"/>
      <point x="1328.0" y="928.4" type="line"/>
      <point x="1315.4" y="992.4"/>
      <point x="1185.3999999999999" y="1051.0"/>
      <point x="1023.1999999999999" y="1029.8" type="curve" smooth="yes"/>
      <point x="816.6" y="1002.6"/>
      <point x="594.8" y="836.6"/>
      <point x="543.0" y="524.6" type="curve" smooth="yes"/>
      <point x="489.59999999999997" y="204.2"/>
      <point x="633.6" y="16.599999999999998"/>
      <point x="868.0" y="5.199999999999996" type="curve" smooth="yes"/>
      <point x="1032.0" y="-2.8000000000000043"/>
      <point x="1173.6000000000001" y="70.19999999999999"/>
      <point x="1221.0" y="157.2" type="curve"/>
      <point x="1229.4" y="157.2" type="line"/>
      <point x="1228.0" y="48.599999999999994"/>
      <point x="1315.6" y="-11.800000000000004"/>
      <point x="1463.0" y="-3.3999999999999986" type="curve" smooth="yes"/>
      <point x="1778.0" y="8.2"/>
      <point x="1913.6000000000001" y="287.4"/>
      <point x="1967.8" y="619.8" type="curve" smooth="yes"/>
      <point x="2046.6000000000001" y="1097.0"/>
      <point x="1787.2" y="1466.8"/>
      <point x="1220.3999999999999" y="1466.8" type="curve" smooth="yes"/>
      <point x="616.6" y="1466.8"/>
      <point x="204.0" y="1095.2"/>
      <point x="108.2" y="516.2" type="curve" smooth="yes"/>
      <point x="11.399999999999997" y="-76.2"/>
      <point x="299.40000000000003" y="-417.4"/>
    </contour>
    <contour>
      <point x="964.0" y="214.0" type="curve" smooth="yes"/>
      <point x="774.5999999999999" y="214.0"/>
      <point x="735.4000000000001" y="368.4"/>
      <point x="761.5999999999999" y="533.6" type="curve" smooth="yes"/>
      <point x="790.2" y="700.2"/>
      <point x="902.0" y="820.8"/>
      <point x="1065.2" y="820.8" type="curve" smooth="yes"/>
      <point x="1246.6" y="820.8"/>
      <point x="1298.4" y="732.4"/>
      <point x="1266.2" y="534.8" type="curve" smooth="yes"/>
      <point x="1232.6000000000001" y="322.6"/>
      <point x="1148.2" y="214.0"/>
    </contour>
  </outline>
</glyph>
<glyph name="A" format="2">
  <advance height="2479.0" width="1482.6"/>
  <unicode hex="0041"/>
  <anchor x="647.8000000000001" y="0.0" name="bottom"/>
  <anchor x="1339.0" y="0.0" name="ogonek"/>
  <anchor x="635.0" y="1489.0" name="tonos"/>
  <anchor x="927.8000000000001" y="1676.0" name="top"/>
  <outline>
    <contour>
      <point x="244.8" y="0.0" type="line"/>
      <point x="840.1999999999999" y="1184.0" type="line"/>
      <point x="852.1999999999999" y="1184.0" type="line"/>
      <point x="1051.2" y="0.0" type="line"/>
      <point x="1339.0" y="0.0" type="line"/>
      <point x="1062.0" y="1489.0" type="line"/>
      <point x="728.6" y="1489.0" type="line"/>
      <point x="-43.4" y="0.0" type="line"/>
    </contour>
    <contour>
      <point x="351.2" y="584.4" type="line"/>
      <point x="314.8" y="367.2" type="line"/>
      <point x="1100.0" y="367.2" type="line"/>
      <point x="1136.8" y="584.4" type="line"/>
    </contour>
  </outline>
</glyph>
<glyph name="B" format="2">
  <advance height="2479.0" width="1346.0"/>
  <unicode hex="0042"/>
  <anchor x="559.8" y="0.0" name="bottom"/>
  <anchor x="834.6" y="1676.0" name="top"/>
  <outline>
    <contour>
      <point x="53.400000000000006" y="0.0" type="line"/>
      <point x="656.6" y="0.0" type="line" smooth="yes"/>
      <point x="997.0" y="0.0"/>
      <point x="1194.0" y="174.0"/>
      <point x="1232.8" y="406.4" type="curve" smooth="yes"/>
      <point x="1269.6" y="631.0"/>
      <point x="1131.4" y="763.8"/>
      <point x="974.2" y="771.6" type="curve"/>
      <point x="977.2" y="786.2" type="line"/>
      <point x="1127.0" y="820.6"/>
      <point x="1258.6" y="922.8"/>
      <point x="1289.4" y="1103.2" type="curve" smooth="yes"/>
      <point x="1327.0" y="1324.8"/>
      <point x="1194.6" y="1489.0"/>
      <point x="871.4" y="1489.0" type="curve" smooth="yes"/>
      <point x="301.0" y="1489.0" type="line"/>
    </contour>
    <contour>
      <point x="361.6" y="225.2" type="line"/>
      <point x="433.40000000000003" y="661.6" type="line"/>
      <point x="731.6" y="661.6" type="line" smooth="yes"/>
      <point x="898.6" y="661.6"/>
      <point x="983.0" y="559.8"/>
      <point x="962.4" y="427.2" type="curve" smooth="yes"/>
      <point x="942.6" y="309.0"/>
      <point x="846.1999999999999" y="225.2"/>
      <point x="652.0" y="225.2" type="curve" smooth="yes"/>
    </contour>
    <contour>
      <point x="466.6" y="855.8" type="line"/>
      <point x="534.2" y="1266.2" type="line"/>
      <point x="807.0" y="1266.2" type="line" smooth="yes"/>
      <point x="965.4000000000001" y="1266.2"/>
      <point x="1034.2" y="1184.2"/>
      <point x="1013.8" y="1068.4" type="curve" smooth="yes"/>
      <point x="994.4" y="938.1999999999999"/>
      <point x="873.4" y="855.8"/>
      <point x="733.6" y="855.8" type="curve" smooth="yes"/>
    </contour>
  </outline>
</glyph>
<glyph name="C" format="2">
  <advance height="2479.0" width="1541.4"/>
  <unicode hex="0043"/>
  <anchor x="699.4" y="-4.8" name="cedilla"/>
  <anchor x="979.0" y="1676.0" name="top"/>
  <outline>
    <contour>
      <point x="1491.0" y="986.8" type="line"/>
      <point x="1499.0" y="1317.4"/>
      <point x="1271.4" y="1510.0"/>
      <point x="934.0" y="1510.0" type="curve" smooth="yes"/>
      <point x="552.4000000000001" y="1510.0"/>
      <point x="222.6" y="1236.0"/>
      <point x="142.79999999999998" y="760.8" type="curve"/>
      <point x="63.2" y="272.2"/>
      <point x="310.4" y="-20.0"/>
      <point x="710.6" y="-20.0" type="curve" smooth="yes"/>
      <point x="1057.8000000000002" y="-20.0"/>
      <point x="1322.2" y="210.0"/>
      <point x="1410.8" y="494.2" type="curve"/>
      <point x="1140.0" y="494.2" type="line"/>
      <point x="1076.2" y="320.6"/>
      <point x="910.6" y="221.60000000000002"/>
      <point x="723.4" y="221.60000000000002" type="curve" smooth="yes"/>
      <point x="490.79999999999995" y="221.60000000000002"/>
      <point x="354.0" y="395.2"/>
      <point x="408.8" y="728.2" type="curve"/>
      <point x="465.6" y="1072.3999999999999"/>
      <point x="676.6" y="1267.8"/>
      <point x="927.4" y="1267.8" type="curve" smooth="yes"/>
      <point x="1101.8" y="1267.8"/>
      <point x="1221.6" y="1165.8"/>
      <point x="1222.6" y="986.8" type="curve"/>
    </contour>
  </outline>
</glyph>
<glyph name="D" format="2">
  <advance height="2479.0" width="1483.6"/>
  <unicode hex="0044"/>
  <anchor x="494.4" y="0.0" name="bottom"/>
  <anchor x="338.0" y="776.0" name="cross"/>
  <anchor x="905.4" y="1676.0" name="top"/>
  <outline>
    <contour>
      <point x="565.8000000000001" y="0.0" type="line" smooth="yes"/>
      <point x="1019.8" y="0.0"/>
      <point x="1326.2" y="272.8"/>
      <point x="1402.2" y="731.1999999999999" type="curve" smooth="yes"/>
      <point x="1480.6000000000001" y="1202.0"/>
      <point x="1252.3999999999999" y="1489.0"/>
      <point x="809.0" y="1489.0" type="curve" smooth="yes"/>
      <point x="420.8" y="1489.0" type="line"/>
      <point x="381.4" y="1255.8" type="line"/>
      <point x="769.0" y="1255.8" type="line" smooth="yes"/>
      <point x="1071.2" y="1255.8"/>
      <point x="1196.0" y="1095.6000000000001"/>
      <point x="1139.8" y="761.4" type="curve" smooth="yes"/>
      <point x="1082.0" y="412.0"/>
      <point x="889.6" y="233.2"/>
      <point x="579.8" y="233.2" type="curve" smooth="yes"/>
      <point x="219.8" y="233.2" type="line"/>
      <point x="181.0" y="0.0" type="line"/>
    </contour>
    <contour>
      <point x="571.0" y="1489.0" type="line"/>
      <point x="301.0" y="1489.0" type="line"/>
      <point x="53.400000000000006" y="0.0" type="line"/>
      <point x="323.6" y="0.0" type="line"/>
    </contour>
  </outline>
</glyph>
<glyph name="E" format="2">
  <advance height="2479.0" width="1244.6"/>
  <unicode hex="0045"/>
  <anchor x="530.2" y="0.0" name="bottom"/>
  <anchor x="533.2" y="0.0" name="cedilla"/>
  <anchor x="1028.0" y="0.0" name="ogonek"/>
  <anchor x="256.4" y="1489.0" name="tonos"/>
  <anchor x="818.2" y="1676.0" name="top"/>
  <outline>
    <contour>
      <point x="53.400000000000006" y="0.0" type="line"/>
      <point x="1028.0" y="0.0" type="line"/>
      <point x="1066.0" y="226.4" type="line"/>
      <point x="361.6" y="226.4" type="line"/>
      <point x="428.0" y="632.4" type="line"/>
      <point x="1076.8000000000002" y="632.4" type="line"/>
      <point x="1114.4" y="858.8" type="line"/>
      <point x="466.0" y="858.8" type="line"/>
      <point x="533.0" y="1263.0" type="line"/>
      <point x="1231.4" y="1263.0" type="line"/>
      <point x="1269.4" y="1489.0" type="line"/>
      <point x="301.0" y="1489.0" type="line"/>
    </contour>
  </outline>
</glyph>
<glyph name="F" format="2">
  <advance height="2479.0" width="1199.0"/>
  <unicode hex="0046"/>
  <anchor x="502.0" y="12.0" name="bottom"/>
  <anchor x="239.2" y="309.4" name="cross"/>
  <anchor x="822.8" y="1676.0" name="top"/>
  <outline>
    <contour>
      <point x="53.400000000000006" y="0.0" type="line"/>
      <point x="323.6" y="0.0" type="line"/>
      <point x="428.0" y="632.4" type="line"/>
      <point x="1047.2" y="632.4" type="line"/>
      <point x="1084.8" y="858.8" type="line"/>
      <point x="466.0" y="858.8" type="line"/>
      <point x="533.0" y="1263.0" type="line"/>
      <point x="1217.4" y="1263.0" type="line"/>
      <point x="1255.6" y="1489.0" type="line"/>
      <point x="301.0" y="1489.0" type="line"/>
    </contour>
  </outline>
</glyph>
<glyph name="G" format="2">
  <advance height="2479.0" width="1591.6"/>
  <unicode hex="0047"/>
  <anchor x="690.4" y="2.4000000000000004" name="bottom"/>
  <anchor x="971.1999999999999" y="1676.0" name="top"/>
  <outline>
    <contour>
      <point x="1218.0" y="1013.6" type="curve"/>
      <point x="1492.8" y="1013.6" type="line"/>
      <point x="1496.8" y="1306.0"/>
      <point x="1277.0" y="1510.0"/>
      <point x="948.2" y="1510.0" type="curve" smooth="yes"/>
      <point x="558.8000000000001" y="1510.0"/>
      <point x="218.0" y="1222.8"/>
      <point x="139.6" y="743.8" type="curve" smooth="yes"/>
      <point x="61.400000000000006" y="272.2"/>
      <point x="291.6" y="-20.0"/>
      <point x="702.2" y="-20.0" type="curve" smooth="yes"/>
      <point x="1071.6" y="-20.0"/>
      <point x="1375.2" y="216.20000000000002"/>
      <point x="1437.2" y="601.0" type="curve" smooth="yes"/>
      <point x="1467.8000000000002" y="779.8" type="line"/>
      <point x="863.6" y="779.8" type="line"/>
      <point x="827.4000000000001" y="568.6" type="line"/>
      <point x="1232.6" y="568.6" type="line"/>
      <point x="1173.4" y="578.0" type="line"/>
      <point x="1138.6000000000001" y="360.6"/>
      <point x="960.4" y="221.60000000000002"/>
      <point x="732.8000000000001" y="221.60000000000002" type="curve" smooth="yes"/>
      <point x="483.0" y="221.60000000000002"/>
      <point x="355.8" y="409.2"/>
      <point x="411.8" y="746.2" type="curve" smooth="yes"/>
      <point x="467.0" y="1081.6"/>
      <point x="686.0" y="1267.8"/>
      <point x="927.0" y="1267.8" type="curve" smooth="yes"/>
      <point x="1106.3999999999999" y="1267.8"/>
      <point x="1197.3999999999999" y="1171.4"/>
    </contour>
  </outline>
</glyph>
<glyph name="H" format="2">
  <advance height="2479.0" width="1524.0"/>
  <unicode hex="0048"/>
  <anchor x="667.8" y="0.0" name="bottom"/>
  <anchor x="196.8" y="0.0" name="cedilla"/>
  <anchor x="1418.6" y="103.6" name="cyrtic"/>
  <anchor x="1282.2" y="0.0" name="right"/>
  <anchor x="262.4" y="1489.0" name="tonos"/>
  <anchor x="952.2" y="1677.8" name="top"/>
  <outline>
    <contour>
      <point x="53.400000000000006" y="0.0" type="line"/>
      <point x="323.6" y="0.0" type="line"/>
      <point x="428.0" y="632.4" type="line"/>
      <point x="1118.8000000000002" y="632.4" type="line"/>
      <point x="1014.4000000000001" y="0.0" type="line"/>
      <point x="1284.0" y="0.0" type="line"/>
      <point x="1531.0" y="1489.0" type="line"/>
      <point x="1261.4" y="1489.0" type="line"/>
      <point x="1157.0" y="858.8" type="line"/>
      <point x="466.0" y="858.8" type="line"/>
      <point x="571.0" y="1489.0" type="line"/>
      <point x="301.0" y="1489.0" type="line"/>
    </contour>
  </outline>
</glyph>
<glyph name="J" format="2">
  <advance height="2479.0" width="1149.2"/>
  <unicode hex="004A"/>
  <anchor x="921.6" y="884.0" name="cross"/>
  <anchor x="1053.8" y="1676.0" name="top"/>
  <outline>
    <contour>
      <point x="888.6" y="1489.0" type="line"/>
      <point x="716.0" y="445.8" type="line"/>
      <point x="688.8" y="288.40000000000003"/>
      <point x="597.2" y="201.6"/>
      <point x="465.8" y="201.6" type="curve" smooth="yes"/>
      <point x="346.6" y="201.6"/>
      <point x="281.4" y="271.0"/>
      <point x="297.79999999999995" y="395.4" type="curve"/>
      <point x="32.99999999999999" y="395.4" type="line"/>
      <point x="-11.199999999999998" y="121.39999999999999"/>
      <point x="168.4" y="-20.0"/>
      <point x="432.40000000000003" y="-20.0" type="curve" smooth="yes"/>
      <point x="722.4" y="-20.0"/>
      <point x="934.1999999999999" y="151.2"/>
      <point x="982.4" y="438.59999999999997" type="curve"/>
      <point x="1156.2" y="1489.0" type="line"/>
    </contour>
  </outline>
</glyph>
<glyph name="K" format="2">
  <advance height="2479.0" width="1386.2"/>
  <unicode hex="004B"/>
  <anchor x="610.0" y="1.2000000000000002" name="bottom"/>
  <anchor x="877.4" y="1676.0" name="top"/>
  <outline>
    <contour>
      <point x="53.400000000000006" y="0.0" type="line"/>
      <point x="323.6" y="0.0" type="line"/>
      <point x="397.8" y="442.2" type="line"/>
      <point x="596.8" y="638.8" type="line"/>
      <point x="933.5999999999999" y="0.0" type="line"/>
      <point x="1257.6" y="0.0" type="line"/>
      <point x="813.8" y="820.6" type="line"/>
      <point x="1499.8" y="1489.0" type="line"/>
      <point x="1169.8" y="1489.0" type="line"/>
      <point x="476.4" y="805.4" type="line"/>
      <point x="458.20000000000005" y="805.4" type="line"/>
      <point x="571.0" y="1489.0" type="line"/>
      <point x="301.0" y="1489.0" type="line"/>
    </contour>
  </outline>
</glyph>
<glyph name="L" format="2">
  <advance height="2479.0" width="1158.8"/>
  <unicode hex="004C"/>
  <anchor x="503.19999999999993" y="0.0" name="bottom"/>
  <anchor x="317.0" y="776.0" name="cross"/>
  <anchor x="648.6" y="825.6" name="dot"/>
  <anchor x="803.4" y="1489.0" name="raccent"/>
  <anchor x="468.0" y="1676.0" name="top"/>
  <outline>
    <contour>
      <point x="53.400000000000006" y="0.0" type="line"/>
      <point x="979.6" y="0.0" type="line"/>
      <point x="1017.6" y="226.4" type="line"/>
      <point x="361.6" y="226.4" type="line"/>
      <point x="571.0" y="1489.0" type="line"/>
      <point x="301.0" y="1489.0" type="line"/>
    </contour>
  </outline>
</glyph>
<glyph name="M" format="2">
  <advance height="2479.0" width="1856.8000000000002"/>
  <unicode hex="004D"/>
  <anchor x="834.6" y="0.0" name="bottom"/>
  <anchor x="1603.8000000000002" y="0.0" name="right"/>
  <anchor x="1114.2" y="1676.0" name="top"/>
  <outline>
    <contour>
      <point x="301.0" y="1489.0" type="line"/>
      <point x="53.400000000000006" y="0.0" type="line"/>
      <point x="313.2" y="0.0" type="line"/>
      <point x="484.59999999999997" y="1026.0" type="line"/>
      <point x="498.40000000000003" y="1026.0" type="line"/>
      <point x="738.8" y="0.0" type="line"/>
      <point x="931.8000000000001" y="0.0" type="line"/>
      <point x="1513.8" y="1023.6" type="line"/>
      <point x="1527.2" y="1023.6" type="line"/>
      <point x="1357.0" y="0.0" type="line"/>
      <point x="1616.4" y="0.0" type="line"/>
      <point x="1863.8000000000002" y="1489.0" type="line"/>
      <point x="1533.1999999999998" y="1489.0" type="line"/>
      <point x="912.8000000000001" y="410.20000000000005" type="line"/>
      <point x="895.2" y="410.20000000000005" type="line"/>
      <point x="631.2" y="1489.0" type="line"/>
    </contour>
  </outline>
</glyph>
<glyph name="N" format="2">
  <advance height="2479.0" width="1518.1999999999998"/>
  <unicode hex="004E"/>
  <anchor x="666.4" y="0.0" name="bottom"/>
  <anchor x="1303.4" y="0.0" name="right"/>
  <anchor x="945.4" y="1676.0" name="top"/>
  <outline>
    <contour>
      <point x="1525.1999999999998" y="1489.0" type="line"/>
      <point x="1256.8000000000002" y="1489.0" type="line"/>
      <point x="1088.6000000000001" y="474.20000000000005" type="line"/>
      <point x="1075.4" y="474.20000000000005" type="line"/>
      <point x="542.6" y="1489.0" type="line"/>
      <point x="301.0" y="1489.0" type="line"/>
      <point x="53.400000000000006" y="0.0" type="line"/>
      <point x="323.6" y="0.0" type="line"/>
      <point x="493.0" y="1014.6" type="line"/>
      <point x="505.0" y="1014.6" type="line"/>
      <point x="1038.0" y="0.0" type="line"/>
      <point x="1277.6" y="0.0" type="line"/>
    </contour>
  </outline>
</glyph>
<glyph name="O" format="2">
  <advance height="2479.0" width="1587.0"/>
  <unicode hex="004F"/>
  <anchor x="707.2" y="3.5999999999999996" name="bottom"/>
  <anchor x="877.0" y="2.4000000000000004" name="ogonek"/>
  <anchor x="327.8" y="1489.0" name="tonos"/>
  <anchor x="978.2" y="1676.0" name="top"/>
  <outline>
    <contour>
      <point x="1505.6" y="727.4" type="curve"/>
      <point x="1586.6" y="1217.2"/>
      <point x="1334.0" y="1510.0"/>
      <point x="937.2" y="1510.0" type="curve" smooth="yes"/>
      <point x="552.4000000000001" y="1510.0"/>
      <point x="221.39999999999998" y="1233.6000000000001"/>
      <point x="142.39999999999998" y="759.6" type="curve"/>
      <point x="62.0" y="271.0"/>
      <point x="314.0" y="-20.0"/>
      <point x="713.8" y="-20.0" type="curve" smooth="yes"/>
      <point x="1096.6000000000001" y="-20.0"/>
      <point x="1426.3999999999999" y="254.00000000000003"/>
    </contour>
    <contour>
      <point x="1240.2" y="759.6" type="curve"/>
      <point x="1183.0" y="414.0"/>
      <point x="973.8" y="221.60000000000002"/>
      <point x="723.0" y="221.60000000000002" type="curve" smooth="yes"/>
      <point x="489.6" y="221.60000000000002"/>
      <point x="351.6" y="395.20000000000005"/>
      <point x="408.40000000000003" y="727.4" type="curve"/>
      <point x="464.40000000000003" y="1073.6"/>
      <point x="674.2" y="1267.8"/>
      <point x="926.2" y="1267.8" type="curve" smooth="yes"/>
      <point x="1160.8" y="1267.8"/>
      <point x="1295.0" y="1090.6"/>
    </contour>
  </outline>
</glyph>
<glyph name="P" format="2">
  <advance height="2479.0" width="1315.8"/>
  <unicode hex="0050"/>
  <anchor x="272.0" y="1489.0" name="tonos"/>
  <anchor x="838.6" y="1676.0" name="top"/>
  <outline>
    <contour>
      <point x="53.400000000000006" y="0.0" type="line"/>
      <point x="323.6" y="0.0" type="line"/>
      <point x="534.2" y="1264.2" type="line"/>
      <point x="781.6" y="1264.2" type="line" smooth="yes"/>
      <point x="983.0" y="1264.2"/>
      <point x="1053.0" y="1155.8"/>
      <point x="1027.6000000000001" y="996.0" type="curve" smooth="yes"/>
      <point x="1001.8000000000001" y="838.5999999999999"/>
      <point x="893.8" y="724.8"/>
      <point x="692.4" y="724.8" type="curve" smooth="yes"/>
      <point x="358.20000000000005" y="724.8" type="line"/>
      <point x="321.8" y="503.2" type="line"/>
      <point x="692.0" y="503.2" type="line" smooth="yes"/>
      <point x="1036.8000000000002" y="503.2"/>
      <point x="1255.6" y="709.5999999999999"/>
      <point x="1302.6" y="996.0" type="curve" smooth="yes"/>
      <point x="1349.8" y="1281.8"/>
      <point x="1202.2" y="1489.0"/>
      <point x="860.0" y="1489.0" type="curve" smooth="yes"/>
      <point x="301.0" y="1489.0" type="line"/>
    </contour>
  </outline>
</glyph>
<glyph name="Q" format="2">
  <advance height="2479.0" width="1604.8"/>
  <unicode hex="0051"/>
  <anchor x="707.2" y="3.5999999999999996" name="bottom"/>
  <anchor x="877.0" y="2.4000000000000004" name="ogonek"/>
  <anchor x="327.8" y="1489.0" name="tonos"/>
  <anchor x="978.2" y="1676.0" name="top"/>
  <outline>
    <contour>
      <point x="684.6" y="500.2" type="line"/>
      <point x="902.8" y="187.6" type="line"/>
      <point x="964.5999999999999" y="85.8" type="line"/>
      <point x="1119.6000000000001" y="-128.4" type="line"/>
      <point x="1381.2" y="-128.4" type="line"/>
      <point x="1153.0" y="190.2" type="line"/>
      <point x="1064.6" y="312.2" type="line"/>
      <point x="929.0" y="500.2" type="line"/>
    </contour>
    <component base="O"/>
  </outline>
</glyph>
<glyph name="R" format="2">
  <advance height="2479.0" width="1340.6000000000001"/>
  <unicode hex="0052"/>
  <anchor x="589.4" y="0.0" name="bottom"/>
  <anchor x="843.6" y="1676.0" name="top"/>
  <outline>
    <contour>
      <point x="53.400000000000006" y="0.0" type="line"/>
      <point x="323.6" y="0.0" type="line"/>
      <point x="534.2" y="1264.2" type="line"/>
      <point x="781.6" y="1264.2" type="line" smooth="yes"/>
      <point x="981.8" y="1264.2"/>
      <point x="1056.0" y="1172.1999999999998"/>
      <point x="1030.6000000000001" y="1013.0" type="curve" smooth="yes"/>
      <point x="1004.8000000000001" y="855.0"/>
      <point x="901.0" y="769.4"/>
      <point x="701.4" y="769.4" type="curve" smooth="yes"/>
      <point x="339.0" y="769.4" type="line"/>
      <point x="300.79999999999995" y="546.0" type="line"/>
      <point x="698.5999999999999" y="546.0" type="line" smooth="yes"/>
      <point x="1042.8000000000002" y="546.0"/>
      <point x="1258.6" y="727.8000000000001"/>
      <point x="1305.2" y="1013.0" type="curve" smooth="yes"/>
      <point x="1352.8" y="1298.1999999999998"/>
      <point x="1202.2" y="1489.0"/>
      <point x="860.0" y="1489.0" type="curve" smooth="yes"/>
      <point x="301.0" y="1489.0" type="line"/>
    </contour>
    <contour>
      <point x="935.0" y="675.0" type="line"/>
      <point x="640.6" y="675.0" type="line"/>
      <point x="890.6" y="0.0" type="line"/>
      <point x="1192.2" y="0.0" type="line"/>
    </contour>
  </outline>
</glyph>
<glyph name="S" format="2">
  <advance height="2479.0" width="1329.2"/>
  <unicode hex="0053"/>
  <anchor x="573.8000000000001" y="-15.6" name="bottom"/>
  <anchor x="575.5999999999999" y="0.0" name="cedilla"/>
  <anchor x="850.8" y="1676.0" name="top"/>
  <outline>
    <contour>
      <point x="1041.0" y="1072.6" type="curve"/>
      <point x="1300.3999999999999" y="1072.6" type="line"/>
      <point x="1336.0" y="1331.8"/>
      <point x="1153.0" y="1510.0"/>
      <point x="835.8" y="1510.0" type="curve" smooth="yes"/>
      <point x="522.8000000000001" y="1510.0"/>
      <point x="261.2" y="1334.8"/>
      <point x="216.4" y="1070.8" type="curve" smooth="yes"/>
      <point x="182.0" y="857.0"/>
      <point x="312.6" y="734.4"/>
      <point x="547.0" y="671.0" type="curve" smooth="yes"/>
      <point x="708.6" y="627.0" type="line" smooth="yes"/>
      <point x="863.2" y="586.5999999999999"/>
      <point x="962.5999999999999" y="536.0"/>
      <point x="942.6" y="419.8" type="curve" smooth="yes"/>
      <point x="922.1999999999999" y="293.2"/>
      <point x="786.8" y="207.8"/>
      <point x="611.2" y="207.8" type="curve" smooth="yes"/>
      <point x="442.4" y="207.8"/>
      <point x="323.0" y="283.8"/>
      <point x="338.20000000000005" y="440.0" type="curve"/>
      <point x="73.0" y="440.0" type="line"/>
      <point x="34.800000000000004" y="144.4"/>
      <point x="228.79999999999998" y="-22.4"/>
      <point x="575.6" y="-22.4" type="curve" smooth="yes"/>
      <point x="932.5999999999999" y="-22.4"/>
      <point x="1168.2" y="155.8"/>
      <point x="1212.8000000000002" y="418.0" type="curve" smooth="yes"/>
      <point x="1255.6" y="676.8"/>
      <point x="1061.1999999999998" y="794.8"/>
      <point x="847.4" y="847.4" type="curve" smooth="yes"/>
      <point x="713.4" y="881.8" type="line" smooth="yes"/>
      <point x="595.6" y="910.8000000000001"/>
      <point x="471.6" y="963.8"/>
      <point x="494.0" y="1087.8" type="curve" smooth="yes"/>
      <point x="512.5999999999999" y="1199.8"/>
      <point x="625.8" y="1281.2"/>
      <point x="794.6" y="1281.2" type="curve" smooth="yes"/>
      <point x="955.6" y="1281.2"/>
      <point x="1044.1999999999998" y="1207.0"/>
    </contour>
  </outline>
</glyph>
<glyph name="T" format="2">
  <advance height="2479.0" width="1351.0"/>
  <unicode hex="0054"/>
  <anchor x="581.6" y="0.0" name="bottom"/>
  <anchor x="591.8000000000001" y="0.0" name="cedilla"/>
  <anchor x="702.8000000000001" y="727.2" name="cross"/>
  <anchor x="852.4" y="103.6" name="cyrtic"/>
  <anchor x="667.8" y="0.0" name="right"/>
  <anchor x="862.4" y="1676.0" name="top"/>
  <outline>
    <contour>
      <point x="197.8" y="1263.0" type="line"/>
      <point x="657.8" y="1263.0" type="line"/>
      <point x="448.4" y="0.0" type="line"/>
      <point x="716.6" y="0.0" type="line"/>
      <point x="926.0" y="1263.0" type="line"/>
      <point x="1386.0" y="1263.0" type="line"/>
      <point x="1423.6" y="1489.0" type="line"/>
      <point x="235.4" y="1489.0" type="line"/>
    </contour>
  </outline>
</glyph>
<glyph name="U" format="2">
  <advance height="2479.0" width="1501.6"/>
  <unicode hex="0055"/>
  <anchor x="655.6" y="-8.399999999999999" name="bottom"/>
  <anchor x="830.6" y="4.0" name="ogonek"/>
  <anchor x="758.6" y="0.0" name="right"/>
  <anchor x="934.4" y="1676.0" name="top"/>
  <outline>
    <contour>
      <point x="1238.3999999999999" y="1489.0" type="line"/>
      <point x="1080.6" y="538.8" type="line" smooth="yes"/>
      <point x="1049.1999999999998" y="352.79999999999995"/>
      <point x="898.8" y="218.60000000000002"/>
      <point x="693.4" y="218.60000000000002" type="curve" smooth="yes"/>
      <point x="488.8" y="218.60000000000002"/>
      <point x="380.20000000000005" y="352.79999999999995"/>
      <point x="411.6" y="538.8" type="curve" smooth="yes"/>
      <point x="569.4" y="1489.0" type="line"/>
      <point x="299.4" y="1489.0" type="line"/>
      <point x="138.4" y="515.8" type="line" smooth="yes"/>
      <point x="85.60000000000001" y="196.8"/>
      <point x="288.40000000000003" y="-22.4"/>
      <point x="652.8" y="-22.4" type="curve" smooth="yes"/>
      <point x="1016.2" y="-22.4"/>
      <point x="1294.8" y="196.8"/>
      <point x="1347.1999999999998" y="515.8" type="curve" smooth="yes"/>
      <point x="1508.6" y="1489.0" type="line"/>
    </contour>
  </outline>
</glyph>
<glyph name="V" format="2">
  <advance height="2479.0" width="1482.6"/>
  <unicode hex="0056"/>
  <anchor x="648.0" y="0.0" name="bottom"/>
  <anchor x="925.8000000000001" y="1676.0" name="top"/>
  <outline>
    <contour>
      <point x="498.8" y="1489.0" type="line"/>
      <point x="202.6" y="1489.0" type="line"/>
      <point x="479.6" y="0.0" type="line"/>
      <point x="813.0" y="0.0" type="line"/>
      <point x="1585.0" y="1489.0" type="line"/>
      <point x="1288.8" y="1489.0" type="line"/>
      <point x="707.4" y="317.2" type="line"/>
      <point x="692.8" y="317.2" type="line"/>
    </contour>
  </outline>
</glyph>
<glyph name="W" format="2">
  <advance height="2479.0" width="2059.7999999999997"/>
  <unicode hex="0057"/>
  <anchor x="936.9999999999999" y="7.199999999999999" name="bottom"/>
  <anchor x="1214.8" y="1676.0" name="top"/>
  <outline>
    <contour>
      <point x="364.8" y="0.0" type="line"/>
      <point x="631.2" y="0.0" type="line"/>
      <point x="1104.6" y="1045.0" type="line"/>
      <point x="1116.0" y="1045.0" type="line"/>
      <point x="1239.8" y="0.0" type="line"/>
      <point x="1506.2" y="0.0" type="line"/>
      <point x="2174.0" y="1489.0" type="line"/>
      <point x="1883.8" y="1489.0" type="line"/>
      <point x="1434.6" y="393.6" type="line"/>
      <point x="1420.8" y="393.6" type="line"/>
      <point x="1315.2" y="1489.0" type="line"/>
      <point x="1050.8" y="1489.0" type="line"/>
      <point x="582.8000000000001" y="394.8" type="line"/>
      <point x="570.0" y="394.8" type="line"/>
      <point x="482.2" y="1489.0" type="line"/>
      <point x="192.0" y="1489.0" type="line"/>
    </contour>
  </outline>
</glyph>
<glyph name="X" format="2">
  <advance height="2479.0" width="1413.8"/>
  <unicode hex="0058"/>
  <anchor x="615.0" y="4.8" name="bottom"/>
  <anchor x="738.2" y="745.0" name="cross"/>
  <anchor x="1231.2" y="103.6" name="cyrtic"/>
  <anchor x="1101.2" y="0.0" name="right"/>
  <anchor x="892.8000000000001" y="1676.0" name="top"/>
  <outline>
    <contour>
      <point x="519.6" y="1489.0" type="line"/>
      <point x="217.4" y="1489.0" type="line"/>
      <point x="560.2" y="745.0" type="line"/>
      <point x="-35.6" y="0.0" type="line"/>
      <point x="280.59999999999997" y="0.0" type="line"/>
      <point x="702.0" y="541.6" type="line"/>
      <point x="714.0" y="541.6" type="line"/>
      <point x="955.1999999999999" y="0.0" type="line"/>
      <point x="1263.4" y="0.0" type="line"/>
      <point x="922.2" y="745.0" type="line"/>
      <point x="1503.6" y="1489.0" type="line"/>
      <point x="1188.2" y="1489.0" type="line"/>
      <point x="769.1999999999999" y="944.4" type="line"/>
      <point x="757.5999999999999" y="944.4" type="line"/>
    </contour>
  </outline>
</glyph>
<glyph name="Y" format="2">
  <advance height="2479.0" width="1442.6"/>
  <unicode hex="0059"/>
  <anchor x="628.4" y="0.0" name="bottom"/>
  <anchor x="725.4" y="578.2" name="cross"/>
  <anchor x="762.8" y="0.0" name="ogonek"/>
  <anchor x="117.60000000000001" y="1489.0" name="tonos"/>
  <anchor x="907.8" y="1676.0" name="top"/>
  <outline>
    <contour>
      <point x="199.79999999999998" y="1489.0" type="line"/>
      <point x="586.1999999999999" y="555.6" type="line"/>
      <point x="493.79999999999995" y="0.0" type="line"/>
      <point x="762.8" y="0.0" type="line"/>
      <point x="855.5999999999999" y="555.6" type="line"/>
      <point x="1551.4" y="1489.0" type="line"/>
      <point x="1247.4" y="1489.0" type="line"/>
      <point x="775.6" y="830.0" type="line"/>
      <point x="759.4" y="830.0" type="line"/>
      <point x="503.8" y="1489.0" type="line"/>
    </contour>
  </outline>
</glyph>
<glyph name="Z" format="2">
  <advance height="2479.0" width="1337.2"/>
  <unicode hex="005A"/>
  <anchor x="593.6" y="0.0" name="bottom"/>
  <anchor x="725.4" y="776.0" name="cross"/>
  <anchor x="865.4" y="1676.0" name="top"/>
  <outline>
    <contour>
      <point x="26.400000000000006" y="0.0" type="line"/>
      <point x="1129.0" y="0.0" type="line"/>
      <point x="1166.6" y="226.4" type="line"/>
      <point x="397.79999999999995" y="226.4" type="line"/>
      <point x="1344.6" y="1321.4" type="line"/>
      <point x="1371.8" y="1489.0" type="line"/>
      <point x="269.2" y="1489.0" type="line"/>
      <point x="231.6" y="1263.0" type="line"/>
      <point x="1000.4" y="1263.0" type="line"/>
      <point x="55.400000000000006" y="168.2" type="line"/>
    </contour>
  </outline>
</glyph>
<glyph name="bracketleft" format="2">
  <advance height="2479.0" width="806.0"/>
  <unicode hex="005B"/>
  <outline>
    <contour>
      <point x="79.0" y="-316.6" type="line"/>
      <point x="605.0" y="-316.6" type="line"/>
      <point x="639.0" y="-114.8" type="line"/>
      <point x="366.6" y="-114.8" type="line"/>
      <point x="605.0" y="1329.8" type="line"/>
      <point x="877.8000000000001" y="1329.8" type="line"/>
      <point x="911.2" y="1531.0" type="line"/>
      <point x="385.0" y="1531.0" type="line"/>
    </contour>
  </outline>
</glyph>
<glyph name="backslash" format="2">
  <advance height="2479.0" width="773.6"/>
  <unicode hex="005C"/>
  <outline>
    <contour>
      <point x="384.0" y="-224.0" type="line"/>
      <point x="608.6" y="-224.0" type="line"/>
      <point x="423.20000000000005" y="1559.0" type="line"/>
      <point x="199.0" y="1559.0" type="line"/>
    </contour>
  </outline>
</glyph>
<glyph name="asciicircum" format="2">
  <advance height="2479.0" width="985.6"/>
  <unicode hex="005E"/>
  <outline>
    <contour>
      <point x="605.0" y="1339.0" type="line"/>
      <point x="592.4" y="1262.2" type="line"/>
      <point x="644.4" y="1262.2" type="line"/>
      <point x="657.5999999999999" y="1339.0" type="line"/>
    </contour>
    <contour>
      <point x="115.8" y="815.0" type="line"/>
      <point x="339.0" y="815.0" type="line"/>
      <point x="629.2" y="1291.2" type="line"/>
      <point x="613.6" y="1291.2" type="line"/>
      <point x="751.5999999999999" y="815.0" type="line"/>
      <point x="956.8" y="815.0" type="line"/>
      <point x="756.8" y="1452.2" type="line"/>
      <point x="524.6" y="1452.2" type="line"/>
    </contour>
  </outline>
</glyph>
<glyph name="underscore" format="2">
  <advance height="2479.0" width="958.6"/>
  <unicode hex="005F"/>
  <anchor x="413.79999999999995" y="144.2" name="_bottom"/>
  <outline>
    <contour>
      <point x="867.4" y="0.0" type="line"/>
      <point x="-94.8" y="0.0" type="line"/>
      <point x="-129.2" y="-210.0" type="line"/>
      <point x="833.4" y="-210.0" type="line"/>
    </contour>
  </outline>
</glyph>
<glyph name="grave" format="2">
  <advance height="2479.0" width="1018.0"/>
  <unicode hex="0060"/>
  <anchor x="740.8" y="1303.0" name="_top"/>
  <anchor x="791.0" y="1676.0" name="top"/>
  <outline>
    <contour>
      <point x="638.6" y="1263.6" type="line"/>
      <point x="835.8000000000001" y="1263.6" type="line"/>
      <point x="729.0" y="1596.8" type="line"/>
      <point x="471.4" y="1596.8" type="line"/>
    </contour>
  </outline>
</glyph>
<glyph name="a" format="2">
  <advance height="2479.0" width="1177.0"/>
  <unicode hex="0061"/>
  <anchor x="500.6" y="0.0" name="bottom"/>
  <anchor x="953.8" y="0.0" name="ogonek"/>
  <anchor x="723.4" y="1303.0" name="rhalfring"/>
  <anchor x="727.0" y="1303.0" name="top"/>
  <outline>
    <contour>
      <point x="360.8" y="-24.2" type="curve" smooth="yes"/>
      <point x="536.2" y="-24.2"/>
      <point x="655.2" y="60.2"/>
      <point x="718.2" y="153.4" type="curve"/>
      <point x="726.6" y="153.4" type="line"/>
      <point x="700.6" y="0.0" type="line"/>
      <point x="953.8" y="0.0" type="line"/>
      <point x="1078.2" y="747.6" type="line" smooth="yes"/>
      <point x="1127.6" y="1043.4"/>
      <point x="901.0" y="1132.0"/>
      <point x="689.0" y="1132.0" type="curve" smooth="yes"/>
      <point x="454.0" y="1132.0"/>
      <point x="253.6" y="1026.6"/>
      <point x="163.4" y="823.2" type="curve"/>
      <point x="402.0" y="788.4" type="line"/>
      <point x="441.8" y="865.0"/>
      <point x="531.0" y="930.0"/>
      <point x="659.2" y="930.0" type="curve" smooth="yes"/>
      <point x="781.4" y="930.0"/>
      <point x="816.0" y="868.4"/>
      <point x="816.0" y="757.8" type="curve" smooth="yes"/>
      <point x="816.0" y="753.6" type="line" smooth="yes"/>
      <point x="816.0" y="677.8"/>
      <point x="721.8" y="674.4"/>
      <point x="522.5999999999999" y="652.8" type="curve" smooth="yes"/>
      <point x="301.59999999999997" y="630.4000000000001"/>
      <point x="84.39999999999999" y="565.0"/>
      <point x="41.99999999999999" y="313.4" type="curve" smooth="yes"/>
      <point x="5.7999999999999945" y="94.2"/>
      <point x="148.20000000000002" y="-24.2"/>
    </contour>
    <contour>
      <point x="460.19999999999993" y="169.4" type="curve" smooth="yes"/>
      <point x="350.59999999999997" y="169.4"/>
      <point x="281.40000000000003" y="221.8"/>
      <point x="297.6" y="317.6" type="curve" smooth="yes"/>
      <point x="313.2" y="419.4"/>
      <point x="409.6" y="461.2"/>
      <point x="530.1999999999999" y="477.4" type="curve" smooth="yes"/>
      <point x="599.0" y="487.6"/>
      <point x="741.0" y="504.6"/>
      <point x="779.6" y="532.2" type="curve"/>
      <point x="758.0" y="400.8" type="line" smooth="yes"/>
      <point x="737.8" y="276.6"/>
      <point x="618.6" y="169.4"/>
    </contour>
  </outline>
</glyph>
<glyph name="b" format="2">
  <advance height="2479.0" width="1291.0"/>
  <unicode hex="0062"/>
  <anchor x="548.8" y="0.0" name="bottom"/>
  <anchor x="397.4" y="1280.0" name="cross"/>
  <anchor x="863.4" y="1303.0" name="top"/>
  <outline>
    <contour>
      <point x="53.400000000000006" y="0.0" type="line"/>
      <point x="312.20000000000005" y="0.0" type="line"/>
      <point x="341.6" y="176.4" type="line"/>
      <point x="358.59999999999997" y="176.4" type="line"/>
      <point x="386.4" y="94.6"/>
      <point x="453.0" y="-19.8"/>
      <point x="645.2" y="-19.8" type="curve" smooth="yes"/>
      <point x="908.4" y="-19.8"/>
      <point x="1140.8" y="189.4"/>
      <point x="1201.8" y="557.2" type="curve" smooth="yes"/>
      <point x="1263.3999999999999" y="930.0"/>
      <point x="1094.8" y="1132.0"/>
      <point x="836.2" y="1132.0" type="curve" smooth="yes"/>
      <point x="639.4" y="1132.0"/>
      <point x="536.2" y="1013.2"/>
      <point x="484.2" y="932.8" type="curve"/>
      <point x="473.2" y="932.8" type="line"/>
      <point x="564.4" y="1489.0" type="line"/>
      <point x="301.0" y="1489.0" type="line"/>
    </contour>
    <contour>
      <point x="405.0" y="559.0" type="curve" smooth="yes"/>
      <point x="440.0" y="775.0"/>
      <point x="557.0" y="915.4"/>
      <point x="727.4" y="915.4" type="curve" smooth="yes"/>
      <point x="902.2" y="915.4"/>
      <point x="966.6" y="766.0"/>
      <point x="933.4" y="559.0" type="curve" smooth="yes"/>
      <point x="898.4" y="349.2"/>
      <point x="782.2" y="196.2"/>
      <point x="608.5999999999999" y="196.2" type="curve" smooth="yes"/>
      <point x="440.59999999999997" y="196.2"/>
      <point x="370.0" y="341.4"/>
    </contour>
  </outline>
</glyph>
<glyph name="c" format="2">
  <advance height="2479.0" width="1182.0"/>
  <unicode hex="0063"/>
  <anchor x="533.8000000000001" y="0.0" name="cedilla"/>
  <anchor x="741.6" y="1303.0" name="top"/>
  <outline>
    <contour>
      <point x="526.0" y="-21.8" type="curve" smooth="yes"/>
      <point x="806.4000000000001" y="-21.8"/>
      <point x="1011.4000000000001" y="144.4"/>
      <point x="1072.2" y="381.6" type="curve"/>
      <point x="820.4" y="381.6" type="line"/>
      <point x="777.0" y="262.0"/>
      <point x="679.4" y="192.6"/>
      <point x="563.6" y="192.6" type="curve" smooth="yes"/>
      <point x="399.59999999999997" y="192.6"/>
      <point x="315.4" y="330.0"/>
      <point x="353.4" y="559.0" type="curve" smooth="yes"/>
      <point x="389.0" y="784.0"/>
      <point x="520.8" y="919.0"/>
      <point x="684.8" y="919.0" type="curve" smooth="yes"/>
      <point x="810.0" y="919.0"/>
      <point x="875.2" y="837.6"/>
      <point x="877.0" y="730.6" type="curve"/>
      <point x="1129.4" y="730.6" type="line"/>
      <point x="1150.8" y="972.4"/>
      <point x="988.8" y="1132.0"/>
      <point x="716.1999999999999" y="1132.0" type="curve" smooth="yes"/>
      <point x="388.79999999999995" y="1132.0"/>
      <point x="141.20000000000002" y="895.4"/>
      <point x="86.80000000000001" y="554.2" type="curve" smooth="yes"/>
      <point x="30.000000000000007" y="215.6"/>
      <point x="191.40000000000003" y="-21.8"/>
    </contour>
  </outline>
</glyph>
<glyph name="d" format="2">
  <advance height="2479.0" width="1292.8"/>
  <unicode hex="0064"/>
  <anchor x="540.2" y="0.0" name="bottom"/>
  <anchor x="1132.8" y="1280.0" name="cross"/>
  <anchor x="1440.4" y="1489.0" name="raccent"/>
  <anchor x="732.8000000000001" y="1489.0" name="top"/>
  <outline>
    <contour>
      <point x="455.19999999999993" y="-19.8" type="curve" smooth="yes"/>
      <point x="646.6" y="-19.8"/>
      <point x="752.0" y="94.6"/>
      <point x="807.1999999999999" y="176.4" type="curve"/>
      <point x="823.4" y="176.4" type="line"/>
      <point x="793.0" y="0.0" type="line"/>
      <point x="1052.1999999999998" y="0.0" type="line"/>
      <point x="1299.8" y="1489.0" type="line"/>
      <point x="1035.8" y="1489.0" type="line"/>
      <point x="943.0" y="932.8" type="line"/>
      <point x="932.1999999999999" y="932.8" type="line"/>
      <point x="905.4" y="1013.2"/>
      <point x="843.2" y="1132.0"/>
      <point x="646.0" y="1132.0" type="curve" smooth="yes"/>
      <point x="388.40000000000003" y="1132.0"/>
      <point x="152.0" y="930.0"/>
      <point x="89.8" y="557.2" type="curve" smooth="yes"/>
      <point x="29.4" y="189.4"/>
      <point x="191.2" y="-19.8"/>
    </contour>
    <contour>
      <point x="560.6" y="196.2" type="curve" smooth="yes"/>
      <point x="386.6" y="196.2"/>
      <point x="323.6" y="349.2"/>
      <point x="358.8" y="559.0" type="curve" smooth="yes"/>
      <point x="392.40000000000003" y="766.0"/>
      <point x="504.6" y="915.4"/>
      <point x="678.8000000000001" y="915.4" type="curve" smooth="yes"/>
      <point x="849.2" y="915.4"/>
      <point x="922.6" y="775.0"/>
      <point x="887.2" y="559.0" type="curve" smooth="yes"/>
      <point x="850.6" y="341.4"/>
      <point x="728.1999999999999" y="196.2"/>
    </contour>
  </outline>
</glyph>
<glyph name="e" format="2">
  <advance height="2479.0" width="1242.6"/>
  <unicode hex="0065"/>
  <anchor x="514.6" y="0.0" name="bottom"/>
  <anchor x="518.8" y="0.0" name="cedilla"/>
  <anchor x="753.6" y="19.6" name="ogonek"/>
  <anchor x="730.6" y="1303.0" name="top"/>
  <outline>
    <contour>
      <point x="533.8" y="-21.8" type="curve"/>
      <point x="794.4" y="-21.8"/>
      <point x="993.2" y="105.2"/>
      <point x="1072.8" y="299.8" type="curve"/>
      <point x="831.8" y="327.4" type="line"/>
      <point x="780.4000000000001" y="232.2"/>
      <point x="686.4000000000001" y="183.4"/>
      <point x="571.4" y="183.4" type="curve" smooth="yes"/>
      <point x="393.6" y="183.4"/>
      <point x="302.59999999999997" y="272.8"/>
      <point x="335.79999999999995" y="482.8" type="curve" smooth="yes"/>
      <point x="365.4" y="652.8000000000001" type="line" smooth="yes"/>
      <point x="389.59999999999997" y="790.8"/>
      <point x="526.8" y="925.8"/>
      <point x="681.8000000000001" y="925.8" type="curve"/>
      <point x="833.6" y="925.8"/>
      <point x="915.6" y="816.0"/>
      <point x="890.1999999999999" y="664.2" type="curve"/>
      <point x="227.4" y="664.2" type="line"/>
      <point x="199.0" y="486.0" type="line"/>
      <point x="1115.0" y="486.0" type="line"/>
      <point x="1127.6000000000001" y="567.4" type="line" smooth="yes"/>
      <point x="1193.4" y="958.6"/>
      <point x="987.0" y="1132.0"/>
      <point x="711.4" y="1132.0" type="curve" smooth="yes"/>
      <point x="391.8" y="1132.0"/>
      <point x="143.6" y="896.6"/>
      <point x="86.80000000000001" y="552.4" type="curve" smooth="yes"/>
      <point x="28.200000000000006" y="202.20000000000002"/>
      <point x="197.39999999999998" y="-21.8"/>
    </contour>
  </outline>
</glyph>
<glyph name="f" format="2">
  <advance height="2479.0" width="773.4"/>
  <unicode hex="0066"/>
  <anchor x="245.00000000000003" y="0.0" name="bottom"/>
  <anchor x="350.8" y="633.4" name="cross"/>
  <anchor x="620.4" y="1676.0" name="top"/>
  <outline>
    <contour>
      <point x="794.8" y="1117.0" type="line"/>
      <point x="134.20000000000002" y="1117.0" type="line"/>
      <point x="100.4" y="913.6" type="line"/>
      <point x="760.8" y="913.6" type="line"/>
    </contour>
    <component base="_part.f_base" xOffset="-6.800000000000001"/>
  </outline>
</glyph>
<glyph name="g" format="2">
  <advance height="2479.0" width="1280.2"/>
  <unicode hex="0067"/>
  <anchor x="466.79999999999995" y="-431.6" name="bottom"/>
  <anchor x="1016.2" y="565.2" name="cross"/>
  <anchor x="754.2" y="1303.0" name="top"/>
  <outline>
    <contour>
      <point x="457.19999999999993" y="-442.0" type="curve" smooth="yes"/>
      <point x="757.5999999999999" y="-442.0"/>
      <point x="1003.4" y="-304.79999999999995"/>
      <point x="1049.8" y="-18.0" type="curve" smooth="yes"/>
      <point x="1238.2" y="1117.0" type="line"/>
      <point x="977.8" y="1117.0" type="line"/>
      <point x="947.6" y="932.8" type="line"/>
      <point x="933.6" y="932.8" type="line"/>
      <point x="906.6" y="1013.2"/>
      <point x="843.0" y="1132.0"/>
      <point x="645.1999999999999" y="1132.0" type="curve" smooth="yes"/>
      <point x="387.6" y="1132.0"/>
      <point x="150.8" y="930.0"/>
      <point x="90.39999999999999" y="562.0" type="curve" smooth="yes"/>
      <point x="29.999999999999996" y="197.8"/>
      <point x="202.2" y="16.2"/>
      <point x="460.4" y="16.2" type="curve" smooth="yes"/>
      <point x="651.6" y="16.2"/>
      <point x="758.6" y="118.6"/>
      <point x="810.6" y="201.0" type="curve"/>
      <point x="824.4000000000001" y="201.0" type="line"/>
      <point x="790.6" y="-10.799999999999999" type="line" smooth="yes"/>
      <point x="764.2" y="-175.4"/>
      <point x="640.6" y="-243.4"/>
      <point x="491.20000000000005" y="-243.4" type="curve" smooth="yes"/>
      <point x="331.0" y="-243.4"/>
      <point x="277.8" y="-168.4"/>
      <point x="255.60000000000002" y="-102.4" type="curve"/>
      <point x="8.399999999999999" y="-160.0" type="line"/>
      <point x="32.20000000000001" y="-316.2"/>
      <point x="171.8" y="-442.0"/>
    </contour>
    <contour>
      <point x="564.8000000000001" y="223.2" type="curve" smooth="yes"/>
      <point x="390.2" y="223.2"/>
      <point x="325.0" y="358.2"/>
      <point x="358.8" y="563.8" type="curve" smooth="yes"/>
      <point x="392.0" y="766.0"/>
      <point x="502.2" y="915.4"/>
      <point x="678.2" y="915.4" type="curve" smooth="yes"/>
      <point x="847.4000000000001" y="915.4"/>
      <point x="921.6" y="775.0"/>
      <point x="887.2" y="563.8" type="curve" smooth="yes"/>
      <point x="852.2" y="350.4"/>
      <point x="731.8" y="223.2"/>
    </contour>
  </outline>
</glyph>
<glyph name="h" format="2">
  <advance height="2479.0" width="1255.6"/>
  <unicode hex="0068"/>
  <anchor x="534.6" y="0.0" name="bottom"/>
  <anchor x="183.20000000000002" y="0.0" name="cedilla"/>
  <anchor x="386.6" y="1290.2" name="cross"/>
  <anchor x="451.8" y="1676.0" name="top"/>
  <outline>
    <contour>
      <point x="414.8" y="654.4" type="line" smooth="yes"/>
      <point x="442.6" y="815.8"/>
      <point x="558.8" y="908.6"/>
      <point x="699.2" y="908.6" type="curve" smooth="yes"/>
      <point x="836.0" y="908.6"/>
      <point x="903.6" y="821.2"/>
      <point x="879.4" y="670.0" type="curve" smooth="yes"/>
      <point x="767.2" y="0.0" type="line"/>
      <point x="1030.8" y="0.0" type="line"/>
      <point x="1150.2" y="711.2" type="line" smooth="yes"/>
      <point x="1194.4" y="981.6"/>
      <point x="1065.8" y="1132.0"/>
      <point x="835.6" y="1132.0" type="curve" smooth="yes"/>
      <point x="663.0" y="1132.0"/>
      <point x="539.8" y="1054.1999999999998"/>
      <point x="468.6" y="927.8" type="curve"/>
      <point x="455.8" y="927.8" type="line"/>
      <point x="548.2" y="1489.0" type="line"/>
      <point x="290.2" y="1489.0" type="line"/>
      <point x="43.2" y="0.0" type="line"/>
      <point x="306.8" y="0.0" type="line"/>
    </contour>
  </outline>
</glyph>
<glyph name="k" format="2">
  <advance height="2479.0" width="1166.4"/>
  <unicode hex="006B"/>
  <anchor x="504.99999999999994" y="0.0" name="bottom"/>
  <anchor x="455.40000000000003" y="1676.0" name="top"/>
  <outline>
    <contour>
      <point x="341.0" y="350.2" type="line"/>
      <point x="581.4" y="567.4" type="line"/>
      <point x="635.0" y="567.4" type="line"/>
      <point x="1219.8" y="1117.0" type="line"/>
      <point x="912.2" y="1117.0" type="line"/>
      <point x="434.8" y="668.8" type="line"/>
      <point x="392.59999999999997" y="668.8" type="line"/>
    </contour>
    <contour>
      <point x="43.2" y="0.0" type="line"/>
      <point x="306.8" y="0.0" type="line"/>
      <point x="553.8000000000001" y="1489.0" type="line"/>
      <point x="290.2" y="1489.0" type="line"/>
    </contour>
    <contour>
      <point x="744.8000000000001" y="0.0" type="line"/>
      <point x="1059.6000000000001" y="0.0" type="line"/>
      <point x="673.6" y="694.0" type="line"/>
      <point x="465.8" y="508.6" type="line"/>
    </contour>
  </outline>
</glyph>
<glyph name="m" format="2">
  <advance height="2479.0" width="1838.4"/>
  <unicode hex="006D"/>
  <anchor x="828.6" y="0.0" name="bottom"/>
  <anchor x="1044.8000000000002" y="1303.0" name="top"/>
  <outline>
    <contour>
      <point x="43.2" y="0.0" type="line"/>
      <point x="306.8" y="0.0" type="line"/>
      <point x="420.8" y="679.6" type="line" smooth="yes"/>
      <point x="441.6" y="816.1999999999999"/>
      <point x="550.4" y="909.8"/>
      <point x="663.6" y="909.8" type="curve" smooth="yes"/>
      <point x="775.4000000000001" y="909.8"/>
      <point x="838.0" y="835.4"/>
      <point x="820.4" y="719.8" type="curve" smooth="yes"/>
      <point x="699.6" y="0.0" type="line"/>
      <point x="957.6000000000001" y="0.0" type="line"/>
      <point x="1075.4" y="697.0" type="line" smooth="yes"/>
      <point x="1094.8000000000002" y="823.4000000000001"/>
      <point x="1183.4" y="909.8"/>
      <point x="1311.0" y="909.8" type="curve" smooth="yes"/>
      <point x="1417.8" y="909.8"/>
      <point x="1491.2" y="847.4"/>
      <point x="1470.0" y="709.6" type="curve" smooth="yes"/>
      <point x="1350.6000000000001" y="0.0" type="line"/>
      <point x="1614.0" y="0.0" type="line"/>
      <point x="1739.0" y="750.0" type="line" smooth="yes"/>
      <point x="1780.6" y="998.6"/>
      <point x="1658.2" y="1132.0"/>
      <point x="1454.6000000000001" y="1132.0" type="curve" smooth="yes"/>
      <point x="1291.8" y="1132.0"/>
      <point x="1153.6000000000001" y="1051.8"/>
      <point x="1084.3999999999999" y="927.8" type="curve"/>
      <point x="1073.0" y="927.8" type="line"/>
      <point x="1051.6000000000001" y="1053.6"/>
      <point x="955.0" y="1132.0"/>
      <point x="805.0" y="1132.0" type="curve" smooth="yes"/>
      <point x="655.6" y="1132.0"/>
      <point x="530.8" y="1054.8"/>
      <point x="463.0" y="927.8" type="curve"/>
      <point x="449.8" y="927.8" type="line"/>
      <point x="481.2" y="1117.0" type="line"/>
      <point x="229.2" y="1117.0" type="line"/>
    </contour>
  </outline>
</glyph>
<glyph name="o" format="2">
  <advance height="2479.0" width="1245.2"/>
  <unicode hex="006F"/>
  <anchor x="530.2" y="0.0" name="bottom"/>
  <anchor x="673.4" y="0.0" name="ogonek"/>
  <anchor x="745.8000000000001" y="1303.0" name="top"/>
  <outline>
    <contour>
      <point x="532.6" y="-21.8" type="curve" smooth="yes"/>
      <point x="855.8" y="-21.8"/>
      <point x="1098.6" y="205.4"/>
      <point x="1155.3999999999999" y="547.0" type="curve" smooth="yes"/>
      <point x="1211.3999999999999" y="897.1999999999999"/>
      <point x="1039.8000000000002" y="1132.0"/>
      <point x="710.8000000000001" y="1132.0" type="curve" smooth="yes"/>
      <point x="386.0" y="1132.0"/>
      <point x="143.4" y="904.4"/>
      <point x="88.0" y="560.8000000000001" type="curve" smooth="yes"/>
      <point x="31.000000000000007" y="212.0"/>
      <point x="201.6" y="-21.8"/>
    </contour>
    <contour>
      <point x="554.0" y="189.0" type="curve" smooth="yes"/>
      <point x="377.0" y="189.0"/>
      <point x="318.4" y="347.0"/>
      <point x="351.6" y="548.1999999999999" type="curve" smooth="yes"/>
      <point x="384.8" y="756.1999999999999"/>
      <point x="505.8" y="922.6"/>
      <point x="689.4" y="922.6" type="curve" smooth="yes"/>
      <point x="864.8000000000001" y="922.6"/>
      <point x="923.4" y="763.4"/>
      <point x="891.8000000000001" y="562.0" type="curve" smooth="yes"/>
      <point x="857.4" y="353.6"/>
      <point x="736.6" y="189.0"/>
    </contour>
  </outline>
</glyph>
<glyph name="p" format="2">
  <advance height="2479.0" width="1307.6000000000001"/>
  <unicode hex="0070"/>
  <anchor x="108.40000000000002" y="-411.8" name="bottom"/>
  <anchor x="1126.6" y="-487.8" name="bottom0315"/>
  <anchor x="149.99999999999997" y="-163.0" name="cross"/>
  <anchor x="810.6" y="1303.0" name="top"/>
  <outline>
    <contour>
      <point x="-26.8" y="-419.0" type="line"/>
      <point x="238.60000000000002" y="-419.0" type="line"/>
      <point x="337.6" y="176.4" type="line"/>
      <point x="349.59999999999997" y="176.4" type="line"/>
      <point x="376.6" y="94.6"/>
      <point x="443.20000000000005" y="-19.8"/>
      <point x="636.4" y="-19.8" type="curve" smooth="yes"/>
      <point x="898.6" y="-19.8"/>
      <point x="1131.6" y="189.4"/>
      <point x="1192.3999999999999" y="557.2" type="curve" smooth="yes"/>
      <point x="1253.6" y="930.0"/>
      <point x="1084.6000000000001" y="1132.0"/>
      <point x="827.8" y="1132.0" type="curve" smooth="yes"/>
      <point x="629.6" y="1132.0"/>
      <point x="526.4" y="1013.2"/>
      <point x="475.2" y="932.8" type="curve"/>
      <point x="459.6" y="932.8" type="line"/>
      <point x="489.8" y="1117.0" type="line"/>
      <point x="230.6" y="1117.0" type="line"/>
    </contour>
    <contour>
      <point x="396.20000000000005" y="559.0" type="curve" smooth="yes"/>
      <point x="430.20000000000005" y="775.0"/>
      <point x="547.8" y="915.4"/>
      <point x="718.6" y="915.4" type="curve" smooth="yes"/>
      <point x="892.4" y="915.4"/>
      <point x="956.8" y="766.0"/>
      <point x="924.6" y="559.0" type="curve" smooth="yes"/>
      <point x="887.4" y="349.2"/>
      <point x="772.4" y="196.2"/>
      <point x="599.8" y="196.2" type="curve" smooth="yes"/>
      <point x="430.8" y="196.2"/>
      <point x="360.40000000000003" y="341.4"/>
    </contour>
  </outline>
</glyph>
<glyph name="q" format="2">
  <advance height="2479.0" width="1306.2"/>
  <unicode hex="0071"/>
  <anchor x="877.6" y="-411.8" name="bottom"/>
  <anchor x="919.0" y="-163.0" name="cross"/>
  <anchor x="743.0" y="1303.0" name="top"/>
  <outline>
    <contour>
      <point x="745.0" y="-419.0" type="line"/>
      <point x="1008.4000000000001" y="-419.0" type="line"/>
      <point x="1263.0" y="1117.0" type="line"/>
      <point x="1004.2" y="1117.0" type="line"/>
      <point x="972.6" y="932.8" type="line"/>
      <point x="956.8" y="932.8" type="line"/>
      <point x="931.0" y="1013.2"/>
      <point x="868.0" y="1132.0"/>
      <point x="670.2" y="1132.0" type="curve" smooth="yes"/>
      <point x="412.59999999999997" y="1132.0"/>
      <point x="176.20000000000002" y="930.0"/>
      <point x="115.2" y="557.2" type="curve" smooth="yes"/>
      <point x="54.2" y="189.4"/>
      <point x="217.4" y="-19.8"/>
      <point x="480.0" y="-19.8" type="curve" smooth="yes"/>
      <point x="671.8000000000001" y="-19.8"/>
      <point x="777.6" y="94.6"/>
      <point x="832.0" y="176.4" type="curve"/>
      <point x="842.8000000000001" y="176.4" type="line"/>
    </contour>
    <contour>
      <point x="588.4" y="196.2" type="curve" smooth="yes"/>
      <point x="415.4" y="196.2"/>
      <point x="348.8" y="349.2"/>
      <point x="383.0" y="559.0" type="curve" smooth="yes"/>
      <point x="418.2" y="766.0"/>
      <point x="532.4" y="915.4"/>
      <point x="708.1999999999999" y="915.4" type="curve" smooth="yes"/>
      <point x="877.5999999999999" y="915.4"/>
      <point x="947.8000000000001" y="775.0"/>
      <point x="911.4" y="559.0" type="curve" smooth="yes"/>
      <point x="875.8000000000001" y="341.4"/>
      <point x="757.0" y="196.2"/>
    </contour>
  </outline>
</glyph>
<glyph name="r" format="2">
  <advance height="2479.0" width="813.8"/>
  <unicode hex="0072"/>
  <anchor x="173.60000000000002" y="0.0" name="bottom"/>
  <anchor x="264.6" y="535.0" name="cross"/>
  <anchor x="569.6" y="1303.0" name="top"/>
  <outline>
    <contour>
      <point x="42.0" y="0.0" type="line"/>
      <point x="305.6" y="0.0" type="line"/>
      <point x="413.6" y="657.0" type="line" smooth="yes"/>
      <point x="438.40000000000003" y="798.8"/>
      <point x="561.4000000000001" y="899.0"/>
      <point x="706.0" y="899.0" type="curve" smooth="yes"/>
      <point x="750.8000000000001" y="899.0"/>
      <point x="804.6" y="891.2"/>
      <point x="827.0" y="883.8" type="curve"/>
      <point x="867.5999999999999" y="1126.0" type="line"/>
      <point x="842.2" y="1131.4"/>
      <point x="803.6" y="1133.8"/>
      <point x="773.4" y="1133.8" type="curve" smooth="yes"/>
      <point x="646.0" y="1133.8"/>
      <point x="525.4" y="1060.2"/>
      <point x="463.8" y="930.8" type="curve"/>
      <point x="452.20000000000005" y="930.8" type="line"/>
      <point x="483.6" y="1117.0" type="line"/>
      <point x="228.0" y="1117.0" type="line"/>
    </contour>
  </outline>
</glyph>
<glyph name="s" format="2">
  <advance height="2479.0" width="1124.2"/>
  <unicode hex="0073"/>
  <anchor x="480.80000000000007" y="0.0" name="bottom"/>
  <anchor x="482.6" y="0.0" name="cedilla"/>
  <anchor x="697.0" y="1303.0" name="top"/>
  <outline>
    <contour>
      <point x="1061.4" y="821.4" type="line"/>
      <point x="1056.4" y="1011.8"/>
      <point x="922.4" y="1132.0"/>
      <point x="655.8" y="1132.0" type="curve" smooth="yes"/>
      <point x="391.40000000000003" y="1132.0"/>
      <point x="190.2" y="1004.4000000000001"/>
      <point x="156.20000000000002" y="801.8000000000001" type="curve" smooth="yes"/>
      <point x="128.2" y="635.0"/>
      <point x="215.4" y="524.2"/>
      <point x="422.6" y="478.59999999999997" type="curve" smooth="yes"/>
      <point x="605.5999999999999" y="438.8" type="line" smooth="yes"/>
      <point x="706.1999999999999" y="416.2"/>
      <point x="742.4" y="379.8"/>
      <point x="732.8000000000001" y="320.2" type="curve" smooth="yes"/>
      <point x="720.5999999999999" y="239.79999999999998"/>
      <point x="621.8" y="175.60000000000002"/>
      <point x="491.80000000000007" y="176.8" type="curve" smooth="yes"/>
      <point x="376.2" y="177.60000000000002"/>
      <point x="309.4" y="228.6"/>
      <point x="303.2" y="329.2" type="curve"/>
      <point x="43.99999999999999" y="305.2" type="line"/>
      <point x="43.400000000000006" y="101.0"/>
      <point x="198.6" y="-21.8"/>
      <point x="476.79999999999995" y="-21.8" type="curve" smooth="yes"/>
      <point x="752.1999999999999" y="-21.8"/>
      <point x="968.8" y="118.2"/>
      <point x="1003.6" y="325.0" type="curve" smooth="yes"/>
      <point x="1030.3999999999999" y="489.2"/>
      <point x="940.2" y="589.6"/>
      <point x="736.6" y="636.0" type="curve" smooth="yes"/>
      <point x="552.2" y="677.0" type="line" smooth="yes"/>
      <point x="444.4" y="702.6"/>
      <point x="408.6" y="737.8"/>
      <point x="419.59999999999997" y="797.4" type="curve" smooth="yes"/>
      <point x="431.2" y="877.8"/>
      <point x="529.5999999999999" y="935.4"/>
      <point x="643.8000000000001" y="935.4" type="curve" smooth="yes"/>
      <point x="761.6" y="935.4"/>
      <point x="810.4" y="870.4"/>
      <point x="819.2" y="795.0" type="curve"/>
    </contour>
  </outline>
</glyph>
<glyph name="u" format="2">
  <advance height="2479.0" width="1274.0"/>
  <unicode hex="0075"/>
  <anchor x="550.6" y="0.0" name="bottom"/>
  <anchor x="1017.8" y="0.0" name="ogonek"/>
  <anchor x="746.8" y="1303.0" name="top"/>
  <outline>
    <contour>
      <point x="832.2" y="469.8" type="line" smooth="yes"/>
      <point x="804.8" y="299.4"/>
      <point x="670.0" y="215.0"/>
      <point x="553.2" y="215.0" type="curve" smooth="yes"/>
      <point x="427.0" y="215.0"/>
      <point x="358.2" y="304.8"/>
      <point x="380.6" y="447.0" type="curve" smooth="yes"/>
      <point x="492.40000000000003" y="1117.0" type="line"/>
      <point x="228.8" y="1117.0" type="line"/>
      <point x="109.8" y="405.8" type="line" smooth="yes"/>
      <point x="65.60000000000001" y="137.2"/>
      <point x="192.40000000000003" y="-15.0"/>
      <point x="412.40000000000003" y="-15.0" type="curve" smooth="yes"/>
      <point x="579.6" y="-15.0"/>
      <point x="714.8000000000001" y="73.6"/>
      <point x="784.4" y="198.2" type="curve"/>
      <point x="796.0" y="198.2" type="line"/>
      <point x="762.8" y="0.0" type="line"/>
      <point x="1017.8" y="0.0" type="line"/>
      <point x="1204.8" y="1117.0" type="line"/>
      <point x="940.8" y="1117.0" type="line"/>
    </contour>
  </outline>
</glyph>
<glyph name="w" format="2">
  <advance height="2479.0" width="1715.2"/>
  <unicode hex="0077"/>
  <anchor x="761.0" y="0.0" name="bottom"/>
  <anchor x="979.6" y="1303.0" name="top"/>
  <outline>
    <contour>
      <point x="273.0" y="0.0" type="line"/>
      <point x="547.6" y="0.0" type="line"/>
      <point x="882.1999999999999" y="754.4" type="line"/>
      <point x="897.1999999999999" y="754.4" type="line"/>
      <point x="981.5999999999999" y="0.0" type="line"/>
      <point x="1256.2" y="0.0" type="line"/>
      <point x="1758.2" y="1117.0" type="line"/>
      <point x="1489.4" y="1117.0" type="line"/>
      <point x="1165.0" y="335.8" type="line"/>
      <point x="1154.2" y="335.8" type="line"/>
      <point x="1084.4" y="1117.0" type="line"/>
      <point x="818.6" y="1117.0" type="line"/>
      <point x="487.59999999999997" y="331.6" type="line"/>
      <point x="476.80000000000007" y="331.6" type="line"/>
      <point x="411.8" y="1117.0" type="line"/>
      <point x="143.0" y="1117.0" type="line"/>
    </contour>
  </outline>
</glyph>
<glyph name="x" format="2">
  <advance height="2479.0" width="1151.8"/>
  <unicode hex="0078"/>
  <anchor x="483.20000000000005" y="0.0" name="bottom"/>
  <anchor x="576.2" y="559.0" name="cross"/>
  <anchor x="975.1999999999999" y="103.6" name="cyrtic"/>
  <anchor x="814.4" y="0.0" name="right"/>
  <anchor x="698.2" y="1303.0" name="top"/>
  <outline>
    <contour>
      <point x="443.2" y="1117.0" type="line"/>
      <point x="164.0" y="1117.0" type="line"/>
      <point x="402.4" y="559.0" type="line"/>
      <point x="-30.400000000000006" y="0.0" type="line"/>
      <point x="249.2" y="0.0" type="line"/>
      <point x="549.6" y="401.8" type="line"/>
      <point x="719.0" y="0.0" type="line"/>
      <point x="996.2" y="0.0" type="line"/>
      <point x="746.6" y="559.0" type="line"/>
      <point x="1176.2" y="1117.0" type="line"/>
      <point x="898.2" y="1117.0" type="line"/>
      <point x="600.4000000000001" y="704.4" type="line"/>
    </contour>
  </outline>
</glyph>
<glyph name="y" format="2">
  <advance height="2479.0" width="1179.6"/>
  <unicode hex="0079"/>
  <anchor x="814.8000000000001" y="-29.4" name="bottom"/>
  <anchor x="613.5999999999999" y="-419.0" name="ogonek"/>
  <anchor x="712.4" y="1303.0" name="top"/>
  <outline>
    <contour>
      <point x="137.6" y="-419.0" type="curve" smooth="yes"/>
      <point x="340.20000000000005" y="-419.0"/>
      <point x="477.79999999999995" y="-315.2"/>
      <point x="572.6" y="-133.8" type="curve" smooth="yes"/>
      <point x="1226.8" y="1117.0" type="line"/>
      <point x="935.5999999999999" y="1117.0" type="line"/>
      <point x="536.5999999999999" y="271.59999999999997" type="line"/>
      <point x="525.1999999999999" y="271.59999999999997" type="line"/>
      <point x="408.8" y="1117.0" type="line"/>
      <point x="139.8" y="1117.0" type="line"/>
      <point x="353.79999999999995" y="-19.6" type="line"/>
      <point x="319.8" y="-80.2" type="line" smooth="yes"/>
      <point x="248.39999999999998" y="-206.6"/>
      <point x="174.6" y="-219.0"/>
      <point x="66.0" y="-186.2" type="curve"/>
      <point x="-30.000000000000004" y="-391.4" type="line"/>
      <point x="3.600000000000011" y="-405.8"/>
      <point x="65.6" y="-419.0"/>
    </contour>
  </outline>
</glyph>
<glyph name="z" format="2">
  <advance height="2479.0" width="1152.4"/>
  <unicode hex="007A"/>
  <anchor x="479.6" y="0.0" name="bottom"/>
  <anchor x="573.8000000000001" y="559.0" name="cross"/>
  <anchor x="697.0" y="1303.0" name="top"/>
  <outline>
    <contour>
      <point x="28.400000000000002" y="0.0" type="line"/>
      <point x="947.6" y="0.0" type="line"/>
      <point x="982.8000000000001" y="218.0" type="line"/>
      <point x="415.40000000000003" y="218.0" type="line"/>
      <point x="418.40000000000003" y="227.6" type="line"/>
      <point x="1084.0" y="937.2" type="line"/>
      <point x="1112.6000000000001" y="1117.0" type="line"/>
      <point x="234.20000000000002" y="1117.0" type="line"/>
      <point x="197.20000000000002" y="899.0" type="line"/>
      <point x="754.0" y="899.0" type="line"/>
      <point x="751.0" y="889.4" type="line"/>
      <point x="56.2" y="167.0" type="line"/>
    </contour>
  </outline>
</glyph>
<glyph name="braceleft" format="2">
  <advance height="2479.0" width="806.0"/>
  <unicode hex="007B"/>
  <outline>
    <contour>
      <point x="73.0" y="601.8" type="line"/>
      <point x="468.6" y="601.8"/>
      <point x="566.0" y="721.4"/>
      <point x="589.4" y="870.6" type="curve" smooth="yes"/>
      <point x="629.8" y="1108.6" type="line" smooth="yes"/>
      <point x="653.4" y="1260.6"/>
      <point x="706.4" y="1329.8"/>
      <point x="877.8000000000001" y="1329.8" type="curve"/>
      <point x="911.2" y="1531.0" type="line"/>
      <point x="620.2" y="1531.0"/>
      <point x="434.59999999999997" y="1458.2"/>
      <point x="383.2" y="1129.8" type="curve" smooth="yes"/>
      <point x="353.2" y="945.0" type="line" smooth="yes"/>
      <point x="328.8" y="791.6"/>
      <point x="260.2" y="730.0"/>
      <point x="94.8" y="730.0" type="curve"/>
    </contour>
    <contour>
      <point x="605.0" y="-316.6" type="curve"/>
      <point x="639.0" y="-114.8" type="line"/>
      <point x="467.59999999999997" y="-114.8"/>
      <point x="437.4" y="-45.6"/>
      <point x="462.79999999999995" y="105.8" type="curve" smooth="yes"/>
      <point x="503.2" y="344.4" type="line" smooth="yes"/>
      <point x="526.6" y="493.0"/>
      <point x="469.8" y="612.6"/>
      <point x="74.19999999999999" y="612.6" type="curve"/>
      <point x="54.199999999999996" y="485.0" type="line"/>
      <point x="220.8" y="485.0"/>
      <point x="263.4" y="422.8"/>
      <point x="239.0" y="270.0" type="curve" smooth="yes"/>
      <point x="209.39999999999998" y="84.6" type="line" smooth="yes"/>
      <point x="157.6" y="-243.20000000000002"/>
      <point x="314.0" y="-316.6"/>
    </contour>
    <contour>
      <point x="51.199999999999996" y="485.0" type="line"/>
      <point x="281.8" y="485.0" type="line"/>
      <point x="323.0" y="730.0" type="line"/>
      <point x="91.8" y="730.0" type="line"/>
    </contour>
  </outline>
</glyph>
<glyph name="bar" format="2">
  <advance height="2479.0" width="733.0"/>
  <unicode hex="007C"/>
  <outline>
    <contour>
      <point x="722.0" y="1969.0" type="line"/>
      <point x="477.79999999999995" y="1969.0" type="line"/>
      <point x="72.80000000000001" y="-480.0" type="line"/>
      <point x="317.20000000000005" y="-480.0" type="line"/>
    </contour>
  </outline>
</glyph>
<glyph name="asciitilde" format="2">
  <advance height="2479.0" width="1378.0"/>
  <unicode hex="007E"/>
  <outline>
    <contour>
      <point x="136.4" y="415.2" type="curve"/>
      <point x="347.0" y="415.2" type="line"/>
      <point x="365.6" y="538.8000000000001"/>
      <point x="426.0" y="587.2"/>
      <point x="497.20000000000005" y="587.2" type="curve" smooth="yes"/>
      <point x="549.0" y="587.2"/>
      <point x="578.0" y="568.4"/>
      <point x="633.4" y="513.0" type="curve" smooth="yes"/>
      <point x="722.5999999999999" y="423.8"/>
      <point x="788.6" y="383.8"/>
      <point x="886.4" y="383.8" type="curve" smooth="yes"/>
      <point x="1064.2" y="383.8"/>
      <point x="1217.0" y="512.2"/>
      <point x="1253.2" y="775.6" type="curve"/>
      <point x="1042.6000000000001" y="775.6" type="line"/>
      <point x="1025.2" y="659.6"/>
      <point x="966.5999999999999" y="604.2"/>
      <point x="891.1999999999999" y="604.2" type="curve" smooth="yes"/>
      <point x="840.4" y="604.2"/>
      <point x="809.8" y="629.6"/>
      <point x="757.2" y="682.6" type="curve" smooth="yes"/>
      <point x="664.8" y="775.0"/>
      <point x="597.8" y="811.8"/>
      <point x="503.2" y="811.8" type="curve" smooth="yes"/>
      <point x="322.2" y="811.8"/>
      <point x="173.20000000000002" y="680.4"/>
    </contour>
  </outline>
</glyph>
<glyph name="cent" format="2">
  <advance height="2479.0" width="1182.0"/>
  <unicode hex="00A2"/>
  <anchor x="565.4000000000001" y="190.2" name="cedilla"/>
  <anchor x="773.2" y="1493.2" name="top"/>
  <outline>
    <contour>
      <point x="452.0" y="0.0" type="line"/>
      <point x="571.6" y="0.0" type="line"/>
      <point x="840.8000000000001" y="1489.0" type="line"/>
      <point x="721.8000000000001" y="1489.0" type="line"/>
    </contour>
    <component base="c" xOffset="31.6" yOffset="190.2"/>
  </outline>
</glyph>
<glyph name="sterling" format="2">
  <advance height="2479.0" width="1347.6"/>
  <unicode hex="00A3"/>
  <outline>
    <contour>
      <point x="1097.8" y="0.0" type="line"/>
      <point x="1135.8" y="226.4" type="line"/>
      <point x="85.4" y="226.4" type="line"/>
      <point x="47.80000000000001" y="0.0" type="line"/>
    </contour>
    <contour>
      <point x="898.6" y="588.2" type="line"/>
      <point x="936.8" y="809.0" type="line"/>
      <point x="178.8" y="809.0" type="line"/>
      <point x="140.2" y="588.2" type="line"/>
    </contour>
    <contour>
      <point x="632.0" y="1058.6" type="line"/>
      <point x="658.2" y="1215.6"/>
      <point x="764.6" y="1288.4"/>
      <point x="872.0" y="1288.4" type="curve" smooth="yes"/>
      <point x="977.8000000000001" y="1288.4"/>
      <point x="1065.0" y="1229.0"/>
      <point x="1034.6" y="1096.8" type="curve"/>
      <point x="1283.0" y="1076.0" type="line"/>
      <point x="1350.0" y="1317.0"/>
      <point x="1196.8" y="1510.0"/>
      <point x="902.8" y="1510.0" type="curve" smooth="yes"/>
      <point x="645.8" y="1510.0"/>
      <point x="406.8" y="1353.6"/>
      <point x="369.0" y="1058.6" type="curve" smooth="yes"/>
      <point x="285.8" y="423.4" type="line" smooth="yes"/>
      <point x="274.6" y="343.2"/>
      <point x="240.8" y="235.60000000000002"/>
      <point x="168.2" y="226.4" type="curve"/>
      <point x="348.8" y="153.0" type="line"/>
      <point x="478.2" y="213.4"/>
      <point x="535.6" y="305.8"/>
      <point x="551.5999999999999" y="435.0" type="curve" smooth="yes"/>
    </contour>
  </outline>
</glyph>
<glyph name="currency" format="2">
  <advance height="2479.0" width="1537.8"/>
  <unicode hex="00A4"/>
  <outline>
    <contour>
      <point x="671.6" y="-20.0" type="curve" smooth="yes"/>
      <point x="1004.2" y="-20.0"/>
      <point x="1324.1999999999998" y="253.0"/>
      <point x="1383.0" y="608.0" type="curve" smooth="yes"/>
      <point x="1440.6" y="963.0"/>
      <point x="1210.6000000000001" y="1233.0"/>
      <point x="878.2" y="1233.0" type="curve" smooth="yes"/>
      <point x="542.8000000000001" y="1233.0"/>
      <point x="227.4" y="963.0"/>
      <point x="169.8" y="608.0" type="curve"/>
      <point x="111.0" y="253.0"/>
      <point x="336.2" y="-20.0"/>
    </contour>
    <contour>
      <point x="700.8000000000001" y="159.6" type="curve" smooth="yes"/>
      <point x="462.00000000000006" y="159.6"/>
      <point x="304.4" y="358.8"/>
      <point x="347.0" y="608.0" type="curve"/>
      <point x="389.4" y="859.8"/>
      <point x="610.4000000000001" y="1056.4"/>
      <point x="849.2" y="1056.4" type="curve" smooth="yes"/>
      <point x="1085.0" y="1056.4"/>
      <point x="1245.0" y="859.8"/>
      <point x="1203.0" y="608.0" type="curve" smooth="yes"/>
      <point x="1160.4" y="358.8"/>
      <point x="937.0" y="159.6"/>
    </contour>
    <contour>
      <point x="1263.0" y="918.2" type="line"/>
      <point x="1505.0" y="1124.8" type="line"/>
      <point x="1393.8" y="1260.8" type="line"/>
      <point x="1154.2" y="1054.2" type="line"/>
    </contour>
    <contour>
      <point x="1178.8" y="-21.8" type="line"/>
      <point x="1336.0" y="114.8" type="line"/>
      <point x="1163.4" y="318.2" type="line"/>
      <point x="1009.2" y="185.2" type="line"/>
    </contour>
    <contour>
      <point x="165.60000000000002" y="-21.8" type="line"/>
      <point x="407.2" y="185.2" type="line"/>
      <point x="295.4" y="318.2" type="line"/>
      <point x="56.8" y="114.8" type="line"/>
    </contour>
    <contour>
      <point x="395.0" y="918.2" type="line"/>
      <point x="552.1999999999999" y="1054.2" type="line"/>
      <point x="380.0" y="1260.8" type="line"/>
      <point x="225.4" y="1124.8" type="line"/>
    </contour>
  </outline>
</glyph>
<glyph name="yen" format="2">
  <advance height="2479.0" width="1155.4"/>
  <unicode hex="00A5"/>
  <outline>
    <contour>
      <point x="465.59999999999997" y="1489.0" type="line"/>
      <point x="183.0" y="1489.0" type="line"/>
      <point x="458.6" y="585.6" type="line"/>
      <point x="668.8" y="712.4" type="line"/>
    </contour>
    <contour>
      <point x="541.0" y="717.2" type="line"/>
      <point x="702.6" y="585.6" type="line"/>
      <point x="1280.4" y="1489.0" type="line"/>
      <point x="998.2" y="1489.0" type="line"/>
    </contour>
    <contour>
      <point x="746.1999999999999" y="783.8" type="line"/>
      <point x="478.6" y="783.8" type="line"/>
      <point x="348.0" y="0.0" type="line"/>
      <point x="615.8" y="0.0" type="line"/>
    </contour>
    <contour>
      <point x="1046.2" y="759.2" type="line"/>
      <point x="153.79999999999998" y="759.2" type="line"/>
      <point x="127.19999999999999" y="595.8" type="line"/>
      <point x="1020.0" y="595.8" type="line"/>
    </contour>
    <contour>
      <point x="999.6" y="471.2" type="line"/>
      <point x="107.19999999999999" y="471.2" type="line"/>
      <point x="80.0" y="307.8" type="line"/>
      <point x="972.4" y="307.8" type="line"/>
    </contour>
  </outline>
</glyph>
<glyph name="brokenbar" format="2">
  <advance height="2479.0" width="652.4"/>
  <unicode hex="00A6"/>
  <outline>
    <contour>
      <point x="182.39999999999998" y="410.6" type="line"/>
      <point x="67.19999999999999" y="-279.0" type="line"/>
      <point x="305.2" y="-279.0" type="line"/>
      <point x="420.0" y="410.6" type="line"/>
    </contour>
    <contour>
      <point x="599.2" y="1489.0" type="line"/>
      <point x="361.2" y="1489.0" type="line"/>
      <point x="247.0" y="802.4" type="line"/>
      <point x="485.0" y="802.4" type="line"/>
    </contour>
  </outline>
</glyph>
<glyph name="section" format="2">
  <advance height="2479.0" width="1185.8"/>
  <unicode hex="00A7"/>
  <outline>
    <contour>
      <point x="1082.6" y="1125.4" type="line"/>
      <point x="1118.3999999999999" y="1348.8"/>
      <point x="986.6" y="1510.0"/>
      <point x="742.2" y="1510.0" type="curve" smooth="yes"/>
      <point x="509.2" y="1510.0"/>
      <point x="321.8" y="1363.8"/>
      <point x="287.8" y="1165.0" type="curve" smooth="yes"/>
      <point x="271.0" y="1058.6"/>
      <point x="303.59999999999997" y="976.4"/>
      <point x="361.0" y="908.2" type="curve"/>
      <point x="361.0" y="904.6" type="line"/>
      <point x="267.2" y="879.2"/>
      <point x="159.0" y="797.0"/>
      <point x="132.8" y="680.8" type="curve" smooth="yes"/>
      <point x="88.2" y="478.4"/>
      <point x="230.39999999999998" y="385.4"/>
      <point x="304.40000000000003" y="347.0" type="curve" smooth="yes"/>
      <point x="559.8" y="208.8" type="line" smooth="yes"/>
      <point x="614.2" y="177.6"/>
      <point x="689.2" y="132.4"/>
      <point x="675.2" y="45.6" type="curve" smooth="yes"/>
      <point x="661.4000000000001" y="-38.0"/>
      <point x="571.6" y="-74.8"/>
      <point x="486.0" y="-76.0" type="curve" smooth="yes"/>
      <point x="366.6" y="-79.6"/>
      <point x="297.4" y="-18.799999999999997"/>
      <point x="315.20000000000005" y="90.2" type="curve"/>
      <point x="77.19999999999999" y="90.2" type="line"/>
      <point x="37.599999999999994" y="-149.6"/>
      <point x="190.4" y="-301.8"/>
      <point x="446.0" y="-301.8" type="curve" smooth="yes"/>
      <point x="672.8" y="-301.8"/>
      <point x="877.0" y="-179.6"/>
      <point x="914.8" y="45.6" type="curve" smooth="yes"/>
      <point x="931.4" y="150.2"/>
      <point x="906.6" y="236.0"/>
      <point x="838.8" y="304.2" type="curve"/>
      <point x="842.4" y="307.2" type="line"/>
      <point x="925.6" y="331.4"/>
      <point x="1042.0" y="412.4"/>
      <point x="1068.6" y="529.6" type="curve" smooth="yes"/>
      <point x="1115.4" y="730.4"/>
      <point x="970.2" y="822.0"/>
      <point x="901.1999999999999" y="860.0" type="curve" smooth="yes"/>
      <point x="642.8" y="1001.6" type="line" smooth="yes"/>
      <point x="585.6" y="1030.6"/>
      <point x="512.6" y="1089.0"/>
      <point x="525.8000000000001" y="1165.0" type="curve" smooth="yes"/>
      <point x="538.0" y="1235.0"/>
      <point x="608.5999999999999" y="1286.0"/>
      <point x="703.6" y="1286.0" type="curve" smooth="yes"/>
      <point x="817.0" y="1286.0"/>
      <point x="861.5999999999999" y="1217.4"/>
      <point x="845.8000000000001" y="1125.4" type="curve"/>
    </contour>
    <contour>
      <point x="843.4000000000001" y="518.8" type="curve"/>
      <point x="827.1999999999999" y="438.2"/>
      <point x="734.1999999999999" y="388.4"/>
      <point x="687.6" y="414.2" type="curve" smooth="yes"/>
      <point x="457.6" y="538.8" type="line" smooth="yes"/>
      <point x="385.20000000000005" y="576.8"/>
      <point x="341.40000000000003" y="625.8"/>
      <point x="356.8" y="691.2" type="curve" smooth="yes"/>
      <point x="374.0" y="772.4"/>
      <point x="459.2" y="827.0"/>
      <point x="511.0" y="798.2" type="curve" smooth="yes"/>
      <point x="746.2" y="669.8" type="line" smooth="yes"/>
      <point x="819.0" y="632.4"/>
      <point x="859.2" y="580.0"/>
    </contour>
  </outline>
</glyph>
<glyph name="dieresis" format="2">
  <advance height="2479.0" width="1133.2"/>
  <unicode hex="00A8"/>
  <anchor x="688.6" y="1303.0" name="_top"/>
  <anchor x="752.6" y="1676.0" name="top"/>
  <outline>
    <contour>
      <point x="483.2" y="1281.0" type="curve" smooth="yes"/>
      <point x="555.1999999999999" y="1281.0"/>
      <point x="618.0" y="1336.6"/>
      <point x="628.1999999999999" y="1402.0" type="curve" smooth="yes"/>
      <point x="642.1999999999999" y="1487.8"/>
      <point x="584.8" y="1555.6"/>
      <point x="498.2" y="1555.6" type="curve" smooth="yes"/>
      <point x="430.0" y="1555.6"/>
      <point x="364.0" y="1503.6000000000001"/>
      <point x="352.59999999999997" y="1434.6" type="curve" smooth="yes"/>
      <point x="340.4" y="1352.4"/>
      <point x="400.4" y="1281.0"/>
    </contour>
    <contour>
      <point x="919.8" y="1281.0" type="curve" smooth="yes"/>
      <point x="991.8" y="1281.0"/>
      <point x="1054.2" y="1336.6"/>
      <point x="1064.4" y="1402.0" type="curve" smooth="yes"/>
      <point x="1078.8" y="1487.8"/>
      <point x="1021.4" y="1555.6"/>
      <point x="934.4" y="1555.6" type="curve" smooth="yes"/>
      <point x="866.6" y="1555.6"/>
      <point x="800.8" y="1503.6000000000001"/>
      <point x="789.1999999999999" y="1434.6" type="curve" smooth="yes"/>
      <point x="775.4" y="1350.6"/>
      <point x="837.0" y="1281.0"/>
    </contour>
  </outline>
</glyph>
<glyph name="copyright" format="2">
  <advance height="2479.0" width="1873.0"/>
  <unicode hex="00A9"/>
  <outline>
    <contour>
      <point x="556.2" y="745.0" type="curve" smooth="yes"/>
      <point x="517.8000000000001" y="514.4"/>
      <point x="674.2" y="327.4"/>
      <point x="904.1999999999999" y="327.4" type="curve" smooth="yes"/>
      <point x="1106.0" y="327.4"/>
      <point x="1290.2" y="470.8"/>
      <point x="1345.8" y="661.2" type="curve"/>
      <point x="1143.0" y="661.2" type="line"/>
      <point x="1111.8" y="579.0"/>
      <point x="1019.8" y="521.4"/>
      <point x="923.5999999999999" y="521.4" type="curve" smooth="yes"/>
      <point x="798.8000000000001" y="521.4"/>
      <point x="730.5999999999999" y="626.5999999999999"/>
      <point x="750.1999999999999" y="745.4" type="curve" smooth="yes"/>
      <point x="771.5999999999999" y="878.0"/>
      <point x="896.0" y="968.0"/>
      <point x="1019.4" y="968.0" type="curve" smooth="yes"/>
      <point x="1117.2" y="968.0"/>
      <point x="1176.6000000000001" y="911.6"/>
      <point x="1179.6000000000001" y="828.8" type="curve"/>
      <point x="1382.4" y="828.8" type="line"/>
      <point x="1389.2" y="1018.2"/>
      <point x="1243.6" y="1162.2"/>
      <point x="1042.3999999999999" y="1162.2" type="curve" smooth="yes"/>
      <point x="811.8000000000001" y="1162.2"/>
      <point x="594.0" y="975.0"/>
    </contour>
    <component base="whiteCircle" xOffset="0.6"/>
  </outline>
</glyph>
<glyph name="ordfeminine" format="2">
  <advance height="2479.0" width="971.4"/>
  <unicode hex="00AA"/>
  <outline>
    <contour>
      <point x="659.0" y="861.0" type="line"/>
      <point x="650.6" y="806.6"/>
      <point x="651.8" y="751.0"/>
      <point x="657.2" y="705.8" type="curve"/>
      <point x="838.4" y="705.8" type="line"/>
      <point x="827.4" y="767.4"/>
      <point x="832.4" y="827.8"/>
      <point x="843.2" y="887.0" type="curve" smooth="yes"/>
      <point x="895.6" y="1201.0" type="line"/>
      <point x="924.6" y="1385.0"/>
      <point x="820.2" y="1478.0"/>
      <point x="642.6" y="1478.0" type="curve" smooth="yes"/>
      <point x="451.20000000000005" y="1478.0"/>
      <point x="310.6" y="1379.0"/>
      <point x="287.6" y="1243.8" type="curve"/>
      <point x="460.4" y="1231.0" type="line"/>
      <point x="472.4" y="1295.0"/>
      <point x="530.4" y="1329.0"/>
      <point x="618.6" y="1329.0" type="curve" smooth="yes"/>
      <point x="700.0" y="1329.0"/>
      <point x="729.0" y="1283.6"/>
      <point x="717.0" y="1201.0" type="curve"/>
    </contour>
    <contour>
      <point x="753.2" y="1150.8" type="line"/>
      <point x="605.8" y="1150.8" type="line"/>
      <point x="371.0" y="1150.8"/>
      <point x="241.8" y="1068.0"/>
      <point x="218.8" y="919.0" type="curve" smooth="yes"/>
      <point x="195.8" y="783.0"/>
      <point x="272.0" y="692.0"/>
      <point x="434.4" y="692.0" type="curve" smooth="yes"/>
      <point x="573.8" y="692.0"/>
      <point x="662.0" y="768.6"/>
      <point x="704.2" y="833.8" type="curve"/>
      <point x="704.2" y="951.0" type="line"/>
      <point x="698.2" y="902.0"/>
      <point x="585.4" y="836.8"/>
      <point x="502.6" y="836.8" type="curve" smooth="yes"/>
      <point x="420.4" y="836.8"/>
      <point x="390.2" y="870.0"/>
      <point x="398.2" y="923.8" type="curve" smooth="yes"/>
      <point x="407.2" y="981.8"/>
      <point x="467.6" y="1034.8"/>
      <point x="585.4" y="1034.8" type="curve"/>
      <point x="733.2" y="1034.8" type="line"/>
    </contour>
  </outline>
</glyph>
<glyph name="logicalnot" format="2">
  <advance height="2479.0" width="1159.8"/>
  <unicode hex="00AC"/>
  <outline>
    <contour>
      <point x="1048.4" y="806.0" type="line"/>
      <point x="197.0" y="806.0" type="line"/>
      <point x="168.0" y="634.0" type="line"/>
      <point x="1019.0" y="634.0" type="line"/>
    </contour>
    <contour>
      <point x="1037.0" y="727.0" type="line"/>
      <point x="832.4" y="727.0" type="line"/>
      <point x="774.4" y="375.0" type="line"/>
      <point x="979.0" y="375.0" type="line"/>
    </contour>
  </outline>
</glyph>
<glyph name="registered" format="2">
  <advance height="2479.0" width="1363.8"/>
  <unicode hex="00AE"/>
  <outline>
    <contour>
      <point x="493.8" y="666.0" type="line"/>
      <point x="626.2" y="666.0" type="line"/>
      <point x="698.6" y="1105.2" type="line"/>
      <point x="795.0" y="1105.2" type="line" smooth="yes"/>
      <point x="829.6" y="1105.2"/>
      <point x="866.6" y="1084.6"/>
      <point x="857.8000000000001" y="1027.0" type="curve" smooth="yes"/>
      <point x="849.6" y="971.8"/>
      <point x="804.6" y="943.4"/>
      <point x="767.0" y="943.4" type="curve" smooth="yes"/>
      <point x="613.4000000000001" y="943.4" type="line"/>
      <point x="597.8000000000001" y="846.8" type="line"/>
      <point x="783.0" y="846.8" type="line" smooth="yes"/>
      <point x="876.8" y="846.8"/>
      <point x="978.8" y="911.4"/>
      <point x="999.0" y="1027.0" type="curve" smooth="yes"/>
      <point x="1019.1999999999999" y="1141.6"/>
      <point x="937.8" y="1203.0"/>
      <point x="848.4" y="1203.0" type="curve" smooth="yes"/>
      <point x="582.8" y="1203.0" type="line"/>
    </contour>
    <contour>
      <point x="872.4000000000001" y="915.8" type="line"/>
      <point x="733.4" y="915.8" type="line"/>
      <point x="811.6" y="666.0" type="line"/>
      <point x="956.6" y="666.0" type="line"/>
    </contour>
    <contour>
      <point x="743.2" y="346.0" type="curve" smooth="yes"/>
      <point x="1064.3999999999999" y="346.0"/>
      <point x="1324.6" y="607.0"/>
      <point x="1324.6" y="928.0" type="curve" smooth="yes"/>
      <point x="1325.1999999999998" y="1249.0"/>
      <point x="1063.6000000000001" y="1510.0"/>
      <point x="743.2" y="1510.0" type="curve" smooth="yes"/>
      <point x="421.0" y="1510.0"/>
      <point x="160.6" y="1249.0"/>
      <point x="161.2" y="928.0" type="curve" smooth="yes"/>
      <point x="161.79999999999998" y="607.0"/>
      <point x="421.0" y="346.0"/>
    </contour>
    <contour>
      <point x="743.2" y="495.2" type="curve" smooth="yes"/>
      <point x="503.8" y="495.2"/>
      <point x="309.8" y="689.2"/>
      <point x="309.8" y="928.0" type="curve" smooth="yes"/>
      <point x="310.40000000000003" y="1166.8"/>
      <point x="503.8" y="1360.8"/>
      <point x="743.2" y="1360.8" type="curve" smooth="yes"/>
      <point x="981.4" y="1360.8"/>
      <point x="1175.4" y="1166.8"/>
      <point x="1176.0" y="928.0" type="curve" smooth="yes"/>
      <point x="1176.6" y="689.1999999999999"/>
      <point x="982.1999999999999" y="495.2"/>
    </contour>
  </outline>
</glyph>
<glyph name="macron" format="2">
  <advance height="2479.0" width="1078.6000000000001"/>
  <unicode hex="00AF"/>
  <anchor x="662.4" y="1303.0" name="_top"/>
  <outline>
    <contour>
      <point x="1042.4" y="1489.0" type="line"/>
      <point x="341.8" y="1489.0" type="line"/>
      <point x="316.4" y="1328.8" type="line"/>
      <point x="1017.0" y="1328.8" type="line"/>
    </contour>
  </outline>
</glyph>
<glyph name="degree" format="2">
  <advance height="2479.0" width="937.8"/>
  <unicode hex="00B0"/>
  <outline>
    <contour>
      <point x="566.4" y="800.4" type="curve" smooth="yes"/>
      <point x="759.8" y="800.4"/>
      <point x="916.0" y="957.2"/>
      <point x="916.0" y="1150.6" type="curve" smooth="yes"/>
      <point x="916.0" y="1343.4"/>
      <point x="759.8" y="1499.8"/>
      <point x="566.4" y="1499.8" type="curve" smooth="yes"/>
      <point x="373.0" y="1499.8"/>
      <point x="216.6" y="1343.4"/>
      <point x="216.6" y="1150.6" type="curve" smooth="yes"/>
      <point x="216.6" y="957.2"/>
      <point x="373.0" y="800.4"/>
    </contour>
    <contour>
      <point x="566.4" y="986.6" type="curve" smooth="yes"/>
      <point x="475.8" y="986.6"/>
      <point x="403.0" y="1060.0"/>
      <point x="403.0" y="1150.6" type="curve" smooth="yes"/>
      <point x="403.0" y="1240.6"/>
      <point x="475.8" y="1314.0"/>
      <point x="566.4" y="1314.0" type="curve" smooth="yes"/>
      <point x="657.0" y="1314.0"/>
      <point x="729.8000000000001" y="1240.6"/>
      <point x="729.8000000000001" y="1150.6" type="curve" smooth="yes"/>
      <point x="729.8000000000001" y="1060.0"/>
      <point x="657.0" y="986.6"/>
    </contour>
  </outline>
</glyph>
<glyph name="plusminus" format="2">
  <advance height="2479.0" width="1378.0"/>
  <unicode hex="00B1"/>
  <outline>
    <contour>
      <point x="108.60000000000001" y="60.8" type="line"/>
      <point x="1104.0" y="60.8" type="line"/>
      <point x="1139.2" y="279.4" type="line"/>
      <point x="144.20000000000002" y="279.4" type="line"/>
    </contour>
    <contour>
      <point x="208.8" y="659.4" type="line"/>
      <point x="1203.8" y="659.4" type="line"/>
      <point x="1239.4" y="873.6" type="line"/>
      <point x="244.4" y="873.6" type="line"/>
    </contour>
    <contour>
      <point x="547.4" y="393.4" type="line"/>
      <point x="775.1999999999999" y="393.4" type="line"/>
      <point x="899.4" y="1140.2" type="line"/>
      <point x="671.8000000000001" y="1140.2" type="line"/>
    </contour>
  </outline>
</glyph>
<glyph name="twosuperior" format="2">
  <advance height="2479.0" width="862.8"/>
  <unicode hex="00B2"/>
  <anchor x="721.0" y="1227.0" name="cross"/>
  <outline>
    <contour>
      <point x="123.0" y="745.0" type="line"/>
      <point x="820.6" y="745.0" type="line"/>
      <point x="846.2" y="909.0" type="line"/>
      <point x="437.59999999999997" y="909.0" type="line"/>
      <point x="438.4" y="916.2" type="line"/>
      <point x="611.8000000000001" y="1034.8" type="line" smooth="yes"/>
      <point x="815.4000000000001" y="1165.6000000000001"/>
      <point x="886.6" y="1253.2"/>
      <point x="904.6" y="1367.4" type="curve" smooth="yes"/>
      <point x="927.6" y="1523.2"/>
      <point x="819.0" y="1649.0"/>
      <point x="605.0" y="1649.0" type="curve" smooth="yes"/>
      <point x="399.6" y="1649.0"/>
      <point x="239.6" y="1533.0"/>
      <point x="212.4" y="1357.8" type="curve"/>
      <point x="407.20000000000005" y="1357.8" type="line"/>
      <point x="422.20000000000005" y="1444.0"/>
      <point x="498.8" y="1490.4"/>
      <point x="586.2" y="1490.4" type="curve" smooth="yes"/>
      <point x="676.2" y="1490.4"/>
      <point x="734.6" y="1445.8"/>
      <point x="722.0" y="1370.4" type="curve" smooth="yes"/>
      <point x="710.0" y="1301.0"/>
      <point x="647.8000000000001" y="1255.2"/>
      <point x="545.8000000000001" y="1179.4" type="curve" smooth="yes"/>
      <point x="144.79999999999998" y="889.6" type="line"/>
    </contour>
  </outline>
</glyph>
<glyph name="threesuperior" format="2">
  <advance height="2479.0" width="895.0"/>
  <unicode hex="00B3"/>
  <outline>
    <contour>
      <point x="484.4" y="733.0" type="curve" smooth="yes"/>
      <point x="703.0" y="733.0"/>
      <point x="871.0" y="835.6"/>
      <point x="896.2" y="988.4" type="curve" smooth="yes"/>
      <point x="913.2" y="1103.2"/>
      <point x="838.8000000000001" y="1187.6"/>
      <point x="707.8" y="1202.8" type="curve"/>
      <point x="707.8" y="1210.0" type="line"/>
      <point x="827.4" y="1227.3999999999999"/>
      <point x="907.8000000000001" y="1281.8000000000002"/>
      <point x="924.6" y="1383.8000000000002" type="curve" smooth="yes"/>
      <point x="947.6" y="1528.0"/>
      <point x="833.4000000000001" y="1649.0"/>
      <point x="620.8" y="1649.0" type="curve" smooth="yes"/>
      <point x="430.4" y="1649.0"/>
      <point x="262.0" y="1544.3999999999999"/>
      <point x="233.0" y="1386.2" type="curve"/>
      <point x="426.6" y="1386.2" type="line"/>
      <point x="438.6" y="1451.2"/>
      <point x="532.6" y="1490.4"/>
      <point x="615.8000000000001" y="1490.4" type="curve" smooth="yes"/>
      <point x="708.2" y="1490.4"/>
      <point x="742.4" y="1451.8"/>
      <point x="731.6" y="1391.0" type="curve" smooth="yes"/>
      <point x="719.6" y="1328.3999999999999"/>
      <point x="643.6" y="1274.8"/>
      <point x="542.8000000000001" y="1274.8" type="curve" smooth="yes"/>
      <point x="454.6" y="1274.8" type="line"/>
      <point x="432.20000000000005" y="1125.8" type="line"/>
      <point x="527.2" y="1125.8" type="line" smooth="yes"/>
      <point x="641.8" y="1125.8"/>
      <point x="702.6" y="1089.2"/>
      <point x="690.6" y="1019.8" type="curve" smooth="yes"/>
      <point x="678.0" y="951.2"/>
      <point x="594.8000000000001" y="900.0"/>
      <point x="491.59999999999997" y="900.0" type="curve" smooth="yes"/>
      <point x="401.8" y="900.0"/>
      <point x="341.40000000000003" y="938.4"/>
      <point x="349.8" y="1000.6" type="curve"/>
      <point x="148.4" y="1000.6" type="line"/>
      <point x="125.4" y="842.2"/>
      <point x="264.4" y="733.0"/>
    </contour>
  </outline>
</glyph>
<glyph name="acute" format="2">
  <advance height="2479.0" width="1018.0"/>
  <unicode hex="00B4"/>
  <anchor x="618.6" y="1303.0" name="_top"/>
  <anchor x="694.0" y="1676.0" name="top"/>
  <outline>
    <contour>
      <point x="511.00000000000006" y="1263.6" type="line"/>
      <point x="707.6" y="1263.6" type="line"/>
      <point x="986.6" y="1596.8" type="line"/>
      <point x="728.8" y="1596.8" type="line"/>
    </contour>
  </outline>
</glyph>
<glyph name="micro" format="2">
  <advance height="2479.0" width="1334.4"/>
  <unicode hex="00B5"/>
  <outline>
    <contour>
      <point x="-25.6" y="-409.8" type="line"/>
      <point x="230.00000000000003" y="-409.8" type="line"/>
      <point x="325.40000000000003" y="161.2" type="line"/>
      <point x="333.8" y="161.2" type="line"/>
      <point x="366.8" y="58.6"/>
      <point x="459.79999999999995" y="-1.0"/>
      <point x="573.8" y="-1.0" type="curve" smooth="yes"/>
      <point x="690.8" y="-1.0"/>
      <point x="801.8000000000001" y="58.6"/>
      <point x="870.5999999999999" y="161.2" type="curve"/>
      <point x="879.0" y="161.2" type="line"/>
      <point x="850.8000000000001" y="0.0" type="line"/>
      <point x="1106.8" y="0.0" type="line"/>
      <point x="1292.8" y="1117.0" type="line"/>
      <point x="1029.3999999999999" y="1117.0" type="line"/>
      <point x="921.1999999999999" y="469.8" type="line" smooth="yes"/>
      <point x="897.0" y="319.20000000000005"/>
      <point x="771.6" y="215.0"/>
      <point x="610.8" y="215.0" type="curve" smooth="yes"/>
      <point x="450.8" y="215.0"/>
      <point x="359.2" y="319.2"/>
      <point x="383.40000000000003" y="469.8" type="curve" smooth="yes"/>
      <point x="491.6" y="1117.0" type="line"/>
      <point x="228.0" y="1117.0" type="line"/>
    </contour>
  </outline>
</glyph>
<glyph name="paragraph" format="2">
  <advance height="2479.0" width="1242.0"/>
  <unicode hex="00B6"/>
  <outline>
    <contour>
      <point x="1120.8" y="1277.0" type="line"/>
      <point x="1157.0" y="1489.0" type="line"/>
      <point x="758.4" y="1489.0" type="line" smooth="yes"/>
      <point x="434.59999999999997" y="1489.0"/>
      <point x="225.8" y="1289.0"/>
      <point x="179.20000000000002" y="1021.0" type="curve" smooth="yes"/>
      <point x="135.8" y="751.0"/>
      <point x="280.2" y="553.0"/>
      <point x="604.4" y="553.0" type="curve" smooth="yes"/>
      <point x="690.2" y="553.0" type="line"/>
      <point x="809.0" y="1277.0" type="line"/>
    </contour>
    <contour>
      <point x="777.6" y="0.0" type="line"/>
      <point x="1001.6" y="0.0" type="line"/>
      <point x="1249.0" y="1489.0" type="line"/>
      <point x="1024.6" y="1489.0" type="line"/>
    </contour>
  </outline>
</glyph>
<glyph name="cedilla" format="2">
  <advance height="2479.0" width="693.4"/>
  <unicode hex="00B8"/>
  <anchor x="257.2" y="0.0" name="_cedilla"/>
  <outline>
    <contour>
      <point x="186.6" y="6.0" type="line"/>
      <point x="129.20000000000002" y="-140.2" type="line"/>
      <point x="231.79999999999998" y="-151.0"/>
      <point x="274.0" y="-175.79999999999998"/>
      <point x="262.6" y="-238.0" type="curve" smooth="yes"/>
      <point x="249.39999999999998" y="-301.40000000000003"/>
      <point x="175.0" y="-329.8"/>
      <point x="63.8" y="-329.8" type="curve"/>
      <point x="45.0" y="-459.6" type="line"/>
      <point x="274.59999999999997" y="-459.6"/>
      <point x="418.59999999999997" y="-369.0"/>
      <point x="439.8" y="-230.8" type="curve" smooth="yes"/>
      <point x="459.0" y="-125.80000000000001"/>
      <point x="395.59999999999997" y="-70.0"/>
      <point x="306.2" y="-55.6" type="curve"/>
      <point x="329.2" y="6.0" type="line"/>
    </contour>
  </outline>
</glyph>
<glyph name="onesuperior" format="2">
  <advance height="2479.0" width="651.8"/>
  <unicode hex="00B9"/>
  <outline>
    <contour>
      <point x="332.6" y="745.0" type="line"/>
      <point x="524.4" y="745.0" type="line"/>
      <point x="673.4" y="1638.0" type="line"/>
      <point x="489.0" y="1638.0" type="line"/>
      <point x="230.4" y="1487.8" type="line"/>
      <point x="200.4" y="1309.4" type="line"/>
      <point x="443.6" y="1449.4" type="line"/>
      <point x="449.40000000000003" y="1449.4" type="line"/>
    </contour>
  </outline>
</glyph>
<glyph name="ordmasculine" format="2">
  <advance height="2479.0" width="967.8"/>
  <unicode hex="00BA"/>
  <outline>
    <contour>
      <point x="212.6" y="1044.0" type="line"/>
      <point x="177.6" y="838.0"/>
      <point x="289.4" y="690.8"/>
      <point x="509.2" y="690.8" type="curve" smooth="yes"/>
      <point x="726.0" y="690.8"/>
      <point x="883.6" y="838.0"/>
      <point x="918.6" y="1044.0" type="curve"/>
      <point x="930.2" y="1121.8" type="line"/>
      <point x="965.2" y="1329.0"/>
      <point x="854.0" y="1478.0"/>
      <point x="635.4" y="1478.0" type="curve" smooth="yes"/>
      <point x="419.8" y="1478.0"/>
      <point x="258.6" y="1329.0"/>
      <point x="224.2" y="1121.8" type="curve"/>
    </contour>
    <contour>
      <point x="401.8" y="1121.8" type="line"/>
      <point x="422.2" y="1237.8"/>
      <point x="496.0" y="1329.0"/>
      <point x="612.4" y="1329.0" type="curve" smooth="yes"/>
      <point x="730.8" y="1329.0"/>
      <point x="773.0" y="1237.8"/>
      <point x="752.0" y="1121.8" type="curve"/>
      <point x="741.0" y="1044.0" type="line"/>
      <point x="720.0" y="925.0"/>
      <point x="649.4" y="838.0"/>
      <point x="533.4" y="838.0" type="curve" smooth="yes"/>
      <point x="415.0" y="838.0"/>
      <point x="369.8" y="925.0"/>
      <point x="390.2" y="1044.0" type="curve"/>
    </contour>
  </outline>
</glyph>
<glyph name="AE" format="2">
  <advance height="2479.0" width="2082.4"/>
  <unicode hex="00C6"/>
  <anchor x="1521.6" y="1676.0" name="top"/>
  <outline>
    <contour>
      <point x="-43.4" y="0.0" type="line"/>
      <point x="253.8" y="0.0" type="line"/>
      <point x="991.2" y="1229.0" type="line"/>
      <point x="1095.8" y="1229.0" type="line"/>
      <point x="891.2" y="0.0" type="line"/>
      <point x="1866.2" y="0.0" type="line"/>
      <point x="1903.8" y="226.4" type="line"/>
      <point x="1199.3999999999999" y="226.4" type="line"/>
      <point x="1265.8" y="632.4" type="line"/>
      <point x="1914.6000000000001" y="632.4" type="line"/>
      <point x="1952.6000000000001" y="858.8" type="line"/>
      <point x="1303.8" y="858.8" type="line"/>
      <point x="1370.8" y="1263.0" type="line"/>
      <point x="2069.6" y="1263.0" type="line"/>
      <point x="2107.2" y="1489.0" type="line"/>
      <point x="870.0" y="1489.0" type="line"/>
    </contour>
    <contour>
      <point x="352.6" y="367.2" type="line"/>
      <point x="1103.0" y="367.2" type="line"/>
      <point x="1139.8" y="584.4" type="line"/>
      <point x="389.0" y="584.4" type="line"/>
    </contour>
  </outline>
</glyph>
<glyph name="multiply" format="2">
  <advance height="2479.0" width="1378.0"/>
  <unicode hex="00D7"/>
  <outline>
    <contour>
      <point x="954.5999999999999" y="82.4" type="line"/>
      <point x="1140.0" y="241.2" type="line"/>
      <point x="429.0" y="1094.6000000000001" type="line"/>
      <point x="243.0" y="934.6" type="line"/>
    </contour>
    <contour>
      <point x="275.4" y="84.2" type="line"/>
      <point x="1255.8" y="922.0" type="line"/>
      <point x="1113.0" y="1092.8000000000002" type="line"/>
      <point x="132.6" y="253.8" type="line"/>
    </contour>
  </outline>
</glyph>
<glyph name="Oslash" format="2">
  <advance height="2479.0" width="1587.0"/>
  <unicode hex="00D8"/>
  <anchor x="706.6" y="1.7999999999999998" name="bottom"/>
  <anchor x="876.4" y="0.6000000000000005" name="ogonek"/>
  <anchor x="327.20000000000005" y="1487.2" name="tonos"/>
  <anchor x="977.6" y="1674.2" name="top"/>
  <outline>
    <contour>
      <point x="307.59999999999997" y="-68.2" type="line"/>
      <point x="1465.6" y="1465.2" type="line"/>
      <point x="1341.0" y="1554.8" type="line"/>
      <point x="183.6" y="21.8" type="line"/>
    </contour>
    <component base="O" xOffset="-0.6" yOffset="-1.7999999999999998"/>
  </outline>
</glyph>
<glyph name="Thorn" format="2">
  <advance height="2479.0" width="1346.4"/>
  <unicode hex="00DE"/>
  <outline>
    <contour>
      <point x="295.0" y="1489.0" type="line"/>
      <point x="48.0" y="0.0" type="line"/>
      <point x="317.6" y="0.0" type="line"/>
      <point x="564.6" y="1489.0" type="line"/>
    </contour>
    <contour>
      <point x="372.6" y="1204.2" type="line"/>
      <point x="337.0" y="988.6" type="line"/>
      <point x="723.4000000000001" y="988.6" type="line" smooth="yes"/>
      <point x="911.0" y="988.6"/>
      <point x="984.4" y="889.0"/>
      <point x="962.2" y="755.4" type="curve" smooth="yes"/>
      <point x="939.2" y="622.8"/>
      <point x="835.6" y="528.0"/>
      <point x="647.4000000000001" y="528.0" type="curve" smooth="yes"/>
      <point x="261.0" y="528.0" type="line"/>
      <point x="225.4" y="313.2" type="line"/>
      <point x="611.8000000000001" y="313.2" type="line" smooth="yes"/>
      <point x="956.8000000000001" y="313.2"/>
      <point x="1179.0" y="505.2"/>
      <point x="1220.2" y="757.8" type="curve" smooth="yes"/>
      <point x="1263.0" y="1011.0"/>
      <point x="1103.6000000000001" y="1204.2"/>
      <point x="758.6" y="1204.2" type="curve" smooth="yes"/>
    </contour>
  </outline>
</glyph>
<glyph name="germandbls" format="2">
  <advance height="2479.0" width="1316.4"/>
  <unicode hex="00DF"/>
  <outline>
    <contour>
      <point x="53.400000000000006" y="0.0" type="line"/>
      <point x="317.0" y="0.0" type="line"/>
      <point x="494.4" y="1069.6" type="line" smooth="yes"/>
      <point x="515.4" y="1198.2"/>
      <point x="622.8000000000001" y="1283.6"/>
      <point x="760.2" y="1283.6" type="curve" smooth="yes"/>
      <point x="898.6" y="1283.6"/>
      <point x="967.8" y="1193.0"/>
      <point x="947.8000000000001" y="1074.4" type="curve" smooth="yes"/>
      <point x="928.4" y="961.4"/>
      <point x="836.4" y="862.4"/>
      <point x="717.0" y="862.4" type="curve" smooth="yes"/>
      <point x="634.4000000000001" y="862.4" type="line"/>
      <point x="599.4000000000001" y="647.0" type="line"/>
      <point x="720.0" y="647.0" type="line" smooth="yes"/>
      <point x="876.8000000000001" y="647.0"/>
      <point x="961.0" y="559.2"/>
      <point x="940.2" y="430.0" type="curve" smooth="yes"/>
      <point x="921.0" y="305.4"/>
      <point x="815.4" y="221.6"/>
      <point x="674.8" y="221.6" type="curve" smooth="yes"/>
      <point x="521.6" y="221.6" type="line"/>
      <point x="485.20000000000005" y="0.0" type="line"/>
      <point x="670.2" y="0.0" type="line" smooth="yes"/>
      <point x="946.8000000000001" y="0.0"/>
      <point x="1159.6000000000001" y="154.8"/>
      <point x="1203.6000000000001" y="410.0" type="curve" smooth="yes"/>
      <point x="1238.6" y="620.0"/>
      <point x="1135.3999999999999" y="764.6"/>
      <point x="945.2" y="779.6" type="curve"/>
      <point x="948.2" y="795.2" type="line"/>
      <point x="1089.6" y="836.6"/>
      <point x="1196.2" y="949.2"/>
      <point x="1221.0" y="1113.2" type="curve" smooth="yes"/>
      <point x="1261.8000000000002" y="1369.8"/>
      <point x="1065.2" y="1510.0"/>
      <point x="788.8" y="1510.0" type="curve" smooth="yes"/>
      <point x="498.8" y="1510.0"/>
      <point x="278.0" y="1356.6"/>
      <point x="235.8" y="1100.0" type="curve" smooth="yes"/>
    </contour>
  </outline>
</glyph>
<glyph name="ae" format="2">
  <advance height="2479.0" width="1907.6"/>
  <unicode hex="00E6"/>
  <anchor x="1048.0" y="1303.0" name="top"/>
  <outline>
    <contour>
      <point x="1212.2" y="-21.8" type="curve"/>
      <point x="1456.2" y="-21.8"/>
      <point x="1658.2" y="105.2"/>
      <point x="1738.4" y="299.8" type="curve"/>
      <point x="1497.3999999999999" y="327.4" type="line"/>
      <point x="1445.0" y="232.2"/>
      <point x="1350.2" y="183.4"/>
      <point x="1237.0" y="183.4" type="curve" smooth="yes"/>
      <point x="1065.2" y="183.4"/>
      <point x="971.8" y="298.6"/>
      <point x="1003.1999999999999" y="493.6" type="curve" smooth="yes"/>
      <point x="1028.6000000000001" y="648.6" type="line" smooth="yes"/>
      <point x="1054.0" y="796.8"/>
      <point x="1182.8000000000002" y="925.8"/>
      <point x="1346.1999999999998" y="925.8" type="curve"/>
      <point x="1497.3999999999999" y="925.8"/>
      <point x="1580.6000000000001" y="816.0"/>
      <point x="1555.8" y="664.2" type="curve"/>
      <point x="907.8" y="664.2" type="line"/>
      <point x="879.4" y="486.0" type="line"/>
      <point x="1780.0" y="486.0" type="line"/>
      <point x="1793.2" y="567.4" type="line" smooth="yes"/>
      <point x="1858.4" y="958.6"/>
      <point x="1652.0" y="1132.0"/>
      <point x="1377.0" y="1132.0" type="curve" smooth="yes"/>
      <point x="1189.8" y="1132.0"/>
      <point x="1037.2" y="1048.4"/>
      <point x="924.8" y="884.2" type="curve"/>
      <point x="818.0" y="261.0" type="line"/>
      <point x="840.0" y="85.4"/>
      <point x="991.4" y="-21.8"/>
    </contour>
    <contour>
      <point x="460.19999999999993" y="171.2" type="curve" smooth="yes"/>
      <point x="350.59999999999997" y="171.2"/>
      <point x="281.40000000000003" y="221.8"/>
      <point x="297.6" y="317.6" type="curve" smooth="yes"/>
      <point x="313.2" y="419.4"/>
      <point x="409.6" y="461.2"/>
      <point x="530.1999999999999" y="477.4" type="curve" smooth="yes"/>
      <point x="599.0" y="487.6"/>
      <point x="741.0" y="504.6"/>
      <point x="779.6" y="532.2" type="curve"/>
      <point x="758.0" y="400.8" type="line" smooth="yes"/>
      <point x="737.4" y="276.6"/>
      <point x="618.6" y="171.2"/>
    </contour>
    <contour>
      <point x="372.4" y="-22.4" type="curve" smooth="yes"/>
      <point x="563.8000000000001" y="-22.4"/>
      <point x="752.8000000000001" y="65.0"/>
      <point x="827.6" y="190.0" type="curve"/>
      <point x="845.2" y="190.0" type="line"/>
      <point x="1014.2" y="925.4" type="line"/>
      <point x="981.0" y="1092.2"/>
      <point x="824.4000000000001" y="1132.0"/>
      <point x="692.6" y="1132.0" type="curve" smooth="yes"/>
      <point x="452.8" y="1132.0"/>
      <point x="254.8" y="1026.6"/>
      <point x="163.4" y="823.2" type="curve"/>
      <point x="402.0" y="788.4" type="line"/>
      <point x="441.8" y="865.0"/>
      <point x="527.4" y="930.0"/>
      <point x="655.6" y="930.0" type="curve" smooth="yes"/>
      <point x="777.8" y="930.0"/>
      <point x="833.4000000000001" y="866.8000000000001"/>
      <point x="816.0" y="757.8" type="curve" smooth="yes"/>
      <point x="816.0" y="753.6" type="line" smooth="yes"/>
      <point x="803.2" y="678.8"/>
      <point x="723.0" y="674.4"/>
      <point x="522.5999999999999" y="652.8" type="curve" smooth="yes"/>
      <point x="301.59999999999997" y="630.4"/>
      <point x="84.39999999999999" y="565.0"/>
      <point x="41.99999999999999" y="313.4" type="curve" smooth="yes"/>
      <point x="5.7999999999999945" y="94.2"/>
      <point x="147.0" y="-22.4"/>
    </contour>
  </outline>
</glyph>
<glyph name="eth" format="2">
  <advance height="2479.0" width="1215.4"/>
  <unicode hex="00F0"/>
  <outline>
    <contour>
      <point x="1098.0" y="1407.4" type="line"/>
      <point x="1089.6" y="1536.8" type="line"/>
      <point x="382.6" y="1209.2" type="line"/>
      <point x="389.2" y="1080.2" type="line"/>
    </contour>
    <contour>
      <point x="508.59999999999997" y="-23.0" type="curve" smooth="yes"/>
      <point x="828.5999999999999" y="-23.0"/>
      <point x="1069.0" y="201.6"/>
      <point x="1128.2" y="564.6" type="curve" smooth="yes"/>
      <point x="1214.6" y="1088.0"/>
      <point x="877.8" y="1447.2"/>
      <point x="493.40000000000003" y="1575.4" type="curve"/>
      <point x="423.0" y="1424.0" type="line"/>
      <point x="691.4000000000001" y="1294.2"/>
      <point x="856.1999999999999" y="1085.4"/>
      <point x="908.4" y="887.2" type="curve"/>
      <point x="893.6" y="887.2" type="line"/>
      <point x="851.8" y="962.6"/>
      <point x="764.6" y="1038.2"/>
      <point x="618.6" y="1038.2" type="curve" smooth="yes"/>
      <point x="356.2" y="1038.2"/>
      <point x="129.6" y="815.0"/>
      <point x="79.4" y="512.0" type="curve" smooth="yes"/>
      <point x="28.400000000000006" y="196.2"/>
      <point x="195.39999999999998" y="-23.0"/>
    </contour>
    <contour>
      <point x="548.6" y="186.2" type="curve" smooth="yes"/>
      <point x="367.0" y="186.2"/>
      <point x="305.4" y="336.8"/>
      <point x="335.4" y="524.4" type="curve" smooth="yes"/>
      <point x="367.2" y="714.1999999999999"/>
      <point x="481.8" y="861.8"/>
      <point x="660.2" y="861.8" type="curve" smooth="yes"/>
      <point x="849.0" y="861.8"/>
      <point x="902.8" y="695.0"/>
      <point x="874.2" y="517.2" type="curve" smooth="yes"/>
      <point x="841.6" y="324.0"/>
      <point x="722.2" y="186.2"/>
    </contour>
  </outline>
</glyph>
<glyph name="divide" format="2">
  <advance height="2479.0" width="1378.0"/>
  <unicode hex="00F7"/>
  <outline>
    <contour>
      <point x="1206.8" y="700.2" type="line"/>
      <point x="217.79999999999998" y="700.2" type="line"/>
      <point x="182.2" y="481.6" type="line"/>
      <point x="1171.6000000000001" y="481.6" type="line"/>
    </contour>
    <contour>
      <point x="616.6" y="36.4" type="curve" smooth="yes"/>
      <point x="695.8" y="36.4"/>
      <point x="771.4" y="100.0"/>
      <point x="784.0" y="181.0" type="curve" smooth="yes"/>
      <point x="798.4" y="276.6"/>
      <point x="734.5999999999999" y="355.8"/>
      <point x="640.8" y="355.8" type="curve" smooth="yes"/>
      <point x="559.0" y="355.8"/>
      <point x="483.40000000000003" y="292.40000000000003"/>
      <point x="471.40000000000003" y="213.6" type="curve" smooth="yes"/>
      <point x="456.40000000000003" y="115.8"/>
      <point x="519.8000000000001" y="36.4"/>
    </contour>
    <contour>
      <point x="748.8" y="826.6" type="curve" smooth="yes"/>
      <point x="828.0" y="826.6"/>
      <point x="901.8" y="890.6"/>
      <point x="914.6" y="971.6" type="curve" smooth="yes"/>
      <point x="929.6" y="1067.2"/>
      <point x="865.6" y="1146.0"/>
      <point x="771.8" y="1146.0" type="curve" smooth="yes"/>
      <point x="689.6" y="1146.0"/>
      <point x="614.6" y="1083.6000000000001"/>
      <point x="600.6" y="1004.4" type="curve" smooth="yes"/>
      <point x="583.8000000000001" y="907.6"/>
      <point x="652.0" y="826.6"/>
    </contour>
  </outline>
</glyph>
<glyph name="oslash" format="2">
  <advance height="2479.0" width="1245.2"/>
  <unicode hex="00F8"/>
  <anchor x="530.2" y="0.0" name="bottom"/>
  <anchor x="673.4" y="0.0" name="ogonek"/>
  <anchor x="745.8000000000001" y="1303.0" name="top"/>
  <outline>
    <contour>
      <point x="187.8" y="-68.2" type="line"/>
      <point x="1172.2" y="1086.8" type="line"/>
      <point x="1056.6000000000001" y="1176.2" type="line"/>
      <point x="70.00000000000001" y="21.8" type="line"/>
    </contour>
    <component base="o"/>
  </outline>
</glyph>
<glyph name="thorn" format="2">
  <advance height="2479.0" width="1252.8"/>
  <unicode hex="00FE"/>
  <outline>
    <contour>
      <point x="289.0" y="1489.0" type="line"/>
      <point x="-28.0" y="-419.0" type="line"/>
      <point x="235.60000000000002" y="-419.0" type="line"/>
      <point x="341.8" y="216.2" type="line"/>
      <point x="311.2" y="553.6" type="line"/>
      <point x="454.8" y="892.8" type="line"/>
      <point x="552.6" y="1489.0" type="line"/>
    </contour>
    <contour>
      <point x="361.40000000000003" y="972.4" type="line"/>
      <point x="223.00000000000003" y="139.2" type="line"/>
      <point x="341.8" y="139.2" type="line"/>
      <point x="370.0" y="65.4"/>
      <point x="440.79999999999995" y="-19.8"/>
      <point x="606.6" y="-19.8" type="curve" smooth="yes"/>
      <point x="867.6" y="-19.8"/>
      <point x="1102.6" y="188.2"/>
      <point x="1163.0" y="557.2" type="curve" smooth="yes"/>
      <point x="1224.6" y="930.0"/>
      <point x="1053.6" y="1132.0"/>
      <point x="798.0" y="1132.0" type="curve" smooth="yes"/>
      <point x="626.8" y="1132.0"/>
      <point x="530.0" y="1043.2"/>
      <point x="480.6" y="972.4" type="curve"/>
    </contour>
    <contour>
      <point x="910.0" y="559.0" type="curve" smooth="yes"/>
      <point x="874.1999999999999" y="344.4"/>
      <point x="759.0" y="196.2"/>
      <point x="578.4" y="196.2" type="curve" smooth="yes"/>
      <point x="395.0" y="196.2"/>
      <point x="343.40000000000003" y="353.0"/>
      <point x="377.2" y="559.0" type="curve" smooth="yes"/>
      <point x="411.40000000000003" y="764.6"/>
      <point x="514.4000000000001" y="915.4"/>
      <point x="697.2" y="915.4" type="curve" smooth="yes"/>
      <point x="879.6" y="915.4"/>
      <point x="944.1999999999999" y="770.8"/>
    </contour>
  </outline>
</glyph>
<glyph name="dcroat" format="2">
  <advance height="2479.0" width="1292.8"/>
  <unicode hex="0111"/>
  <anchor x="540.2" y="0.0" name="bottom"/>
  <anchor x="1132.8" y="1280.0" name="cross"/>
  <anchor x="1440.4" y="1489.0" name="raccent"/>
  <anchor x="732.8000000000001" y="1489.0" name="top"/>
  <outline>
    <contour>
      <point x="691.6" y="1200.8" type="line"/>
      <point x="1388.8" y="1200.8" type="line"/>
      <point x="1417.8" y="1366.6" type="line"/>
      <point x="720.6" y="1366.6" type="line"/>
    </contour>
    <component base="d"/>
  </outline>
</glyph>
<glyph name="Hbar" format="2">
  <advance height="2479.0" width="1637.4"/>
  <unicode hex="0126"/>
  <anchor x="723.0" y="0.0" name="bottom"/>
  <anchor x="252.0" y="0.0" name="cedilla"/>
  <anchor x="1473.8000000000002" y="103.6" name="cyrtic"/>
  <anchor x="1337.4" y="0.0" name="right"/>
  <anchor x="317.6" y="1489.0" name="tonos"/>
  <anchor x="1007.4" y="1677.8" name="top"/>
  <outline>
    <contour>
      <point x="1662.8" y="1212.2" type="line"/>
      <point x="189.4" y="1212.2" type="line"/>
      <point x="162.20000000000002" y="1044.8" type="line"/>
      <point x="1636.2" y="1044.8" type="line"/>
    </contour>
    <component base="H" xOffset="55.2"/>
  </outline>
</glyph>
<glyph name="idotless" format="2">
  <advance height="2479.0" width="533.6"/>
  <unicode hex="0131"/>
  <anchor x="175.39999999999998" y="0.0" name="bottom"/>
  <anchor x="274.4" y="600.2" name="cross"/>
  <anchor x="305.6" y="0.0" name="ogonek"/>
  <anchor x="391.40000000000003" y="1304.8" name="top"/>
  <outline>
    <contour>
      <point x="42.0" y="0.0" type="line"/>
      <point x="305.6" y="0.0" type="line"/>
      <point x="491.6" y="1117.0" type="line"/>
      <point x="228.0" y="1117.0" type="line"/>
    </contour>
  </outline>
</glyph>
<glyph name="kgreenlandic" format="2">
  <advance height="2479.0" width="1166.4"/>
  <unicode hex="0138"/>
  <outline>
    <contour>
      <point x="341.0" y="350.2" type="line"/>
      <point x="581.4" y="567.4" type="line"/>
      <point x="635.0" y="567.4" type="line"/>
      <point x="1219.8" y="1117.0" type="line"/>
      <point x="912.2" y="1117.0" type="line"/>
      <point x="434.8" y="668.8" type="line"/>
      <point x="392.59999999999997" y="668.8" type="line"/>
    </contour>
    <contour>
      <point x="43.2" y="0.0" type="line"/>
      <point x="306.8" y="0.0" type="line"/>
      <point x="492.40000000000003" y="1117.0" type="line"/>
      <point x="228.4" y="1117.0" type="line"/>
    </contour>
    <contour>
      <point x="744.8000000000001" y="0.0" type="line"/>
      <point x="1059.6000000000001" y="0.0" type="line"/>
      <point x="673.6" y="694.0" type="line"/>
      <point x="465.8" y="508.6" type="line"/>
    </contour>
  </outline>
</glyph>
<glyph name="Lslash" format="2">
  <advance height="2479.0" width="1183.6"/>
  <unicode hex="0141"/>
  <anchor x="545.1999999999999" y="0.0" name="bottom"/>
  <anchor x="359.0" y="776.0" name="cross"/>
  <anchor x="690.6" y="825.6" name="dot"/>
  <anchor x="845.4" y="1489.0" name="raccent"/>
  <anchor x="510.0" y="1676.0" name="top"/>
  <outline>
    <contour>
      <point x="708.4" y="951.8" type="line"/>
      <point x="49.6" y="764.6" type="line"/>
      <point x="36.8" y="606.8" type="line"/>
      <point x="695.5999999999999" y="793.2" type="line"/>
    </contour>
    <component base="L" xOffset="42.0"/>
  </outline>
</glyph>
<glyph name="lslash" format="2">
  <advance height="2479.0" width="533.6"/>
  <unicode hex="0142"/>
  <anchor x="176.0" y="0.0" name="bottom"/>
  <anchor x="303.4" y="768.0" name="cross"/>
  <anchor x="685.8000000000001" y="1489.0" name="raccent"/>
  <anchor x="453.6" y="1676.0" name="top"/>
  <outline>
    <contour>
      <point x="610.4" y="956.6" type="line"/>
      <point x="24.2" y="769.4" type="line"/>
      <point x="-2.4" y="612.2" type="line"/>
      <point x="583.8000000000001" y="799.4" type="line"/>
    </contour>
    <component base="l"/>
  </outline>
</glyph>
<glyph name="Eng" format="2">
  <advance height="2479.0" width="1518.1999999999998"/>
  <unicode hex="014A"/>
  <anchor x="666.4" y="0.0" name="bottom"/>
  <anchor x="1303.4" y="0.0" name="right"/>
  <anchor x="945.4" y="1676.0" name="top"/>
  <outline>
    <contour>
      <point x="1038.0" y="0.0" type="line"/>
      <point x="1023.0" y="-81.19999999999999" type="line" smooth="yes"/>
      <point x="1003.0" y="-183.6"/>
      <point x="929.4" y="-224.8"/>
      <point x="829.8" y="-224.8" type="curve" smooth="yes"/>
      <point x="798.1999999999999" y="-224.8"/>
      <point x="765.4" y="-220.6"/>
      <point x="741.2" y="-215.2" type="curve"/>
      <point x="707.4" y="-420.4" type="line"/>
      <point x="737.0" y="-430.6"/>
      <point x="778.6" y="-434.2"/>
      <point x="813.0" y="-434.2" type="curve" smooth="yes"/>
      <point x="1043.8" y="-434.2"/>
      <point x="1220.8" y="-331.2"/>
      <point x="1262.6" y="-79.4" type="curve" smooth="yes"/>
      <point x="1277.6" y="0.0" type="line"/>
    </contour>
    <component base="N"/>
  </outline>
</glyph>
<glyph name="eng" format="2">
  <advance height="2479.0" width="1252.2"/>
  <unicode hex="014B"/>
  <anchor x="532.8000000000001" y="0.0" name="bottom"/>
  <anchor x="747.8000000000001" y="1303.0" name="top"/>
  <outline>
    <contour>
      <point x="762.1999999999999" y="9.200000000000001" type="line"/>
      <point x="747.6" y="-74.2" type="line" smooth="yes"/>
      <point x="731.4" y="-166.20000000000002"/>
      <point x="670.6" y="-201.0"/>
      <point x="583.6" y="-201.0" type="curve" smooth="yes"/>
      <point x="554.0" y="-201.0"/>
      <point x="527.4" y="-196.8"/>
      <point x="505.0" y="-191.39999999999998" type="curve"/>
      <point x="456.40000000000003" y="-407.6" type="line"/>
      <point x="495.79999999999995" y="-417.8"/>
      <point x="543.0" y="-419.0"/>
      <point x="590.8" y="-419.0" type="curve" smooth="yes"/>
      <point x="803.8" y="-419.0"/>
      <point x="969.4" y="-314.6"/>
      <point x="1011.1999999999999" y="-73.80000000000001" type="curve" smooth="yes"/>
      <point x="1025.6" y="11.200000000000001" type="line"/>
    </contour>
    <component base="n"/>
  </outline>
</glyph>
<glyph name="OE" format="2">
  <advance height="2479.0" width="2040.0"/>
  <unicode hex="0152"/>
  <anchor x="1325.6" y="0.0" name="bottom"/>
  <anchor x="1328.6" y="0.0" name="cedilla"/>
  <anchor x="1823.4" y="0.0" name="ogonek"/>
  <anchor x="1051.8" y="1489.0" name="tonos"/>
  <anchor x="1613.6000000000001" y="1676.0" name="top"/>
  <outline>
    <contour>
      <point x="686.0" y="0.0" type="curve" smooth="yes"/>
      <point x="953.0000000000001" y="0.0" type="line"/>
      <point x="992.8000000000001" y="226.4" type="line"/>
      <point x="725.4" y="226.4" type="line" smooth="yes"/>
      <point x="487.19999999999993" y="226.4"/>
      <point x="351.59999999999997" y="402.8"/>
      <point x="409.0" y="743.8" type="curve" smooth="yes"/>
      <point x="465.0" y="1085.4"/>
      <point x="657.8" y="1263.0"/>
      <point x="895.4" y="1263.0" type="curve" smooth="yes"/>
      <point x="1162.4" y="1263.0" type="line"/>
      <point x="1200.4" y="1489.0" type="line"/>
      <point x="933.6" y="1489.0" type="line" smooth="yes"/>
      <point x="544.0" y="1489.0"/>
      <point x="216.60000000000002" y="1216.2"/>
      <point x="139.6" y="743.8" type="curve" smooth="yes"/>
      <point x="62.0" y="274.4"/>
      <point x="297.0" y="0.0"/>
    </contour>
    <component base="E" xOffset="795.4"/>
  </outline>
</glyph>
<glyph name="tbar" format="2">
  <advance height="2479.0" width="779.0"/>
  <unicode hex="0167"/>
  <anchor x="337.2" y="0.0" name="bottom"/>
  <anchor x="435.4" y="0.0" name="cedilla"/>
  <anchor x="764.8" y="1562.0" name="raccent"/>
  <anchor x="500.0" y="1510.2" name="top"/>
  <outline>
    <contour>
      <point x="56.400000000000006" y="577.4" type="line"/>
      <point x="698.2" y="577.4" type="line"/>
      <point x="722.4" y="720.6" type="line"/>
      <point x="80.60000000000001" y="720.6" type="line"/>
    </contour>
    <component base="t" xOffset="0.4"/>
  </outline>
</glyph>
<glyph name="Bhook" format="2">
  <advance height="2479.0" width="1729.8"/>
  <unicode hex="0181"/>
  <anchor x="943.6000000000001" y="0.0" name="bottom"/>
  <anchor x="1218.4" y="1676.0" name="top"/>
  <outline>
    <contour>
      <point x="774.6" y="1264.2" type="line"/>
      <point x="811.0" y="1489.0" type="line"/>
      <point x="618.0" y="1489.0" type="line" smooth="yes"/>
      <point x="378.2" y="1489.0"/>
      <point x="208.8" y="1345.2"/>
      <point x="176.8" y="1134.6" type="curve" smooth="yes"/>
      <point x="155.8" y="1004.4" type="line"/>
      <point x="399.2" y="1004.4" type="line"/>
      <point x="411.8" y="1080.2" type="line" smooth="yes"/>
      <point x="425.0" y="1171.2"/>
      <point x="464.2" y="1264.2"/>
      <point x="583.4000000000001" y="1264.2" type="curve" smooth="yes"/>
    </contour>
    <component base="B" xOffset="383.8"/>
  </outline>
</glyph>
<glyph name="Btopbar" format="2">
  <advance height="2479.0" width="1340.2"/>
  <unicode hex="0182"/>
  <outline>
    <contour>
      <point x="53.400000000000006" y="0.0" type="line"/>
      <point x="611.2" y="0.0" type="line" smooth="yes"/>
      <point x="954.2" y="0.0"/>
      <point x="1189.8" y="189.6"/>
      <point x="1235.0" y="463.4" type="curve" smooth="yes"/>
      <point x="1280.6" y="737.6"/>
      <point x="1105.2" y="914.0"/>
      <point x="762.4000000000001" y="914.0" type="curve" smooth="yes"/>
      <point x="475.20000000000005" y="914.0" type="line"/>
      <point x="533.0" y="1263.0" type="line"/>
      <point x="1221.0" y="1263.0" type="line"/>
      <point x="1258.6" y="1489.0" type="line"/>
      <point x="301.0" y="1489.0" type="line"/>
    </contour>
    <contour>
      <point x="360.40000000000003" y="221.0" type="line"/>
      <point x="438.8" y="694.8" type="line"/>
      <point x="726.0" y="694.8" type="line" smooth="yes"/>
      <point x="907.0" y="694.8"/>
      <point x="989.6" y="593.0"/>
      <point x="968.4" y="466.4" type="curve" smooth="yes"/>
      <point x="946.8" y="336.6"/>
      <point x="828.4" y="221.0"/>
      <point x="647.6" y="221.0" type="curve" smooth="yes"/>
    </contour>
  </outline>
</glyph>
<glyph name="btopbar" format="2">
  <advance height="2479.0" width="1291.0"/>
  <unicode hex="0183"/>
  <anchor x="548.8" y="0.0" name="bottom"/>
  <anchor x="397.4" y="1280.0" name="cross"/>
  <anchor x="863.4" y="1303.0" name="top"/>
  <outline>
    <contour>
      <point x="1200.0" y="1489.0" type="line"/>
      <point x="471.4" y="1489.0" type="line"/>
      <point x="435.2" y="1287.4" type="line"/>
      <point x="1167.2" y="1287.4" type="line"/>
    </contour>
    <component base="b"/>
  </outline>
</glyph>
<glyph name="Tonesix" format="2">
  <advance height="2479.0" width="1558.6"/>
  <unicode hex="0184"/>
  <outline>
    <contour>
      <point x="769.2" y="1489.0" type="line"/>
      <point x="178.2" y="1489.0" type="line"/>
      <point x="140.0" y="1263.0" type="line"/>
      <point x="731.6" y="1263.0" type="line"/>
    </contour>
    <contour>
      <point x="618.2" y="914.0" type="line"/>
      <point x="581.4" y="694.8" type="line"/>
      <point x="959.4000000000001" y="694.8" type="line"/>
      <point x="1139.4" y="694.8"/>
      <point x="1222.0" y="593.0"/>
      <point x="1201.8" y="466.4" type="curve"/>
      <point x="1179.8" y="336.6"/>
      <point x="1061.0" y="221.0"/>
      <point x="881.0" y="221.0" type="curve"/>
      <point x="593.4" y="221.0" type="line"/>
      <point x="804.0" y="1489.0" type="line"/>
      <point x="534.4" y="1489.0" type="line"/>
      <point x="286.8" y="0.0" type="line"/>
      <point x="844.2" y="0.0" type="line"/>
      <point x="1186.1999999999998" y="0.0"/>
      <point x="1422.6" y="189.6"/>
      <point x="1468.3999999999999" y="463.4" type="curve"/>
      <point x="1514.3999999999999" y="737.6"/>
      <point x="1337.8" y="914.0"/>
      <point x="995.8000000000001" y="914.0" type="curve"/>
    </contour>
  </outline>
</glyph>
<glyph name="tonesix" format="2">
  <advance height="2479.0" width="1342.6"/>
  <unicode hex="0185"/>
  <outline>
    <contour>
      <point x="783.4" y="-23.0" type="curve" smooth="yes"/>
      <point x="1016.4000000000001" y="-23.0"/>
      <point x="1181.4" y="126.39999999999999"/>
      <point x="1227.3999999999999" y="402.2" type="curve" smooth="yes"/>
      <point x="1274.3999999999999" y="690.6"/>
      <point x="1136.8" y="847.0"/>
      <point x="925.0" y="847.6" type="curve" smooth="yes"/>
      <point x="792.0" y="847.0"/>
      <point x="704.4" y="776.5999999999999"/>
      <point x="652.6" y="700.6" type="curve"/>
      <point x="643.8000000000001" y="700.6" type="line"/>
      <point x="712.6" y="1117.0" type="line"/>
      <point x="453.6" y="1117.0" type="line"/>
      <point x="428.20000000000005" y="959.6" type="line"/>
      <point x="422.2" y="959.6" type="line"/>
      <point x="261.6" y="0.0" type="line"/>
      <point x="521.6" y="0.0" type="line"/>
      <point x="535.4000000000001" y="101.2" type="line"/>
      <point x="548.1999999999999" y="101.2" type="line"/>
      <point x="575.6" y="22.0"/>
      <point x="654.2" y="-23.4"/>
    </contour>
    <contour>
      <point x="735.4" y="187.0" type="curve" smooth="yes"/>
      <point x="618.8" y="186.6"/>
      <point x="571.6" y="271.4"/>
      <point x="595.2" y="414.2" type="curve" smooth="yes"/>
      <point x="616.8000000000001" y="549.2"/>
      <point x="699.0" y="637.6"/>
      <point x="813.6" y="637.6" type="curve" smooth="yes"/>
      <point x="931.8" y="637.6"/>
      <point x="985.8" y="546.8"/>
      <point x="962.1999999999999" y="408.8" type="curve" smooth="yes"/>
      <point x="940.2" y="272.6"/>
      <point x="849.0" y="186.6"/>
    </contour>
    <contour>
      <point x="245.39999999999998" y="670.6" type="line"/>
      <point x="585.0" y="959.6" type="line"/>
      <point x="453.6" y="1117.0" type="line"/>
      <point x="114.0" y="827.6" type="line"/>
    </contour>
  </outline>
</glyph>
<glyph name="Chook" format="2">
  <advance height="2479.0" width="1668.3999999999999"/>
  <unicode hex="0187"/>
  <anchor x="699.4" y="-4.8" name="cedilla"/>
  <anchor x="979.0" y="1676.0" name="top"/>
  <outline>
    <contour>
      <point x="1491.0" y="986.8" type="line"/>
      <point x="1514.6000000000001" y="1132.0" type="line" smooth="yes"/>
      <point x="1534.8" y="1265.4"/>
      <point x="1639.0" y="1306.6"/>
      <point x="1731.0" y="1306.6" type="curve" smooth="yes"/>
      <point x="1755.0" y="1306.6"/>
      <point x="1788.3999999999999" y="1304.2"/>
      <point x="1808.3999999999999" y="1302.4" type="curve"/>
      <point x="1843.0" y="1517.4" type="line"/>
      <point x="1802.2" y="1526.4"/>
      <point x="1759.3999999999999" y="1526.4"/>
      <point x="1714.6000000000001" y="1526.4" type="curve" smooth="yes"/>
      <point x="1501.6000000000001" y="1526.4"/>
      <point x="1298.8" y="1396.4"/>
      <point x="1260.2" y="1158.8" type="curve" smooth="yes"/>
      <point x="1231.8" y="986.8" type="line"/>
    </contour>
    <component base="C"/>
  </outline>
</glyph>
<glyph name="chook" format="2">
  <advance height="2479.0" width="1295.0"/>
  <unicode hex="0188"/>
  <anchor x="533.8000000000001" y="0.0" name="cedilla"/>
  <anchor x="741.6" y="1303.0" name="top"/>
  <outline>
    <contour>
      <point x="1132.3999999999999" y="730.6" type="line"/>
      <point x="1160.8" y="890.8" type="line" smooth="yes"/>
      <point x="1179.0" y="997.6"/>
      <point x="1236.8000000000002" y="1035.0"/>
      <point x="1324.3999999999999" y="1035.0" type="curve" smooth="yes"/>
      <point x="1351.0" y="1035.0"/>
      <point x="1372.6" y="1030.8"/>
      <point x="1394.3999999999999" y="1027.8" type="curve"/>
      <point x="1424.2" y="1211.8" type="line"/>
      <point x="1389.0" y="1223.2"/>
      <point x="1347.4" y="1226.8"/>
      <point x="1308.6" y="1226.8" type="curve" smooth="yes"/>
      <point x="1114.6" y="1226.8"/>
      <point x="949.4" y="1105.4"/>
      <point x="912.6" y="892.0" type="curve" smooth="yes"/>
      <point x="883.6" y="730.6" type="line"/>
    </contour>
    <component base="c"/>
  </outline>
</glyph>
<glyph name="Dhook" format="2">
  <advance height="2479.0" width="1875.8"/>
  <unicode hex="018A"/>
  <anchor x="886.6000000000001" y="0.0" name="bottom"/>
  <anchor x="730.2" y="776.0" name="cross"/>
  <anchor x="1297.6" y="1676.0" name="top"/>
  <outline>
    <contour>
      <point x="155.8" y="1004.4" type="line"/>
      <point x="399.2" y="1004.4" type="line"/>
      <point x="411.8" y="1080.2" type="line" smooth="yes"/>
      <point x="425.79999999999995" y="1171.2"/>
      <point x="461.6" y="1255.8"/>
      <point x="581.0" y="1255.8" type="curve" smooth="yes"/>
      <point x="772.1999999999999" y="1255.8" type="line"/>
      <point x="811.0" y="1489.0" type="line"/>
      <point x="618.0" y="1489.0" type="line" smooth="yes"/>
      <point x="378.0" y="1489.0"/>
      <point x="208.6" y="1345.2"/>
      <point x="176.8" y="1134.6" type="curve" smooth="yes"/>
    </contour>
    <component base="D" xOffset="392.20000000000005"/>
  </outline>
</glyph>
<glyph name="Dtopbar" format="2">
  <advance height="2479.0" width="1337.8"/>
  <unicode hex="018B"/>
  <outline>
    <contour>
      <point x="551.2" y="0.0" type="curve" smooth="yes"/>
      <point x="1100.0" y="0.0" type="line"/>
      <point x="1346.4" y="1489.0" type="line"/>
      <point x="388.2" y="1489.0" type="line"/>
      <point x="351.0" y="1263.0" type="line"/>
      <point x="1039.6000000000001" y="1263.0" type="line"/>
      <point x="981.8000000000001" y="914.0" type="line"/>
      <point x="687.6" y="914.0" type="line" smooth="yes"/>
      <point x="344.6" y="914.0"/>
      <point x="119.6" y="746.4"/>
      <point x="75.0" y="481.4" type="curve" smooth="yes"/>
      <point x="28.8" y="198.4"/>
      <point x="208.2" y="0.0"/>
    </contour>
    <contour>
      <point x="572.0" y="221.0" type="line" smooth="yes"/>
      <point x="392.20000000000005" y="221.0"/>
      <point x="317.4" y="327.8"/>
      <point x="337.59999999999997" y="449.4" type="curve" smooth="yes"/>
      <point x="360.2" y="584.2"/>
      <point x="485.20000000000005" y="694.8"/>
      <point x="665.6" y="694.8" type="curve" smooth="yes"/>
      <point x="945.2" y="694.8" type="line"/>
      <point x="867.2" y="221.0" type="line"/>
    </contour>
  </outline>
</glyph>
<glyph name="dtopbar" format="2">
  <advance height="2479.0" width="1291.6"/>
  <unicode hex="018C"/>
  <anchor x="531.8" y="0.0" name="bottom"/>
  <anchor x="1132.2" y="1280.0" name="cross"/>
  <anchor x="669.6" y="1303.0" name="top"/>
  <outline>
    <contour>
      <point x="399.0" y="1489.0" type="line"/>
      <point x="365.8" y="1287.4" type="line"/>
      <point x="1095.4" y="1287.4" type="line"/>
      <point x="1128.2" y="1489.0" type="line"/>
    </contour>
    <contour>
      <point x="1051.6" y="0.0" type="line"/>
      <point x="1298.6" y="1489.0" type="line"/>
      <point x="1034.6" y="1489.0" type="line"/>
      <point x="942.4" y="932.8" type="line"/>
      <point x="931.0" y="932.8" type="line"/>
      <point x="905.1999999999999" y="1013.2"/>
      <point x="842.6" y="1132.0"/>
      <point x="644.8" y="1132.0" type="curve" smooth="yes"/>
      <point x="387.2" y="1132.0"/>
      <point x="150.8" y="930.0"/>
      <point x="89.8" y="557.2" type="curve" smooth="yes"/>
      <point x="28.799999999999997" y="189.4"/>
      <point x="191.6" y="-19.8"/>
      <point x="454.59999999999997" y="-19.8" type="curve" smooth="yes"/>
      <point x="646.4" y="-19.8"/>
      <point x="751.8000000000001" y="94.6"/>
      <point x="806.5999999999999" y="176.4" type="curve"/>
      <point x="822.1999999999999" y="176.4" type="line"/>
      <point x="792.4" y="0.0" type="line"/>
    </contour>
    <contour>
      <point x="886.0" y="559.0" type="curve" smooth="yes"/>
      <point x="850.0" y="341.4"/>
      <point x="731.1999999999999" y="196.2"/>
      <point x="563.0" y="196.2" type="curve" smooth="yes"/>
      <point x="389.6" y="196.2"/>
      <point x="323.0" y="349.2"/>
      <point x="357.6" y="559.0" type="curve" smooth="yes"/>
      <point x="392.8" y="766.0"/>
      <point x="507.0" y="915.4"/>
      <point x="682.4000000000001" y="915.4" type="curve" smooth="yes"/>
      <point x="852.2" y="915.4"/>
      <point x="922.4" y="775.0"/>
    </contour>
  </outline>
</glyph>
<glyph name="deltaturned" format="2">
  <advance height="2479.0" width="1205.8"/>
  <unicode hex="018D"/>
  <outline>
    <contour>
      <point x="437.40000000000003" y="-449.8" type="curve" smooth="yes"/>
      <point x="672.2" y="-449.8"/>
      <point x="845.4" y="-340.2"/>
      <point x="872.8" y="-172.8" type="curve" smooth="yes"/>
      <point x="892.8000000000001" y="-47.4"/>
      <point x="839.0" y="56.8"/>
      <point x="724.4" y="117.60000000000001" type="curve"/>
      <point x="726.8" y="125.0" type="line"/>
      <point x="926.0" y="173.0"/>
      <point x="1084.2" y="352.59999999999997"/>
      <point x="1123.6000000000001" y="589.1999999999999" type="curve" smooth="yes"/>
      <point x="1177.2" y="913.4000000000001"/>
      <point x="994.2" y="1130.8"/>
      <point x="684.4" y="1130.8" type="curve" smooth="yes"/>
      <point x="377.0" y="1130.8"/>
      <point x="147.0" y="916.5999999999999"/>
      <point x="98.2" y="617.2" type="curve" smooth="yes"/>
      <point x="47.2" y="313.40000000000003"/>
      <point x="206.0" y="109.6"/>
      <point x="454.19999999999993" y="24.599999999999998" type="curve" smooth="yes"/>
      <point x="571.0" y="-24.6"/>
      <point x="624.2" y="-80.60000000000001"/>
      <point x="616.2" y="-131.0" type="curve" smooth="yes"/>
      <point x="604.8" y="-198.20000000000002"/>
      <point x="524.1999999999999" y="-247.0"/>
      <point x="419.4" y="-247.0" type="curve" smooth="yes"/>
      <point x="356.59999999999997" y="-247.0"/>
      <point x="262.2" y="-229.0"/>
      <point x="181.0" y="-193.2" type="curve"/>
      <point x="161.20000000000002" y="-399.8" type="line"/>
      <point x="244.20000000000002" y="-429.59999999999997"/>
      <point x="339.0" y="-449.8"/>
    </contour>
    <contour>
      <point x="531.4" y="224.2" type="curve"/>
      <point x="383.4" y="255.79999999999998"/>
      <point x="327.8" y="394.0"/>
      <point x="359.4" y="587.4" type="curve" smooth="yes"/>
      <point x="386.6" y="751.0"/>
      <point x="497.8" y="920.8"/>
      <point x="676.0" y="920.8" type="curve" smooth="yes"/>
      <point x="839.5999999999999" y="920.8"/>
      <point x="886.5999999999999" y="771.1999999999999"/>
      <point x="857.1999999999999" y="595.0" type="curve" smooth="yes"/>
      <point x="821.1999999999999" y="377.0"/>
      <point x="703.8000000000001" y="226.0"/>
    </contour>
  </outline>
</glyph>
<glyph name="Schwa" format="2">
  <advance height="2479.0" width="1590.8"/>
  <unicode hex="018F"/>
  <outline>
    <contour>
      <point x="710.4" y="-20.0" type="curve" smooth="yes"/>
      <point x="1114.6000000000001" y="-20.0"/>
      <point x="1433.0" y="263.59999999999997"/>
      <point x="1509.6" y="726.1999999999999" type="curve" smooth="yes"/>
      <point x="1590.6" y="1214.0"/>
      <point x="1340.3999999999999" y="1510.0"/>
      <point x="943.8000000000001" y="1510.0" type="curve" smooth="yes"/>
      <point x="621.1999999999999" y="1510.0"/>
      <point x="341.59999999999997" y="1306.0"/>
      <point x="247.6" y="1013.6" type="curve"/>
      <point x="522.8" y="1013.6" type="line"/>
      <point x="596.8000000000001" y="1172.0"/>
      <point x="741.8000000000001" y="1267.8"/>
      <point x="928.2" y="1267.8" type="curve" smooth="yes"/>
      <point x="1161.8" y="1267.8"/>
      <point x="1299.3999999999999" y="1089.8"/>
      <point x="1244.6" y="763.2" type="curve" smooth="yes"/>
      <point x="1187.8" y="418.0"/>
      <point x="977.4000000000001" y="221.60000000000002"/>
      <point x="720.4" y="221.60000000000002" type="curve" smooth="yes"/>
      <point x="500.59999999999997" y="221.60000000000002"/>
      <point x="386.59999999999997" y="351.2"/>
      <point x="422.0" y="569.8" type="curve"/>
      <point x="361.2" y="568.6" type="line"/>
      <point x="1350.6" y="568.6" type="line"/>
      <point x="1385.3999999999999" y="779.8" type="line"/>
      <point x="196.6" y="779.8" type="line"/>
      <point x="168.8" y="610.2" type="line" smooth="yes"/>
      <point x="104.4" y="225.60000000000002"/>
      <point x="334.40000000000003" y="-20.0"/>
    </contour>
  </outline>
</glyph>
<glyph name="Eopen" format="2">
  <advance height="2479.0" width="1345.2"/>
  <unicode hex="0190"/>
  <outline>
    <contour>
      <point x="579.6" y="-23.0" type="curve" smooth="yes"/>
      <point x="892.4" y="-23.0"/>
      <point x="1155.8000000000002" y="126.0"/>
      <point x="1202.4" y="404.0" type="curve"/>
      <point x="934.1999999999999" y="404.0" type="line"/>
      <point x="916.8" y="299.6"/>
      <point x="783.4" y="218.60000000000002"/>
      <point x="607.0" y="218.60000000000002" type="curve" smooth="yes"/>
      <point x="456.79999999999995" y="218.60000000000002"/>
      <point x="340.6" y="275.4"/>
      <point x="365.20000000000005" y="420.20000000000005" type="curve" smooth="yes"/>
      <point x="387.8" y="563.2"/>
      <point x="517.6" y="641.8"/>
      <point x="693.0" y="641.8" type="curve" smooth="yes"/>
      <point x="861.8" y="641.8" type="line"/>
      <point x="886.8" y="802.2" type="line"/>
      <point x="672.1999999999999" y="802.2" type="line"/>
      <point x="343.79999999999995" y="802.2"/>
      <point x="135.2" y="672.8"/>
      <point x="93.8" y="421.8" type="curve" smooth="yes"/>
      <point x="44.0" y="125.6"/>
      <point x="263.2" y="-23.0"/>
    </contour>
    <contour>
      <point x="671.4" y="709.8" type="curve"/>
      <point x="871.4" y="709.8" type="line"/>
      <point x="898.6" y="873.6" type="line"/>
      <point x="716.4" y="873.6" type="line" smooth="yes"/>
      <point x="549.2" y="873.6"/>
      <point x="480.2" y="957.4"/>
      <point x="497.2" y="1061.0" type="curve" smooth="yes"/>
      <point x="517.4000000000001" y="1183.4"/>
      <point x="640.5999999999999" y="1267.8"/>
      <point x="808.6" y="1267.8" type="curve" smooth="yes"/>
      <point x="954.2" y="1267.8"/>
      <point x="1041.0" y="1199.8"/>
      <point x="1024.1999999999998" y="1100.0" type="curve"/>
      <point x="1296.0" y="1100.0" type="line"/>
      <point x="1336.2" y="1346.4"/>
      <point x="1137.2" y="1510.0"/>
      <point x="813.0" y="1510.0" type="curve" smooth="yes"/>
      <point x="510.20000000000005" y="1510.0"/>
      <point x="272.8" y="1362.6"/>
      <point x="231.60000000000002" y="1116.8" type="curve" smooth="yes"/>
      <point x="190.20000000000002" y="864.5999999999999"/>
      <point x="375.59999999999997" y="710.4"/>
    </contour>
  </outline>
</glyph>
<glyph name="Fhook" format="2">
  <advance height="2479.0" width="1231.4"/>
  <unicode hex="0191"/>
  <anchor x="534.4" y="12.0" name="bottom"/>
  <anchor x="271.6" y="309.4" name="cross"/>
  <anchor x="855.2" y="1676.0" name="top"/>
  <outline>
    <contour>
      <point x="85.80000000000001" y="0.0" type="line"/>
      <point x="73.60000000000001" y="-83.6" type="line" smooth="yes"/>
      <point x="57.60000000000001" y="-183.4"/>
      <point x="-21.200000000000003" y="-207.2"/>
      <point x="-100.2" y="-207.2" type="curve" smooth="yes"/>
      <point x="-123.80000000000001" y="-207.2"/>
      <point x="-148.6" y="-206.6"/>
      <point x="-163.60000000000002" y="-203.6" type="curve"/>
      <point x="-197.4" y="-411.2" type="line"/>
      <point x="-165.6" y="-419.0"/>
      <point x="-115.8" y="-419.0"/>
      <point x="-88.39999999999999" y="-419.0" type="curve" smooth="yes"/>
      <point x="116.8" y="-419.0"/>
      <point x="298.6" y="-341.79999999999995"/>
      <point x="341.4" y="-85.4" type="curve" smooth="yes"/>
      <point x="356.4" y="0.0" type="line"/>
    </contour>
    <component base="F" xOffset="32.400000000000006"/>
  </outline>
</glyph>
<glyph name="florin" format="2">
  <advance height="2479.0" width="903.8"/>
  <unicode hex="0192"/>
  <outline>
    <contour>
      <point x="856.6" y="1082.0" type="line"/>
      <point x="643.4" y="1082.0" type="line"/>
      <point x="658.4" y="1180.2" type="line" smooth="yes"/>
      <point x="676.2" y="1283.8"/>
      <point x="742.6" y="1336.2"/>
      <point x="843.6" y="1336.2" type="curve" smooth="yes"/>
      <point x="887.4" y="1336.2"/>
      <point x="913.4" y="1331.4"/>
      <point x="936.0" y="1325.4" type="curve"/>
      <point x="1004.8000000000001" y="1533.6" type="line"/>
      <point x="961.0" y="1546.2"/>
      <point x="897.2" y="1556.0"/>
      <point x="836.4" y="1556.0" type="curve" smooth="yes"/>
      <point x="609.2" y="1556.0"/>
      <point x="438.8" y="1424.8"/>
      <point x="398.0" y="1180.2" type="curve" smooth="yes"/>
      <point x="383.0" y="1082.0" type="line"/>
      <point x="210.4" y="1082.0" type="line"/>
      <point x="177.6" y="886.4" type="line"/>
      <point x="349.59999999999997" y="886.4" type="line"/>
      <point x="196.99999999999997" y="-41.4" type="line" smooth="yes"/>
      <point x="180.39999999999998" y="-141.4"/>
      <point x="131.2" y="-203.0"/>
      <point x="44.40000000000001" y="-203.0" type="curve" smooth="yes"/>
      <point x="21.200000000000003" y="-203.0"/>
      <point x="-27.599999999999994" y="-198.8"/>
      <point x="-49.199999999999996" y="-191.4" type="curve"/>
      <point x="-99.4" y="-404.0" type="line"/>
      <point x="-50.599999999999994" y="-416.0"/>
      <point x="-11.400000000000011" y="-419.0"/>
      <point x="35.599999999999994" y="-419.0" type="curve" smooth="yes"/>
      <point x="263.0" y="-419.0"/>
      <point x="416.79999999999995" y="-286.6"/>
      <point x="457.4" y="-41.4" type="curve" smooth="yes"/>
      <point x="610.6" y="886.4" type="line"/>
      <point x="823.2" y="886.4" type="line"/>
    </contour>
  </outline>
</glyph>
<glyph name="Ghook" format="2">
  <advance height="2479.0" width="1667.8"/>
  <unicode hex="0193"/>
  <anchor x="690.4" y="2.4000000000000004" name="bottom"/>
  <anchor x="971.1999999999999" y="1676.0" name="top"/>
  <outline>
    <contour>
      <point x="1493.4" y="1013.6" type="line"/>
      <point x="1528.0" y="1217.0" type="line" smooth="yes"/>
      <point x="1547.8" y="1336.6"/>
      <point x="1636.0" y="1364.8"/>
      <point x="1735.8" y="1364.8" type="curve" smooth="yes"/>
      <point x="1761.1999999999998" y="1364.8"/>
      <point x="1786.0" y="1360.6"/>
      <point x="1809.0" y="1358.2" type="curve"/>
      <point x="1843.6" y="1570.8" type="line"/>
      <point x="1804.6000000000001" y="1582.2"/>
      <point x="1760.6" y="1585.8"/>
      <point x="1716.0" y="1585.8" type="curve" smooth="yes"/>
      <point x="1492.0" y="1585.8"/>
      <point x="1302.0" y="1454.6"/>
      <point x="1256.6" y="1217.0" type="curve" smooth="yes"/>
      <point x="1218.4" y="1013.6" type="line"/>
    </contour>
    <component base="G"/>
  </outline>
</glyph>
<glyph name="Gamma-latin" format="2">
  <advance height="2479.0" width="1447.6"/>
  <unicode hex="0194"/>
  <outline>
    <contour>
      <point x="207.0" y="1489.0" type="line"/>
      <point x="622.0" y="135.4" type="line" smooth="yes"/>
      <point x="663.4000000000001" y="-5.0"/>
      <point x="683.2" y="-96.0"/>
      <point x="673.2" y="-165.2" type="curve" smooth="yes"/>
      <point x="666.4000000000001" y="-210.6"/>
      <point x="635.8" y="-241.8"/>
      <point x="593.4" y="-241.8" type="curve" smooth="yes"/>
      <point x="550.6" y="-241.8"/>
      <point x="529.6" y="-212.0"/>
      <point x="535.4" y="-166.0" type="curve" smooth="yes"/>
      <point x="545.4" y="-96.79999999999998"/>
      <point x="602.6" y="-3.3999999999999986"/>
      <point x="689.8000000000001" y="135.4" type="curve" smooth="yes"/>
      <point x="1550.2" y="1489.0" type="line"/>
      <point x="1246.6000000000001" y="1489.0" type="line"/>
      <point x="613.4000000000001" y="444.4" type="line" smooth="yes"/>
      <point x="356.0" y="27.799999999999997"/>
      <point x="281.0" y="-79.0"/>
      <point x="265.2" y="-174.8" type="curve" smooth="yes"/>
      <point x="237.2" y="-343.8"/>
      <point x="353.40000000000003" y="-442.0"/>
      <point x="558.4" y="-442.0" type="curve" smooth="yes"/>
      <point x="762.2" y="-442.0"/>
      <point x="908.1999999999999" y="-339.0"/>
      <point x="934.9999999999999" y="-179.2" type="curve" smooth="yes"/>
      <point x="952.9999999999999" y="-71.8"/>
      <point x="892.0" y="107.0"/>
      <point x="794.8000000000001" y="444.0" type="curve" smooth="yes"/>
      <point x="509.40000000000003" y="1489.0" type="line"/>
    </contour>
  </outline>
</glyph>
<glyph name="hv" format="2">
  <advance height="2479.0" width="2015.8"/>
  <unicode hex="0195"/>
  <outline>
    <contour>
      <point x="43.2" y="0.0" type="line"/>
      <point x="306.8" y="0.0" type="line"/>
      <point x="414.8" y="654.4" type="line" smooth="yes"/>
      <point x="443.4" y="815.8"/>
      <point x="559.2" y="908.6"/>
      <point x="699.2" y="908.6" type="curve" smooth="yes"/>
      <point x="836.0" y="908.6"/>
      <point x="904.0" y="821.2"/>
      <point x="879.4" y="670.0" type="curve" smooth="yes"/>
      <point x="860.2" y="559.0" type="line"/>
      <point x="1124.2" y="559.0" type="line"/>
      <point x="1150.2" y="711.2" type="line" smooth="yes"/>
      <point x="1194.4" y="981.6"/>
      <point x="1065.8" y="1132.0"/>
      <point x="835.6" y="1132.0" type="curve" smooth="yes"/>
      <point x="662.5999999999999" y="1132.0"/>
      <point x="539.8" y="1054.1999999999998"/>
      <point x="468.6" y="927.8" type="curve"/>
      <point x="455.8" y="927.8" type="line"/>
      <point x="548.2" y="1489.0" type="line"/>
      <point x="290.2" y="1489.0" type="line"/>
    </contour>
    <contour>
      <point x="1189.2" y="-20.0" type="curve" smooth="yes"/>
      <point x="1556.2" y="-20.0"/>
      <point x="1809.4" y="296.40000000000003"/>
      <point x="1923.8000000000002" y="984.4" type="curve" smooth="yes"/>
      <point x="1946.6000000000001" y="1117.0" type="line"/>
      <point x="1683.2" y="1117.0" type="line"/>
      <point x="1660.8" y="984.4" type="line" smooth="yes"/>
      <point x="1570.0" y="438.6"/>
      <point x="1413.2" y="200.60000000000002"/>
      <point x="1238.8000000000002" y="200.60000000000002" type="curve" smooth="yes"/>
      <point x="1157.2" y="200.60000000000002"/>
      <point x="1071.8" y="249.2"/>
      <point x="1103.8" y="437.6" type="curve" smooth="yes"/>
      <point x="1124.2" y="559.0" type="line"/>
      <point x="860.2" y="559.0" type="line"/>
      <point x="840.2" y="437.6" type="line" smooth="yes"/>
      <point x="791.0" y="137.0"/>
      <point x="929.3999999999999" y="-20.0"/>
    </contour>
  </outline>
</glyph>
<glyph name="Khook" format="2">
  <advance height="2479.0" width="1454.0"/>
  <unicode hex="0198"/>
  <outline>
    <contour>
      <point x="53.400000000000006" y="0.0" type="line"/>
      <point x="323.6" y="0.0" type="line"/>
      <point x="393.40000000000003" y="417.8" type="line"/>
      <point x="609.6" y="616.4" type="line"/>
      <point x="972.0" y="0.0" type="line"/>
      <point x="1296.0" y="0.0" type="line"/>
      <point x="811.4000000000001" y="806.6" type="line"/>
      <point x="1253.4" y="1203.2" type="line" smooth="yes"/>
      <point x="1333.6" y="1274.2"/>
      <point x="1394.4" y="1293.8"/>
      <point x="1462.1999999999998" y="1251.6" type="curve"/>
      <point x="1586.2" y="1444.8" type="line"/>
      <point x="1438.0" y="1546.4"/>
      <point x="1259.4" y="1526.0"/>
      <point x="1094.0" y="1377.6" type="curve" smooth="yes"/>
      <point x="477.59999999999997" y="815.8" type="line"/>
      <point x="459.40000000000003" y="815.8" type="line"/>
      <point x="571.0" y="1489.0" type="line"/>
      <point x="301.0" y="1489.0" type="line"/>
    </contour>
  </outline>
</glyph>
<glyph name="khook" format="2">
  <advance height="2479.0" width="1151.4"/>
  <unicode hex="0199"/>
  <outline>
    <contour>
      <point x="749.2" y="0.0" type="line"/>
      <point x="1044.6" y="0.0" type="line"/>
      <point x="692.2" y="640.0" type="line"/>
      <point x="1197.6" y="1117.0" type="line"/>
      <point x="884.4" y="1117.0" type="line"/>
      <point x="434.8" y="688.4" type="line"/>
      <point x="419.8" y="688.4" type="line"/>
      <point x="489.6" y="1111.6" type="line"/>
      <point x="225.6" y="1111.6" type="line"/>
      <point x="42.0" y="0.0" type="line"/>
      <point x="305.6" y="0.0" type="line"/>
      <point x="359.8" y="323.8" type="line"/>
      <point x="497.8" y="451.0" type="line"/>
    </contour>
    <contour>
      <point x="472.20000000000005" y="1004.2" type="line"/>
      <point x="500.0" y="1176.4" type="line" smooth="yes"/>
      <point x="517.8" y="1273.4"/>
      <point x="596.4" y="1299.4"/>
      <point x="679.8000000000001" y="1299.4" type="curve" smooth="yes"/>
      <point x="704.4" y="1299.4"/>
      <point x="728.0" y="1297.0"/>
      <point x="747.6" y="1294.0" type="curve"/>
      <point x="782.0" y="1499.8" type="line"/>
      <point x="749.2" y="1506.4"/>
      <point x="699.6" y="1510.0"/>
      <point x="644.6" y="1510.0" type="curve" smooth="yes"/>
      <point x="464.4" y="1510.0"/>
      <point x="279.79999999999995" y="1432.4"/>
      <point x="237.0" y="1176.4" type="curve" smooth="yes"/>
      <point x="208.6" y="1004.2" type="line"/>
    </contour>
  </outline>
</glyph>
<glyph name="lambdastroke" format="2">
  <advance height="2479.0" width="1229.0"/>
  <unicode hex="019B"/>
  <outline>
    <contour>
      <point x="275.59999999999997" y="994.0" type="line"/>
      <point x="891.8" y="1192.8" type="line"/>
      <point x="924.0" y="1380.8" type="line"/>
      <point x="306.4" y="1182.6" type="line"/>
    </contour>
    <component base="lambda"/>
  </outline>
</glyph>
<glyph name="Mturned" format="2">
  <advance height="2479.0" width="1907.6"/>
  <unicode hex="019C"/>
  <outline>
    <contour>
      <point x="436.79999999999995" y="-22.6" type="curve" smooth="yes"/>
      <point x="732.4" y="-22.6"/>
      <point x="888.5999999999999" y="191.6"/>
      <point x="939.4" y="497.2" type="curve"/>
      <point x="843.8" y="511.8" type="line"/>
      <point x="815.6" y="338.8"/>
      <point x="717.2" y="198.2"/>
      <point x="540.4" y="198.2" type="curve" smooth="yes"/>
      <point x="434.8" y="198.2"/>
      <point x="364.0" y="247.2"/>
      <point x="393.20000000000005" y="421.59999999999997" type="curve" smooth="yes"/>
      <point x="570.0" y="1489.0" type="line"/>
      <point x="300.0" y="1489.0" type="line"/>
      <point x="125.80000000000001" y="439.2" type="line" smooth="yes"/>
      <point x="71.2" y="107.2"/>
      <point x="206.4" y="-22.6"/>
    </contour>
    <contour>
      <point x="1109.2" y="-22.6" type="curve" smooth="yes"/>
      <point x="1397.0" y="-22.6"/>
      <point x="1554.0" y="195.2"/>
      <point x="1604.6000000000001" y="497.2" type="curve"/>
      <point x="1511.4" y="511.8" type="line"/>
      <point x="1482.6" y="340.0"/>
      <point x="1386.6000000000001" y="198.2"/>
      <point x="1209.2" y="198.2" type="curve" smooth="yes"/>
      <point x="1103.6000000000001" y="198.2"/>
      <point x="1033.8" y="247.2"/>
      <point x="1062.3999999999999" y="421.59999999999997" type="curve"/>
      <point x="1239.3999999999999" y="1489.0" type="line"/>
      <point x="969.1999999999999" y="1489.0" type="line"/>
      <point x="795.5999999999999" y="439.2" type="line"/>
      <point x="739.5999999999999" y="104.2"/>
      <point x="890.4" y="-22.6"/>
    </contour>
    <contour>
      <point x="1398.0" y="0.0" type="line"/>
      <point x="1668.0" y="0.0" type="line"/>
      <point x="1914.6" y="1489.0" type="line"/>
      <point x="1645.0" y="1489.0" type="line"/>
    </contour>
  </outline>
</glyph>
<glyph name="Nhookleft" format="2">
  <advance height="2479.0" width="1547.3999999999999"/>
  <unicode hex="019D"/>
  <anchor x="695.6" y="0.0" name="bottom"/>
  <anchor x="1332.6" y="0.0" name="right"/>
  <anchor x="974.6" y="1676.0" name="top"/>
  <outline>
    <contour>
      <point x="82.6" y="0.0" type="line"/>
      <point x="68.19999999999999" y="-83.6" type="line" smooth="yes"/>
      <point x="51.599999999999994" y="-181.0"/>
      <point x="-24.600000000000005" y="-207.2"/>
      <point x="-110.39999999999999" y="-207.2" type="curve" smooth="yes"/>
      <point x="-129.0" y="-207.2"/>
      <point x="-153.8" y="-206.6"/>
      <point x="-170.79999999999998" y="-203.6" type="curve"/>
      <point x="-204.6" y="-411.2" type="line"/>
      <point x="-170.79999999999998" y="-417.8"/>
      <point x="-107.8" y="-420.8"/>
      <point x="-64.4" y="-420.8" type="curve" smooth="yes"/>
      <point x="117.0" y="-420.8"/>
      <point x="287.8" y="-350.79999999999995"/>
      <point x="336.0" y="-85.4" type="curve" smooth="yes"/>
      <point x="352.20000000000005" y="0.0" type="line"/>
    </contour>
    <component base="N" xOffset="29.2"/>
  </outline>
</glyph>
<glyph name="Ohorn" format="2">
  <advance height="2479.0" width="1638.6"/>
  <unicode hex="01A0"/>
  <anchor x="707.2" y="3.5999999999999996" name="bottom"/>
  <anchor x="877.0" y="2.4000000000000004" name="ogonek"/>
  <anchor x="327.8" y="1489.0" name="tonos"/>
  <anchor x="978.2" y="1676.0" name="top"/>
  <outline>
    <contour>
      <point x="1591.8" y="1573.8" type="line"/>
      <point x="1562.2" y="1396.8"/>
      <point x="1494.0" y="1293.0"/>
      <point x="1349.4" y="1293.0" type="curve"/>
      <point x="1324.0" y="1139.4" type="line"/>
      <point x="1587.6" y="1139.4"/>
      <point x="1736.2" y="1297.8"/>
      <point x="1782.2" y="1573.8" type="curve"/>
    </contour>
    <component base="O"/>
  </outline>
</glyph>
<glyph name="ohorn" format="2">
  <advance height="2479.0" width="1273.2"/>
  <unicode hex="01A1"/>
  <anchor x="530.2" y="0.0" name="bottom"/>
  <anchor x="673.4" y="0.0" name="ogonek"/>
  <anchor x="745.8000000000001" y="1303.0" name="top"/>
  <outline>
    <contour>
      <point x="1200.0" y="1188.2" type="line"/>
      <point x="1173.2" y="1031.0"/>
      <point x="1129.0" y="931.4"/>
      <point x="977.6" y="931.4" type="curve"/>
      <point x="955.8" y="808.2" type="line"/>
      <point x="1210.6000000000001" y="808.2"/>
      <point x="1337.0" y="951.2"/>
      <point x="1376.4" y="1188.2" type="curve"/>
    </contour>
    <component base="o"/>
  </outline>
</glyph>
<glyph name="Oi" format="2">
  <advance height="2479.0" width="1868.0"/>
  <unicode hex="01A2"/>
  <outline>
    <contour>
      <point x="1346.1999999999998" y="841.8" type="line" name="hr00"/>
      <point x="1076.1999999999998" y="841.8" type="line"/>
      <point x="983.1999999999999" y="286.0" type="line"/>
      <point x="921.4000000000001" y="234.8"/>
      <point x="824.0" y="203.4"/>
      <point x="715.2" y="203.4" type="curve" smooth="yes"/>
      <point x="447.59999999999997" y="203.4"/>
      <point x="364.2" y="385.6"/>
      <point x="413.8" y="682.4" type="curve" smooth="yes"/>
      <point x="431.4" y="794.4" type="line"/>
      <point x="148.6" y="791.4" type="line"/>
      <point x="130.6" y="682.4" type="line" smooth="yes"/>
      <point x="57.800000000000004" y="245.8"/>
      <point x="255.00000000000003" y="-20.0"/>
      <point x="665.8" y="-20.0" type="curve" smooth="yes"/>
      <point x="915.4" y="-20.0"/>
      <point x="1132.4" y="74.4"/>
      <point x="1237.3999999999999" y="189.6" type="curve"/>
    </contour>
    <contour>
      <point x="1421.8" y="1300.0" type="line"/>
      <point x="1356.2" y="1412.8"/>
      <point x="1174.4" y="1510.0"/>
      <point x="929.0" y="1510.0" type="curve" smooth="yes"/>
      <point x="513.4" y="1510.0"/>
      <point x="223.6" y="1249.8"/>
      <point x="150.79999999999998" y="807.2" type="curve" smooth="yes"/>
      <point x="132.2" y="696.2" type="line"/>
      <point x="416.0" y="695.0" type="line"/>
      <point x="434.2" y="807.2" type="line" smooth="yes"/>
      <point x="485.2" y="1116.6"/>
      <point x="624.4" y="1284.2"/>
      <point x="897.0" y="1284.2" type="curve" smooth="yes"/>
      <point x="999.6" y="1284.2"/>
      <point x="1090.6" y="1255.4"/>
      <point x="1135.3999999999999" y="1202.4" type="curve"/>
      <point x="1045.1999999999998" y="656.8" type="line"/>
      <point x="1316.0" y="659.2" type="line"/>
    </contour>
    <contour>
      <point x="1873.0" y="1489.0" type="line"/>
      <point x="1668.4" y="1489.0" type="line"/>
      <point x="1286.3999999999999" y="1331.6" type="line"/>
      <point x="1241.3999999999999" y="1057.0" type="line"/>
      <point x="1552.8" y="1181.2" type="line"/>
      <point x="1287.6" y="-419.0" type="line"/>
      <point x="1557.4" y="-419.0" type="line"/>
    </contour>
  </outline>
</glyph>
<glyph name="oi" format="2">
  <advance height="2479.0" width="1510.8"/>
  <unicode hex="01A3"/>
  <outline>
    <contour>
      <point x="530.0" y="196.8" type="curve" smooth="yes"/>
      <point x="363.0" y="196.8"/>
      <point x="323.59999999999997" y="333.8"/>
      <point x="352.6" y="525.4" type="curve" smooth="yes"/>
      <point x="357.40000000000003" y="556.6" type="line" smooth="yes"/>
      <point x="385.8" y="749.0"/>
      <point x="457.6" y="916.0"/>
      <point x="643.1999999999999" y="916.0" type="curve" smooth="yes"/>
      <point x="708.4" y="916.0"/>
      <point x="750.2" y="896.0"/>
      <point x="777.5999999999999" y="861.0" type="curve"/>
      <point x="727.1999999999999" y="560.2" type="line"/>
      <point x="995.8" y="546.2" type="line"/>
      <point x="1057.6000000000001" y="915.4" type="line"/>
      <point x="1007.8000000000001" y="1021.0"/>
      <point x="884.2" y="1132.0"/>
      <point x="688.0" y="1132.0" type="curve" smooth="yes"/>
      <point x="347.4" y="1132.0"/>
      <point x="138.4" y="887.6"/>
      <point x="87.60000000000001" y="556.6" type="curve" smooth="yes"/>
      <point x="82.80000000000001" y="525.4" type="line" smooth="yes"/>
      <point x="36.6" y="222.8"/>
      <point x="160.6" y="-20.0"/>
      <point x="492.6" y="-20.0" type="curve" smooth="yes"/>
      <point x="704.0" y="-20.0"/>
      <point x="839.4" y="68.4"/>
      <point x="935.1999999999999" y="181.0" type="curve"/>
      <point x="1004.6" y="601.2" type="line"/>
      <point x="734.0" y="601.2" type="line"/>
      <point x="675.0" y="241.4" type="line"/>
      <point x="635.8000000000001" y="213.0"/>
      <point x="589.8000000000001" y="196.8"/>
    </contour>
    <contour>
      <point x="1469.8" y="1117.0" type="line"/>
      <point x="1278.0" y="1117.0" type="line"/>
      <point x="945.1999999999999" y="975.0" type="line"/>
      <point x="898.5999999999999" y="696.4" type="line"/>
      <point x="1148.6" y="802.4" type="line"/>
      <point x="947.9999999999999" y="-419.0" type="line"/>
      <point x="1218.0" y="-419.0" type="line"/>
    </contour>
  </outline>
</glyph>
<glyph name="Phook" format="2">
  <advance height="2479.0" width="1699.6000000000001"/>
  <unicode hex="01A4"/>
  <anchor x="655.8" y="1489.0" name="tonos"/>
  <anchor x="1222.3999999999999" y="1676.0" name="top"/>
  <outline>
    <contour>
      <point x="399.2" y="1004.4" type="line"/>
      <point x="411.8" y="1080.2" type="line" smooth="yes"/>
      <point x="425.79999999999995" y="1171.2"/>
      <point x="463.8" y="1264.2"/>
      <point x="583.4000000000001" y="1264.2" type="curve" smooth="yes"/>
      <point x="774.6" y="1264.2" type="line"/>
      <point x="811.0" y="1489.0" type="line"/>
      <point x="618.0" y="1489.0" type="line" smooth="yes"/>
      <point x="377.79999999999995" y="1489.0"/>
      <point x="209.2" y="1345.2"/>
      <point x="176.8" y="1134.6" type="curve" smooth="yes"/>
      <point x="155.8" y="1004.4" type="line"/>
    </contour>
    <component base="P" xOffset="383.8"/>
  </outline>
</glyph>
<glyph name="phook" format="2">
  <advance height="2479.0" width="1279.6"/>
  <unicode hex="01A5"/>
  <anchor x="108.40000000000002" y="-411.8" name="bottom"/>
  <anchor x="1126.6" y="-487.8" name="bottom0315"/>
  <anchor x="149.99999999999997" y="-163.0" name="cross"/>
  <anchor x="810.6" y="1303.0" name="top"/>
  <outline>
    <contour>
      <point x="486.8" y="1117.0" type="line"/>
      <point x="497.6" y="1185.0"/>
      <point x="543.4" y="1214.6000000000001"/>
      <point x="636.8" y="1213.4" type="curve" smooth="yes"/>
      <point x="669.5999999999999" y="1212.1999999999998"/>
      <point x="702.8" y="1206.2"/>
      <point x="719.2" y="1202.4" type="curve"/>
      <point x="750.6" y="1388.2" type="line"/>
      <point x="726.4" y="1395.3999999999999"/>
      <point x="677.4000000000001" y="1402.8"/>
      <point x="615.0" y="1402.8" type="curve" smooth="yes"/>
      <point x="388.0" y="1402.8"/>
      <point x="259.4" y="1313.4"/>
      <point x="228.0" y="1117.0" type="curve"/>
    </contour>
    <component base="p"/>
  </outline>
</glyph>
<glyph name="Yr" format="2">
  <advance height="2479.0" width="1470.3999999999999"/>
  <unicode hex="01A6"/>
  <outline>
    <contour>
      <point x="231.79999999999998" y="313.2" type="line"/>
      <point x="617.8" y="313.2" type="line" smooth="yes"/>
      <point x="962.8" y="313.2"/>
      <point x="1185.0" y="505.2"/>
      <point x="1225.6" y="757.8" type="curve" smooth="yes"/>
      <point x="1269.0" y="1011.0"/>
      <point x="1109.6" y="1204.2"/>
      <point x="764.5999999999999" y="1204.2" type="curve" smooth="yes"/>
      <point x="378.59999999999997" y="1204.2" type="line"/>
      <point x="342.4" y="988.6" type="line"/>
      <point x="728.8" y="988.6" type="line" smooth="yes"/>
      <point x="917.0" y="988.6"/>
      <point x="990.4" y="889.0"/>
      <point x="968.2" y="755.4" type="curve" smooth="yes"/>
      <point x="945.2" y="622.8"/>
      <point x="841.6" y="528.0"/>
      <point x="653.4" y="528.0" type="curve" smooth="yes"/>
      <point x="267.0" y="528.0" type="line"/>
    </contour>
    <contour>
      <point x="946.8" y="-419.0" type="line"/>
      <point x="1248.4" y="-419.0" type="line"/>
      <point x="930.4" y="420.40000000000003" type="line"/>
      <point x="635.6" y="420.40000000000003" type="line"/>
    </contour>
    <contour>
      <point x="53.400000000000006" y="0.0" type="line"/>
      <point x="323.6" y="0.0" type="line"/>
      <point x="571.0" y="1489.0" type="line"/>
      <point x="301.0" y="1489.0" type="line"/>
    </contour>
  </outline>
</glyph>
<glyph name="Tonetwo" format="2">
  <advance height="2479.0" width="1328.6000000000001"/>
  <unicode hex="01A7"/>
  <anchor x="565.2" y="-15.6" name="bottom"/>
  <anchor x="568.4" y="0.0" name="cedilla"/>
  <anchor x="849.4" y="1676.0" name="top"/>
  <outline>
    <contour>
      <point x="458.20000000000005" y="1079.8" type="line"/>
      <point x="493.40000000000003" y="1206.8"/>
      <point x="611.8" y="1281.2"/>
      <point x="772.8" y="1281.2" type="curve" smooth="yes"/>
      <point x="941.5999999999999" y="1281.2"/>
      <point x="1027.8000000000002" y="1199.0"/>
      <point x="1009.4" y="1087.8" type="curve" smooth="yes"/>
      <point x="990.6" y="963.0"/>
      <point x="850.4" y="911.2"/>
      <point x="722.4" y="881.8" type="curve" smooth="yes"/>
      <point x="577.8000000000001" y="847.4" type="line" smooth="yes"/>
      <point x="344.8" y="794.4"/>
      <point x="112.39999999999999" y="676.8"/>
      <point x="69.2" y="418.0" type="curve" smooth="yes"/>
      <point x="25.999999999999993" y="155.8"/>
      <point x="204.4" y="-22.4"/>
      <point x="561.0" y="-22.4" type="curve" smooth="yes"/>
      <point x="908.1999999999999" y="-22.4"/>
      <point x="1155.6000000000001" y="144.0"/>
      <point x="1216.0" y="440.0" type="curve"/>
      <point x="950.8000000000001" y="440.0" type="line"/>
      <point x="913.0" y="283.8"/>
      <point x="769.4" y="207.8"/>
      <point x="601.0" y="207.8" type="curve" smooth="yes"/>
      <point x="425.40000000000003" y="207.8"/>
      <point x="318.8" y="292.8"/>
      <point x="338.8" y="419.8" type="curve" smooth="yes"/>
      <point x="358.6" y="536.4"/>
      <point x="473.59999999999997" y="585.8"/>
      <point x="640.4" y="627.0" type="curve" smooth="yes"/>
      <point x="817.2" y="671.0" type="line" smooth="yes"/>
      <point x="1073.1999999999998" y="733.6"/>
      <point x="1245.4" y="857.0"/>
      <point x="1280.3999999999999" y="1070.8" type="curve" smooth="yes"/>
      <point x="1324.8" y="1334.0"/>
      <point x="1120.0" y="1510.0"/>
      <point x="807.4" y="1510.0" type="curve" smooth="yes"/>
      <point x="490.2" y="1510.0"/>
      <point x="245.8" y="1331.6"/>
      <point x="198.4" y="1079.8" type="curve"/>
    </contour>
  </outline>
</glyph>
